# Blender 4.5.1 LTS
# www.blender.org
mtllib cube.mtl
o cu_Cubes
v 1.246150 1.000000 -0.399277
v 1.246150 -1.000000 -0.399277
v 0.636797 1.000000 1.505635
v 0.636797 -1.000000 1.505635
v -0.658762 1.000000 -1.008630
v -0.658762 -1.000000 -1.008630
v -1.268115 1.000000 0.896282
v -1.268115 -1.000000 0.896282
v 2.256825 3.732813 3.440926
v 2.256825 -1.000000 3.440926
v 1.366496 3.732813 1.650029
v 1.366496 -1.000000 1.650029
v 4.047723 3.732813 2.550597
v 4.047723 -1.000000 2.550597
v 3.157393 3.732813 0.759699
v 3.157393 -1.000000 0.759699
vn -0.0000 1.0000 -0.0000
vn -0.3047 -0.0000 0.9525
vn -0.9525 -0.0000 -0.3047
vn -0.0000 -1.0000 -0.0000
vn 0.9525 -0.0000 0.3047
vn 0.3047 -0.0000 -0.9525
vn -0.4452 -0.0000 -0.8954
vn 0.8954 -0.0000 -0.4452
vn -0.8954 -0.0000 0.4452
vn 0.4452 -0.0000 0.8954
vt 0.625000 0.500000
vt 0.875000 0.500000
vt 0.875000 0.750000
vt 0.625000 0.750000
vt 0.375000 0.750000
vt 0.625000 1.000000
vt 0.375000 1.000000
vt 0.375000 0.000000
vt 0.625000 0.000000
vt 0.625000 0.250000
vt 0.375000 0.250000
vt 0.125000 0.500000
vt 0.375000 0.500000
vt 0.125000 0.750000
s 0
usemtl Material
f 1/1/1 5/2/1 7/3/1 3/4/1
f 4/5/2 3/4/2 7/6/2 8/7/2
f 8/8/3 7/9/3 5/10/3 6/11/3
f 6/12/4 2/13/4 4/5/4 8/14/4
f 2/13/5 1/1/5 3/4/5 4/5/5
f 6/11/6 5/10/6 1/1/6 2/13/6
usemtl Material.001
f 9/1/1 13/2/1 15/3/1 11/4/1
f 12/5/7 11/4/7 15/6/7 16/7/7
f 16/8/8 15/9/8 13/10/8 14/11/8
f 14/12/4 10/13/4 12/5/4 16/14/4
f 10/13/9 9/1/9 11/4/9 12/5/9
f 14/11/10 13/10/10 9/1/10 10/13/10
