# Blender 4.5.1 LTS
# www.blender.org
mtllib plane_white.mtl
o plane_white
v -2.700000 -1.000000 4.500000
v 5.300000 -1.000000 4.500000
v -2.700000 -1.000000 -3.500000
v 5.300000 -1.000000 -3.500000
v -2.700000 6.999999 -3.500003
v 5.300000 6.999999 -3.500003
v -2.700000 7.000001 4.499997
v 5.300000 7.000001 4.499997
vn -0.0000 1.0000 -0.0000
vn -0.0000 -1.0000 -0.0000
vt 0.000000 0.000000
vt 1.000000 0.000000
vt 1.000000 1.000000
vt 0.000000 1.000000
s 0
f 1/1/1 2/2/1 4/3/1 3/4/1
f 5/1/2 6/2/2 8/3/2 7/4/2
