# Blender v3.0.1 OBJ File: ''
# www.blender.org
mtllib cu_cube.mtl
o cu_cube_Cube.001
v 0.088657 1.045352 -0.429007
v 0.147488 1.232181 -0.323617
v -0.092393 1.147207 -0.508503
v -0.033563 1.334035 -0.403112
v 0.203691 1.110112 -0.608023
v 0.262522 1.296940 -0.502632
v 0.022641 1.211966 -0.687518
v 0.081471 1.398795 -0.582128
vt 0.375000 0.000000
vt 0.625000 0.000000
vt 0.625000 0.250000
vt 0.375000 0.250000
vt 0.625000 0.500000
vt 0.375000 0.500000
vt 0.625000 0.750000
vt 0.375000 0.750000
vt 0.625000 1.000000
vt 0.375000 1.000000
vt 0.125000 0.500000
vt 0.125000 0.750000
vt 0.875000 0.500000
vt 0.875000 0.750000
vn -0.5172 -0.2912 0.8048
vn -0.8140 0.4579 -0.3574
vn 0.5172 0.2912 -0.8048
vn 0.8140 -0.4579 0.3574
vn -0.2645 -0.8400 -0.4738
vn 0.2645 0.8400 0.4738
usemtl DefaultMaterial
s off
f 1/1/1 2/2/1 4/3/1 3/4/1
f 3/4/2 4/3/2 8/5/2 7/6/2
f 7/6/3 8/5/3 6/7/3 5/8/3
f 5/8/4 6/7/4 2/9/4 1/10/4
f 3/11/5 7/6/5 5/8/5 1/12/5
f 8/5/6 4/13/6 2/14/6 6/7/6
