# Blender v3.0.1 OBJ File: ''
# www.blender.org
mtllib CORVETTEZ06 BOX CUT.013.mtl
o CORVETTEZ06_BOX_CUT.013
v -2.121647 0.679647 -0.662862
v -2.119205 0.634785 -0.662862
v -2.119816 0.641194 -0.610065
v -2.121341 0.679647 -0.607318
v -2.110355 0.679647 -0.718101
v -2.098453 0.679647 -0.754418
v -2.099368 0.648213 -0.747398
v -2.109134 0.641194 -0.715354
v -2.116153 0.648213 -0.578021
v -2.116459 0.679647 -0.571001
v -2.108219 0.717795 -0.715354
v -2.098758 0.710776 -0.747398
v -2.117985 0.724509 -0.662862
v -2.118900 0.717795 -0.610065
v -2.115543 0.710776 -0.578021
v -2.100284 0.737327 -0.727561
v -2.103030 0.755028 -0.697958
v -2.106693 0.761437 -0.662862
v -2.110050 0.755028 -0.627461
v -2.113407 0.737327 -0.597858
v -2.114628 0.621662 -0.597858
v -2.111881 0.603961 -0.627461
v -2.108524 0.597858 -0.662862
v -2.104861 0.603961 -0.697958
v -2.101810 0.621662 -0.727561
v -2.153386 0.684835 -0.436720
v -2.150945 0.639973 -0.436720
v -2.151555 0.646382 -0.383923
v -2.153081 0.684835 -0.381176
v -2.142094 0.684835 -0.492264
v -2.130192 0.684835 -0.528275
v -2.131107 0.653401 -0.521561
v -2.140873 0.646382 -0.489212
v -2.147893 0.653401 -0.351878
v -2.148198 0.684835 -0.344859
v -2.139958 0.722983 -0.489212
v -2.130497 0.715964 -0.521561
v -2.149724 0.729698 -0.436720
v -2.150639 0.722983 -0.383923
v -2.147282 0.715964 -0.351878
v -2.132023 0.742515 -0.501419
v -2.134770 0.760216 -0.471816
v -2.138432 0.766625 -0.436720
v -2.141789 0.760216 -0.401624
v -2.145146 0.742515 -0.371715
v -2.146367 0.626850 -0.371715
v -2.143620 0.609149 -0.401624
v -2.140263 0.603046 -0.436720
v -2.136601 0.609149 -0.471816
v -2.133549 0.626850 -0.501419
v -2.121647 0.679647 0.663472
v -2.121341 0.679647 0.607929
v -2.119816 0.641194 0.610675
v -2.119205 0.634785 0.663472
v -2.110355 0.679647 0.718711
v -2.109134 0.641194 0.715964
v -2.099368 0.648213 0.748009
v -2.098453 0.679647 0.755028
v -2.116459 0.679647 0.571612
v -2.116153 0.648213 0.578631
v -2.098758 0.710776 0.748009
v -2.108219 0.717795 0.715964
v -2.117985 0.724509 0.663472
v -2.118900 0.717795 0.610675
v -2.115543 0.710776 0.578631
v -2.100284 0.737327 0.728172
v -2.103030 0.755028 0.698569
v -2.106693 0.761437 0.663472
v -2.110050 0.755028 0.628071
v -2.113407 0.737327 0.598468
v -2.114628 0.621662 0.598468
v -2.111881 0.603961 0.628071
v -2.108524 0.597858 0.663472
v -2.104861 0.603961 0.698569
v -2.101810 0.621662 0.728172
v -2.153386 0.684835 0.437330
v -2.153081 0.684835 0.381787
v -2.151555 0.646382 0.384533
v -2.150945 0.639973 0.437330
v -2.142094 0.684835 0.492874
v -2.140873 0.646382 0.489822
v -2.131107 0.653401 0.522172
v -2.130192 0.684835 0.528886
v -2.148198 0.684835 0.345470
v -2.147893 0.653401 0.352489
v -2.130497 0.715964 0.522172
v -2.139958 0.722983 0.489822
v -2.149724 0.729698 0.437330
v -2.150639 0.722983 0.384533
v -2.147282 0.715964 0.352489
v -2.132023 0.742515 0.502029
v -2.134770 0.760216 0.472427
v -2.138432 0.766625 0.437330
v -2.141789 0.760216 0.402234
v -2.145146 0.742515 0.372326
v -2.146367 0.626850 0.372326
v -2.143620 0.609149 0.402234
v -2.140263 0.603046 0.437330
v -2.136601 0.609149 0.472427
v -2.133549 0.626850 0.502029
vt 0.501938 0.543443
vt 0.501938 0.253914
vt 0.220222 0.296396
vt 0.205084 0.543443
vt 0.799310 0.543443
vt 0.993164 0.543443
vt 0.956053 0.341319
vt 0.784173 0.296396
vt 0.048341 0.341319
vt 0.010743 0.543443
vt 0.784173 0.295907
vt 0.956053 0.340831
vt 0.501938 0.253426
vt 0.220222 0.295907
vt 0.048341 0.340831
vt 0.849605 0.169439
vt 0.689932 0.054689
vt 0.501938 0.014649
vt 0.313974 0.054689
vt 0.154790 0.169439
vt 0.154790 0.169927
vt 0.313974 0.055177
vt 0.501938 0.015137
vt 0.689932 0.055177
vt 0.849605 0.169927
vt 0.501938 0.543443
vt 0.501938 0.253914
vt 0.219733 0.295907
vt 0.204596 0.543443
vt 0.798822 0.543443
vt 0.993164 0.543443
vt 0.955565 0.341319
vt 0.783685 0.295907
vt 0.047853 0.341319
vt 0.010254 0.543443
vt 0.783685 0.295907
vt 0.955565 0.341319
vt 0.501938 0.253914
vt 0.219733 0.295907
vt 0.047853 0.341319
vt 0.849117 0.169927
vt 0.689932 0.055177
vt 0.501938 0.014649
vt 0.313486 0.055177
vt 0.154302 0.169927
vt 0.154302 0.169439
vt 0.313486 0.055177
vt 0.501938 0.014649
vt 0.689932 0.055177
vt 0.849117 0.169439
vt 0.501938 0.543443
vt 0.205084 0.543443
vt 0.220222 0.296396
vt 0.501938 0.253914
vt 0.799310 0.543443
vt 0.784173 0.296396
vt 0.956053 0.341319
vt 0.993164 0.543443
vt 0.010743 0.543443
vt 0.048341 0.341319
vt 0.956053 0.340831
vt 0.784173 0.295907
vt 0.501938 0.253426
vt 0.220222 0.295907
vt 0.048341 0.340831
vt 0.849605 0.169439
vt 0.689932 0.054689
vt 0.501938 0.014649
vt 0.313974 0.054689
vt 0.154790 0.169439
vt 0.154790 0.169927
vt 0.313974 0.055177
vt 0.501938 0.015137
vt 0.689932 0.055177
vt 0.849605 0.169927
vt 0.501938 0.543443
vt 0.204596 0.543443
vt 0.219733 0.295907
vt 0.501938 0.253914
vt 0.798822 0.543443
vt 0.783685 0.295907
vt 0.955565 0.341319
vt 0.993164 0.543443
vt 0.010254 0.543443
vt 0.047853 0.341319
vt 0.955565 0.341319
vt 0.783685 0.295907
vt 0.501938 0.253914
vt 0.219733 0.295907
vt 0.047853 0.341319
vt 0.849117 0.169927
vt 0.689932 0.055177
vt 0.501938 0.014649
vt 0.313486 0.055177
vt 0.154302 0.169927
vt 0.154302 0.169439
vt 0.313486 0.055177
vt 0.501938 0.014649
vt 0.689932 0.055177
vt 0.849117 0.169439
vn -0.9952 0.0118 -0.0971
vn -0.9832 -0.1553 -0.0959
vn -0.9901 -0.1264 0.0607
vn -0.9978 0.0119 0.0659
vn -0.9671 0.0115 -0.2541
vn -0.9497 0.0115 -0.3131
vn -0.9477 -0.0747 -0.3103
vn -0.9610 -0.1230 -0.2478
vn -0.9887 -0.0780 0.1280
vn -0.9913 0.0119 0.1308
vn -0.9580 0.1455 -0.2471
vn -0.9459 0.0975 -0.3096
vn -0.9794 0.1778 -0.0955
vn -0.9869 0.1492 0.0606
vn -0.9866 0.1015 0.1278
vn -0.9392 0.2134 -0.2690
vn -0.9486 0.2528 -0.1904
vn -0.9504 0.2963 -0.0948
vn -0.9662 0.2579 0.0018
vn -0.9715 0.2214 0.0851
vn -0.9762 -0.1991 0.0857
vn -0.9717 -0.2361 0.0022
vn -0.9566 -0.2754 -0.0953
vn -0.9539 -0.2314 -0.1914
vn -0.9435 -0.1918 -0.2704
vn -0.9832 -0.1553 -0.0958
vn -0.9901 -0.1264 0.0608
vn -0.9671 0.0114 -0.2542
vn -0.9477 -0.0748 -0.3102
vn -0.9610 -0.1228 -0.2479
vn -0.9580 0.1454 -0.2470
vn -0.9458 0.0975 -0.3096
vn -0.9794 0.1777 -0.0955
vn -0.9866 0.1015 0.1277
vn -0.9392 0.2134 -0.2691
vn -0.9661 0.2581 0.0016
vn -0.9715 0.2214 0.0852
vn -0.9566 -0.2755 -0.0954
vn -0.9538 -0.2314 -0.1914
vn -0.9435 -0.1917 -0.2704
vn -0.9952 0.0118 0.0972
vn -0.9978 0.0119 -0.0659
vn -0.9901 -0.1264 -0.0607
vn -0.9832 -0.1553 0.0960
vn -0.9671 0.0115 0.2541
vn -0.9610 -0.1230 0.2479
vn -0.9477 -0.0748 0.3103
vn -0.9496 0.0114 0.3131
vn -0.9913 0.0119 -0.1308
vn -0.9887 -0.0780 -0.1279
vn -0.9458 0.0975 0.3096
vn -0.9580 0.1453 0.2471
vn -0.9794 0.1777 0.0956
vn -0.9869 0.1493 -0.0605
vn -0.9866 0.1016 -0.1276
vn -0.9392 0.2133 0.2692
vn -0.9486 0.2528 0.1904
vn -0.9504 0.2963 0.0948
vn -0.9662 0.2579 -0.0018
vn -0.9715 0.2214 -0.0851
vn -0.9762 -0.1991 -0.0856
vn -0.9717 -0.2361 -0.0022
vn -0.9566 -0.2754 0.0954
vn -0.9538 -0.2313 0.1916
vn -0.9435 -0.1917 0.2704
vn -0.9952 0.0119 0.0972
vn -0.9832 -0.1553 0.0959
vn -0.9610 -0.1228 0.2479
vn -0.9580 0.1454 0.2471
vn -0.9794 0.1777 0.0955
vn -0.9870 0.1490 -0.0606
vn -0.9866 0.1015 -0.1276
vn -0.9392 0.2133 0.2691
vn -0.9504 0.2964 0.0948
vn -0.9661 0.2580 -0.0021
vn -0.9538 -0.2313 0.1915
usemtl BRAKELIGHTGLASSRED_KIT00_BRAKELIGHT_GLASS_OFF
s 1
f 1/1/1 2/2/2 3/3/3
f 3/3/3 4/4/4 1/1/1
f 5/5/5 6/6/6 7/7/7
f 7/7/7 8/8/8 5/5/5
f 8/8/8 2/2/2 1/1/1
f 1/1/1 5/5/5 8/8/8
f 4/4/4 3/3/3 9/9/9
f 9/9/9 10/10/10 4/4/4
f 5/5/5 11/11/11 12/12/12
f 12/12/12 6/6/6 5/5/5
f 1/1/1 13/13/13 11/11/11
f 11/11/11 5/5/5 1/1/1
f 14/14/14 13/13/13 1/1/1
f 1/1/1 4/4/4 14/14/14
f 15/15/15 14/14/14 4/4/4
f 4/4/4 10/10/10 15/15/15
f 12/12/12 11/11/11 16/16/16
f 16/16/16 11/11/11 17/17/17
f 13/13/13 18/18/18 17/17/17
f 17/17/17 11/11/11 13/13/13
f 19/19/19 18/18/18 13/13/13
f 13/13/13 14/14/14 19/19/19
f 14/14/14 20/20/20 19/19/19
f 14/14/14 15/15/15 20/20/20
f 9/9/9 3/3/3 21/21/21
f 21/21/21 3/3/3 22/22/22
f 2/2/2 23/23/23 22/22/22
f 22/22/22 3/3/3 2/2/2
f 24/24/24 23/23/23 2/2/2
f 2/2/2 8/8/8 24/24/24
f 8/8/8 25/25/25 24/24/24
f 8/8/8 7/7/7 25/25/25
f 26/26/1 27/27/26 28/28/27
f 28/28/27 29/29/4 26/26/1
f 30/30/28 31/31/6 32/32/29
f 32/32/29 33/33/30 30/30/28
f 33/33/30 27/27/26 26/26/1
f 26/26/1 30/30/28 33/33/30
f 29/29/4 28/28/27 34/34/9
f 34/34/9 35/35/10 29/29/4
f 30/30/28 36/36/31 37/37/32
f 37/37/32 31/31/6 30/30/28
f 26/26/1 38/38/33 36/36/31
f 36/36/31 30/30/28 26/26/1
f 39/39/14 38/38/33 26/26/1
f 26/26/1 29/29/4 39/39/14
f 40/40/34 39/39/14 29/29/4
f 29/29/4 35/35/10 40/40/34
f 37/37/32 36/36/31 41/41/35
f 41/41/35 36/36/31 42/42/17
f 38/38/33 43/43/18 42/42/17
f 42/42/17 36/36/31 38/38/33
f 44/44/36 43/43/18 38/38/33
f 38/38/33 39/39/14 44/44/36
f 39/39/14 45/45/37 44/44/36
f 39/39/14 40/40/34 45/45/37
f 34/34/9 28/28/27 46/46/21
f 46/46/21 28/28/27 47/47/22
f 27/27/26 48/48/38 47/47/22
f 47/47/22 28/28/27 27/27/26
f 49/49/39 48/48/38 27/27/26
f 27/27/26 33/33/30 49/49/39
f 33/33/30 50/50/40 49/49/39
f 33/33/30 32/32/29 50/50/40
f 51/51/41 52/52/42 53/53/43
f 53/53/43 54/54/44 51/51/41
f 55/55/45 56/56/46 57/57/47
f 57/57/47 58/58/48 55/55/45
f 56/56/46 55/55/45 51/51/41
f 51/51/41 54/54/44 56/56/46
f 52/52/42 59/59/49 60/60/50
f 60/60/50 53/53/43 52/52/42
f 55/55/45 58/58/48 61/61/51
f 61/61/51 62/62/52 55/55/45
f 51/51/41 55/55/45 62/62/52
f 62/62/52 63/63/53 51/51/41
f 64/64/54 52/52/42 51/51/41
f 51/51/41 63/63/53 64/64/54
f 65/65/55 59/59/49 52/52/42
f 52/52/42 64/64/54 65/65/55
f 61/61/51 66/66/56 62/62/52
f 66/66/56 67/67/57 62/62/52
f 63/63/53 62/62/52 67/67/57
f 67/67/57 68/68/58 63/63/53
f 69/69/59 64/64/54 63/63/53
f 63/63/53 68/68/58 69/69/59
f 64/64/54 69/69/59 70/70/60
f 64/64/54 70/70/60 65/65/55
f 60/60/50 71/71/61 53/53/43
f 71/71/61 72/72/62 53/53/43
f 54/54/44 53/53/43 72/72/62
f 72/72/62 73/73/63 54/54/44
f 74/74/64 56/56/46 54/54/44
f 54/54/44 73/73/63 74/74/64
f 56/56/46 74/74/64 75/75/65
f 56/56/46 75/75/65 57/57/47
f 76/76/66 77/77/42 78/78/43
f 78/78/43 79/79/67 76/76/66
f 80/80/45 81/81/68 82/82/47
f 82/82/47 83/83/48 80/80/45
f 81/81/68 80/80/45 76/76/66
f 76/76/66 79/79/67 81/81/68
f 77/77/42 84/84/49 85/85/50
f 85/85/50 78/78/43 77/77/42
f 80/80/45 83/83/48 86/86/51
f 86/86/51 87/87/69 80/80/45
f 76/76/66 80/80/45 87/87/69
f 87/87/69 88/88/70 76/76/66
f 89/89/71 77/77/42 76/76/66
f 76/76/66 88/88/70 89/89/71
f 90/90/72 84/84/49 77/77/42
f 77/77/42 89/89/71 90/90/72
f 86/86/51 91/91/73 87/87/69
f 91/91/73 92/92/57 87/87/69
f 88/88/70 87/87/69 92/92/57
f 92/92/57 93/93/74 88/88/70
f 94/94/75 89/89/71 88/88/70
f 88/88/70 93/93/74 94/94/75
f 89/89/71 94/94/75 95/95/60
f 89/89/71 95/95/60 90/90/72
f 85/85/50 96/96/61 78/78/43
f 96/96/61 97/97/62 78/78/43
f 79/79/67 78/78/43 97/97/62
f 97/97/62 98/98/63 79/79/67
f 99/99/76 81/81/68 79/79/67
f 79/79/67 98/98/63 99/99/76
f 81/81/68 99/99/76 100/100/65
f 81/81/68 100/100/65 82/82/47
