# Blender v3.0.1 OBJ File: ''
# www.blender.org
mtllib CORVETTEZ06 BOX CUT.004.mtl
o CORVETTEZ06_BOX_CUT.004
v 0.499283 0.382702 -0.892666
v 0.466323 0.310678 -0.838343
v 0.461745 0.458998 -0.838343
v 0.501114 0.440077 -0.896634
v 0.472427 0.153203 -0.894498
v 0.457167 0.082400 -0.870388
v 0.440992 0.116276 -0.838038
v 0.466018 0.173040 -0.838343
v 0.478530 0.191656 -0.885037
v 0.475478 0.172735 -0.894192
v 0.430616 0.606403 -0.821253
v 0.442518 0.638447 -0.824000
v 0.444349 0.637532 -0.827357
v 0.450148 0.632954 -0.835597
v 0.456557 0.625019 -0.842311
v 0.473342 0.579241 -0.870083
v 0.448317 0.543229 -0.838343
v 0.483108 0.550249 -0.881375
v 0.487381 0.537431 -0.886868
v 0.500809 0.491348 -0.902432
v 0.501419 0.451064 -0.897549
v 0.483718 0.221259 -0.876797
v 0.498367 0.502335 -0.901822
v 0.500198 0.495621 -0.904263
v 0.493179 0.303659 -0.882900
v 0.473952 0.162053 -0.896634
v 0.486465 0.242012 -0.874660
v 0.404981 0.669271 -0.774865
v 0.412915 0.668966 -0.781274
v 0.430616 0.651875 -0.802637
v 0.433363 0.649129 -0.805994
v 0.436720 0.646077 -0.810266
v 0.499283 0.382702 0.892666
v 0.501114 0.440077 0.896634
v 0.461745 0.458998 0.838343
v 0.466323 0.310678 0.838343
v 0.472427 0.153203 0.894498
v 0.466018 0.173040 0.838343
v 0.440992 0.116276 0.838038
v 0.457167 0.082400 0.870388
v 0.475478 0.172735 0.894192
v 0.478530 0.191656 0.885037
v 0.430616 0.606403 0.821253
v 0.473342 0.579241 0.870083
v 0.456557 0.625019 0.842311
v 0.450148 0.632954 0.835597
v 0.444349 0.637532 0.827357
v 0.442518 0.638447 0.824000
v 0.448317 0.543229 0.838343
v 0.483108 0.550249 0.881375
v 0.487381 0.537431 0.886868
v 0.501419 0.451064 0.897549
v 0.500809 0.491348 0.902432
v 0.483718 0.221259 0.876797
v 0.498367 0.502335 0.901822
v 0.500198 0.495621 0.904263
v 0.493179 0.303659 0.882900
v 0.473952 0.162053 0.896634
v 0.486465 0.242012 0.874660
v 0.436720 0.646077 0.810266
v 0.433363 0.649129 0.805994
v 0.430616 0.651875 0.802637
v 0.412915 0.668966 0.781274
v 0.404981 0.669271 0.774865
v 0.500198 0.495621 -0.904263
v 0.498367 0.502335 -0.901822
v 0.339976 0.444960 -0.707114
v 0.500809 0.491348 -0.902432
v 0.501419 0.451064 -0.897549
v 0.417493 0.311594 -0.699789
v 0.499283 0.382702 -0.892666
v 0.501114 0.440077 -0.896634
v 0.493179 0.303659 -0.882900
v 0.475478 0.172735 -0.894192
v 0.396741 0.146184 -0.677206
v 0.363781 0.118717 -0.671102
v 0.472427 0.153203 -0.894498
v 0.473952 0.162053 -0.896634
v 0.316477 0.636311 -0.718101
v 0.430616 0.651875 -0.802637
v 0.412915 0.668966 -0.781274
v 0.436720 0.646077 -0.810266
v 0.433363 0.649129 -0.805994
v 0.457167 0.082400 -0.870388
v 0.442518 0.638447 -0.824000
v 0.301218 0.606708 -0.715049
v 0.299081 0.529191 -0.708640
v 0.473342 0.579241 -0.870083
v 0.456557 0.625019 -0.842311
v 0.487381 0.537431 -0.886868
v 0.483108 0.550249 -0.881375
v -0.716880 0.366527 -0.701010
v -0.754418 0.520951 -0.703146
v -0.818201 0.520951 -0.885647
v -0.775781 0.355846 -0.891140
v -0.754418 0.520951 -0.703146
v -0.772423 0.635701 -0.697348
v -0.822474 0.640889 -0.860317
v -0.818506 0.720542 -0.825526
v -0.772423 0.635701 -0.697348
v -0.781274 0.717795 -0.689108
v -0.812403 0.753197 -0.743736
v -0.815455 0.752892 -0.750145
v -0.816370 0.740074 -0.808130
v -0.636921 0.243233 -0.674764
v -0.716880 0.366527 -0.701010
v -0.702536 0.226142 -0.880764
v -0.508744 0.151067 -0.644856
v -0.573138 0.178838 -0.653401
v -0.617695 0.157476 -0.868557
v -0.515763 0.119327 -0.861538
v -0.573138 0.178838 -0.653401
v -0.636921 0.243233 -0.674764
v -0.802637 0.761132 -0.729392
v -0.796228 0.762963 -0.699179
v -0.795618 0.762963 -0.716269
v -0.366222 0.110782 -0.860622
v -0.366222 0.139775 -0.646992
v -0.031129 0.100101 -0.862148
v -0.030519 0.128178 -0.659200
v 0.457167 0.082400 -0.870388
v 0.363781 0.118717 -0.671102
v 0.486465 0.242012 -0.874660
v 0.415662 0.193182 -0.686361
v 0.483718 0.221259 -0.876797
v 0.478530 0.191656 -0.885037
v 0.450148 0.632954 -0.835597
v 0.444349 0.637532 -0.827357
v 0.500198 0.495621 0.904263
v 0.339976 0.444960 0.707114
v 0.498367 0.502335 0.901822
v 0.500809 0.491348 0.902432
v 0.501419 0.451064 0.897549
v 0.501114 0.440077 0.896634
v 0.499283 0.382702 0.892666
v 0.417493 0.311594 0.699789
v 0.493179 0.303659 0.882900
v 0.475478 0.172735 0.894192
v 0.473952 0.162053 0.896634
v 0.472427 0.153203 0.894498
v 0.363781 0.118717 0.671102
v 0.396741 0.146184 0.677206
v 0.316477 0.636311 0.718101
v 0.412915 0.668966 0.781274
v 0.430616 0.651875 0.802637
v 0.436720 0.646077 0.810266
v 0.433363 0.649129 0.805994
v 0.457167 0.082400 0.870388
v 0.442518 0.638447 0.824000
v 0.301218 0.606708 0.715049
v 0.456557 0.625019 0.842311
v 0.473342 0.579241 0.870083
v 0.299081 0.529191 0.708640
v 0.487381 0.537431 0.886868
v 0.483108 0.550249 0.881375
v -0.716880 0.366527 0.701621
v -0.775781 0.355846 0.891751
v -0.818201 0.520951 0.886258
v -0.754418 0.520951 0.703757
v -0.754418 0.520951 0.703757
v -0.822474 0.640889 0.860927
v -0.772423 0.635701 0.697958
v -0.818506 0.720542 0.826136
v -0.781274 0.717795 0.689718
v -0.772423 0.635701 0.697958
v -0.816370 0.740074 0.808740
v -0.815455 0.752892 0.750755
v -0.812403 0.753197 0.744346
v -0.636921 0.243233 0.675375
v -0.702536 0.226142 0.881375
v -0.716880 0.366527 0.701621
v -0.508744 0.151067 0.645466
v -0.515763 0.119327 0.862148
v -0.617695 0.157476 0.869167
v -0.573138 0.178838 0.654012
v -0.573138 0.178838 0.654012
v -0.636921 0.243233 0.675375
v -0.802637 0.761132 0.730003
v -0.795618 0.762963 0.716880
v -0.796228 0.762963 0.699789
v -0.366222 0.139775 0.647603
v -0.366222 0.110782 0.861232
v -0.030519 0.128178 0.659810
v -0.031129 0.100101 0.862758
v 0.363781 0.118717 0.671102
v 0.457167 0.082400 0.870388
v 0.486465 0.242012 0.874660
v 0.415662 0.193182 0.686361
v 0.483718 0.221259 0.876797
v 0.478530 0.191656 0.885037
v 0.450148 0.632954 0.835597
v 0.444349 0.637532 0.827357
vt 0.331065 0.567370
vt 0.016114 0.473159
vt 0.016114 0.667470
vt 0.337413 0.642567
vt 0.248543 0.266610
vt 0.152348 0.198737
vt 0.016114 0.218268
vt 0.016114 0.292489
vt 0.268075 0.316904
vt 0.258797 0.292001
vt 0.016114 0.860347
vt 0.156743 0.902829
vt 0.162603 0.901852
vt 0.180670 0.895505
vt 0.199713 0.884762
vt 0.251961 0.825190
vt 0.016114 0.777825
vt 0.281747 0.787103
vt 0.294931 0.770501
vt 0.335948 0.709952
vt 0.337413 0.656728
vt 0.283212 0.355480
vt 0.328623 0.724113
vt 0.333995 0.715323
vt 0.312510 0.463881
vt 0.253426 0.277840
vt 0.292001 0.383312
vt 0.016114 0.943358
vt 0.022462 0.942869
vt 0.120121 0.920408
vt 0.128910 0.916990
vt 0.138676 0.912595
vt 0.331065 0.567370
vt 0.337413 0.642567
vt 0.016114 0.667470
vt 0.016114 0.473159
vt 0.248543 0.266610
vt 0.016114 0.292489
vt 0.016114 0.218268
vt 0.152348 0.198737
vt 0.258797 0.292001
vt 0.268075 0.316904
vt 0.016114 0.860347
vt 0.251961 0.825190
vt 0.199713 0.884762
vt 0.180670 0.895505
vt 0.162603 0.901852
vt 0.156743 0.902829
vt 0.016114 0.777825
vt 0.281747 0.787103
vt 0.294931 0.770501
vt 0.337413 0.656728
vt 0.335948 0.709952
vt 0.283212 0.355480
vt 0.328623 0.724113
vt 0.333995 0.715323
vt 0.312510 0.463881
vt 0.253426 0.277840
vt 0.292001 0.383312
vt 0.138676 0.912595
vt 0.128910 0.916990
vt 0.120121 0.920408
vt 0.022462 0.942869
vt 0.016114 0.943358
vt 0.905759 0.503891
vt 0.904782 0.511216
vt 0.482437 0.483902
vt 0.901852 0.499527
vt 0.880367 0.452651
vt 0.424329 0.346690
vt 0.833979 0.382336
vt 0.874996 0.441420
vt 0.785150 0.303720
vt 0.615711 0.155278
vt 0.296396 0.191900
vt 0.245125 0.165532
vt 0.577136 0.132817
vt 0.597156 0.143559
vt 0.578600 0.680166
vt 0.801263 0.684561
vt 0.775872 0.706534
vt 0.810541 0.677236
vt 0.805658 0.681143
vt 0.488296 0.090823
vt 0.828608 0.666494
vt 0.551256 0.649892
vt 0.514145 0.570788
vt 0.865719 0.595691
vt 0.850581 0.648915
vt 0.885739 0.549303
vt 0.881832 0.563463
vt 0.424818 0.386242
vt 0.495621 0.552721
vt 0.773431 0.520493
vt 0.697745 0.341807
vt 0.497085 0.554186
vt 0.542467 0.682119
vt 0.788568 0.657216
vt 0.770012 0.746574
vt 0.542955 0.683584
vt 0.564440 0.770501
vt 0.660634 0.796869
vt 0.669912 0.794916
vt 0.751457 0.770012
vt 0.361827 0.272958
vt 0.426283 0.380383
vt 0.662099 0.222175
vt 0.287118 0.190436
vt 0.310068 0.213385
vt 0.599109 0.153813
vt 0.548326 0.121586
vt 0.308603 0.213874
vt 0.360363 0.271493
vt 0.642079 0.807611
vt 0.598132 0.815424
vt 0.623524 0.812006
vt 0.533189 0.112308
vt 0.272469 0.182134
vt 0.511216 0.101566
vt 0.258797 0.172369
vt 0.488296 0.090823
vt 0.245125 0.165532
vt 0.725578 0.240730
vt 0.353526 0.234382
vt 0.695791 0.214362
vt 0.637196 0.171392
vt 0.843257 0.658681
vt 0.833003 0.665029
vt 0.905759 0.503891
vt 0.482437 0.483902
vt 0.904782 0.511216
vt 0.901852 0.499527
vt 0.880367 0.452651
vt 0.874996 0.441420
vt 0.833979 0.382336
vt 0.424329 0.346690
vt 0.785150 0.303720
vt 0.615711 0.155278
vt 0.597156 0.143559
vt 0.577136 0.132817
vt 0.245125 0.165532
vt 0.296396 0.191900
vt 0.578600 0.680166
vt 0.775872 0.706534
vt 0.801263 0.684561
vt 0.810541 0.677236
vt 0.805658 0.681143
vt 0.488296 0.090823
vt 0.828608 0.666494
vt 0.551256 0.649892
vt 0.850581 0.648915
vt 0.865719 0.595691
vt 0.514145 0.570788
vt 0.885739 0.549303
vt 0.881832 0.563463
vt 0.424818 0.386242
vt 0.697745 0.341807
vt 0.773431 0.520493
vt 0.495621 0.552721
vt 0.497085 0.554186
vt 0.788568 0.657216
vt 0.542467 0.682119
vt 0.770012 0.746574
vt 0.564440 0.770501
vt 0.542955 0.683584
vt 0.751457 0.770012
vt 0.669912 0.794916
vt 0.660634 0.796869
vt 0.361827 0.272958
vt 0.662099 0.222175
vt 0.426283 0.380383
vt 0.287118 0.190436
vt 0.548326 0.121586
vt 0.599109 0.153813
vt 0.310068 0.213385
vt 0.308603 0.213874
vt 0.360363 0.271493
vt 0.642079 0.807611
vt 0.623524 0.812006
vt 0.598132 0.815424
vt 0.272469 0.182134
vt 0.533189 0.112308
vt 0.258797 0.172369
vt 0.511216 0.101566
vt 0.245125 0.165532
vt 0.488296 0.090823
vt 0.725578 0.240730
vt 0.353526 0.234382
vt 0.695791 0.214362
vt 0.637196 0.171392
vt 0.843257 0.658681
vt 0.833003 0.665029
vn -0.8391 -0.0177 -0.5437
vn -0.8542 0.0013 -0.5199
vn -0.8282 -0.0731 -0.5557
vn -0.8308 -0.0248 -0.5561
vn -0.9485 0.1908 -0.2527
vn -0.6618 0.4733 -0.5814
vn -0.7525 0.3386 -0.5649
vn -0.9340 0.2482 -0.2571
vn -0.9603 0.2225 -0.1684
vn -0.9645 0.2071 -0.1640
vn -0.7262 0.1530 -0.6703
vn -0.8270 0.2554 -0.5008
vn -0.7778 0.2185 -0.5893
vn -0.7014 0.1381 -0.6992
vn -0.6850 0.1373 -0.7155
vn -0.7571 0.0121 -0.6532
vn -0.7847 -0.0495 -0.6179
vn -0.7763 0.0070 -0.6303
vn -0.7771 0.0225 -0.6290
vn -0.7639 -0.2529 -0.5938
vn -0.8330 -0.0584 -0.5502
vn -0.9597 0.1705 -0.2233
vn -0.8293 -0.0523 -0.5564
vn -0.8171 -0.1435 -0.5583
vn -0.8548 0.0127 -0.5188
vn -0.9748 0.1561 -0.1592
vn -0.8900 0.0332 -0.4547
vn -0.5842 0.3123 -0.7491
vn -0.5876 0.3102 -0.7473
vn -0.6033 0.3003 -0.7388
vn -0.6139 0.2982 -0.7309
vn -0.7062 0.2847 -0.6482
vn -0.8391 -0.0177 0.5437
vn -0.8307 -0.0248 0.5561
vn -0.8282 -0.0731 0.5557
vn -0.8542 0.0013 0.5199
vn -0.9485 0.1908 0.2528
vn -0.9339 0.2483 0.2571
vn -0.7525 0.3385 0.5650
vn -0.6617 0.4733 0.5814
vn -0.9645 0.2071 0.1641
vn -0.9603 0.2225 0.1685
vn -0.7262 0.1530 0.6703
vn -0.7570 0.0121 0.6533
vn -0.6850 0.1373 0.7155
vn -0.7014 0.1381 0.6993
vn -0.7778 0.2185 0.5893
vn -0.8270 0.2554 0.5008
vn -0.7847 -0.0494 0.6179
vn -0.7763 0.0069 0.6304
vn -0.7770 0.0225 0.6291
vn -0.8330 -0.0584 0.5502
vn -0.7638 -0.2529 0.5938
vn -0.9597 0.1705 0.2233
vn -0.8292 -0.0523 0.5565
vn -0.8171 -0.1436 0.5584
vn -0.8548 0.0127 0.5188
vn -0.9748 0.1561 0.1592
vn -0.8900 0.0332 0.4547
vn -0.7062 0.2847 0.6482
vn -0.6138 0.2981 0.7310
vn -0.6033 0.3003 0.7389
vn -0.5875 0.3102 0.7474
vn -0.5842 0.3123 0.7492
vn 0.7481 0.1494 0.6466
vn 0.7460 -0.0083 0.6659
vn 0.7216 0.3399 0.6031
vn 0.7199 0.2428 0.6502
vn 0.7601 0.0699 0.6460
vn 0.8803 0.2013 0.4295
vn 0.8381 0.0989 0.5365
vn 0.7616 0.0357 0.6470
vn 0.9230 -0.0357 0.3831
vn 0.9124 -0.2480 0.3255
vn 0.7693 -0.6065 0.2010
vn 0.7700 -0.5910 0.2403
vn 0.9133 -0.1172 0.3899
vn 0.9861 -0.1627 0.0344
vn 0.6268 -0.2816 0.7265
vn 0.5926 -0.3147 0.7415
vn 0.5926 -0.3146 0.7415
vn 0.5120 -0.6127 0.6020
vn 0.5861 -0.3591 0.7263
vn 0.9013 -0.0476 0.4306
vn 0.5681 -0.5320 0.6279
vn 0.6623 -0.0877 0.7440
vn 0.6859 0.1585 0.7102
vn 0.6727 -0.0883 0.7347
vn 0.6350 -0.1946 0.7476
vn 0.6873 -0.0904 0.7208
vn 0.6872 -0.0767 0.7224
vn -0.8795 -0.3705 0.2986
vn -0.9326 -0.1806 0.3124
vn -0.9321 -0.1728 0.3184
vn -0.8872 -0.3507 0.2998
vn -0.9326 -0.1805 0.3124
vn -0.9508 -0.1364 0.2783
vn -0.9467 -0.1050 0.3045
vn -0.9640 -0.1216 0.2364
vn -0.9460 -0.1821 0.2680
vn -0.8791 -0.3361 0.3379
vn -0.7112 -0.6337 0.3041
vn -0.9934 0.1149 -0.0062
vn -0.7734 -0.5647 0.2881
vn -0.7735 -0.5710 0.2749
vn -0.2326 -0.9596 0.1581
vn -0.5366 -0.8167 0.2123
vn -0.5257 -0.8302 0.1854
vn -0.2157 -0.9657 0.1446
vn -0.8557 0.0549 0.5145
vn -0.9459 -0.3230 -0.0294
vn -0.9437 -0.1182 0.3090
vn -0.0428 -0.9900 0.1343
vn -0.0489 -0.9892 0.1378
vn -0.0275 -0.9895 0.1420
vn -0.0251 -0.9903 0.1369
vn -0.0330 -0.9857 0.1652
vn -0.0298 -0.9869 0.1587
vn 0.9332 -0.0817 0.3500
vn 0.9317 -0.1842 0.3130
vn 0.9289 -0.2049 0.3084
vn 0.9151 -0.2674 0.3018
vn 0.6396 -0.1985 0.7426
vn 0.8062 0.5030 0.3116
vn 0.7481 0.1494 -0.6466
vn 0.7216 0.3399 -0.6031
vn 0.7460 -0.0083 -0.6659
vn 0.7199 0.2428 -0.6502
vn 0.7601 0.0699 -0.6460
vn 0.7616 0.0357 -0.6470
vn 0.8382 0.0988 -0.5364
vn 0.8803 0.2013 -0.4295
vn 0.9228 -0.0357 -0.3835
vn 0.9124 -0.2480 -0.3255
vn 0.9861 -0.1627 -0.0344
vn 0.9133 -0.1172 -0.3899
vn 0.7700 -0.5910 -0.2403
vn 0.7693 -0.6065 -0.2010
vn 0.6268 -0.2816 -0.7265
vn 0.5926 -0.3146 -0.7415
vn 0.5926 -0.3147 -0.7414
vn 0.5120 -0.6127 -0.6020
vn 0.5861 -0.3591 -0.7263
vn 0.9013 -0.0476 -0.4306
vn 0.5681 -0.5320 -0.6279
vn 0.6623 -0.0877 -0.7440
vn 0.6350 -0.1946 -0.7476
vn 0.6727 -0.0882 -0.7347
vn 0.6859 0.1585 -0.7102
vn 0.6873 -0.0904 -0.7208
vn 0.6872 -0.0767 -0.7224
vn -0.8795 -0.3705 -0.2986
vn -0.8872 -0.3507 -0.2997
vn -0.9321 -0.1728 -0.3183
vn -0.9326 -0.1805 -0.3124
vn -0.9326 -0.1806 -0.3124
vn -0.9467 -0.1050 -0.3045
vn -0.9508 -0.1364 -0.2783
vn -0.9640 -0.1216 -0.2364
vn -0.9460 -0.1822 -0.2680
vn -0.9467 -0.1050 -0.3044
vn -0.9934 0.1149 0.0063
vn -0.7113 -0.6337 -0.3041
vn -0.8791 -0.3361 -0.3379
vn -0.7734 -0.5647 -0.2881
vn -0.7736 -0.5710 -0.2749
vn -0.2326 -0.9596 -0.1581
vn -0.2157 -0.9657 -0.1446
vn -0.5257 -0.8302 -0.1854
vn -0.5367 -0.8167 -0.2123
vn -0.5366 -0.8167 -0.2122
vn -0.8558 0.0549 -0.5144
vn -0.9437 -0.1182 -0.3090
vn -0.9459 -0.3230 0.0295
vn -0.0491 -0.9892 -0.1380
vn -0.0427 -0.9900 -0.1342
vn -0.0252 -0.9903 -0.1369
vn -0.0275 -0.9895 -0.1420
vn -0.0298 -0.9869 -0.1588
vn -0.0331 -0.9857 -0.1652
vn 0.9332 -0.0817 -0.3500
vn 0.9317 -0.1841 -0.3130
vn 0.9289 -0.2049 -0.3084
vn 0.9151 -0.2674 -0.3018
vn 0.6396 -0.1985 -0.7426
vn 0.8062 0.5030 -0.3116
usemtl CARSKIN_DOORJAM
s 1
f 1/1/1 2/2/2 3/3/3
f 3/3/3 4/4/4 1/1/1
f 5/5/5 6/6/6 7/7/7
f 7/7/7 8/8/8 5/5/5
f 8/8/8 9/9/9 10/10/10
f 11/11/11 12/12/12 13/13/13
f 11/11/11 13/13/13 14/14/14
f 11/11/11 14/14/14 15/15/15
f 11/11/11 15/15/15 16/16/16
f 17/17/17 11/11/11 16/16/16
f 16/16/16 18/18/18 17/17/17
f 17/17/17 18/18/18 19/19/19
f 3/3/3 20/20/20 21/21/21
f 3/3/3 21/21/21 4/4/4
f 8/8/8 22/22/22 9/9/9
f 17/17/17 19/19/19 23/23/23
f 3/3/3 17/17/17 23/23/23
f 23/23/23 24/24/24 3/3/3
f 3/3/3 24/24/24 20/20/20
f 2/2/2 1/1/1 25/25/25
f 8/8/8 10/10/10 26/26/26
f 8/8/8 26/26/26 5/5/5
f 27/27/27 8/8/8 2/2/2
f 2/2/2 25/25/25 27/27/27
f 8/8/8 27/27/27 22/22/22
f 11/11/11 28/28/28 29/29/29
f 11/11/11 29/29/29 30/30/30
f 11/11/11 30/30/30 31/31/31
f 11/11/11 31/31/31 32/32/32
f 11/11/11 32/32/32 12/12/12
f 33/33/33 34/34/34 35/35/35
f 35/35/35 36/36/36 33/33/33
f 37/37/37 38/38/38 39/39/39
f 39/39/39 40/40/40 37/37/37
f 38/38/38 41/41/41 42/42/42
f 43/43/43 44/44/44 45/45/45
f 43/43/43 45/45/45 46/46/46
f 43/43/43 46/46/46 47/47/47
f 43/43/43 47/47/47 48/48/48
f 49/49/49 50/50/50 44/44/44
f 44/44/44 43/43/43 49/49/49
f 49/49/49 51/51/51 50/50/50
f 35/35/35 52/52/52 53/53/53
f 35/35/35 34/34/34 52/52/52
f 38/38/38 42/42/42 54/54/54
f 49/49/49 55/55/55 51/51/51
f 35/35/35 56/56/56 55/55/55
f 55/55/55 49/49/49 35/35/35
f 35/35/35 53/53/53 56/56/56
f 36/36/36 57/57/57 33/33/33
f 38/38/38 58/58/58 41/41/41
f 38/38/38 37/37/37 58/58/58
f 59/59/59 57/57/57 36/36/36
f 36/36/36 38/38/38 59/59/59
f 38/38/38 54/54/54 59/59/59
f 43/43/43 48/48/48 60/60/60
f 43/43/43 60/60/60 61/61/61
f 43/43/43 61/61/61 62/62/62
f 43/43/43 62/62/62 63/63/63
f 43/43/43 63/63/63 64/64/64
f 65/65/65 66/66/66 67/67/67
f 68/68/68 65/65/65 67/67/67
f 67/67/67 69/69/69 68/68/68
f 67/67/67 70/70/70 71/71/71
f 71/71/71 72/72/72 67/67/67
f 70/70/70 73/73/73 71/71/71
f 74/74/74 75/75/75 76/76/76
f 74/74/74 76/76/76 77/77/77
f 74/74/74 77/77/77 78/78/78
f 79/79/79 80/80/80 81/81/81
f 82/82/82 83/83/83 79/79/79
f 76/76/76 84/84/84 77/77/77
f 83/83/83 80/80/80 79/79/79
f 67/67/67 72/72/72 69/69/69
f 82/82/82 79/79/79 85/85/85
f 86/86/86 87/87/87 88/88/88
f 88/88/88 89/89/89 86/86/86
f 90/90/90 91/91/91 87/87/87
f 87/87/87 91/91/91 88/88/88
f 87/87/87 67/67/67 66/66/66
f 66/66/66 90/90/90 87/87/87
f 92/92/92 93/93/93 94/94/94
f 94/94/94 95/95/95 92/92/92
f 96/96/96 97/97/97 98/98/98
f 98/98/98 94/94/94 96/96/96
f 99/99/99 98/98/98 100/100/97
f 100/100/97 101/101/100 99/99/99
f 99/99/99 101/101/100 102/102/101
f 99/99/99 102/102/101 103/103/102
f 99/99/99 103/103/102 104/104/103
f 105/105/104 106/106/92 95/95/95
f 95/95/95 107/107/105 105/105/104
f 108/108/106 109/109/107 110/110/108
f 110/110/108 111/111/109 108/108/106
f 112/112/107 113/113/104 107/107/105
f 107/107/105 110/110/108 112/112/107
f 114/114/110 102/102/101 101/101/100
f 101/101/100 115/115/111 116/116/112
f 116/116/112 114/114/110 101/101/100
f 111/111/109 117/117/113 118/118/114
f 118/118/114 108/108/106 111/111/109
f 117/117/113 119/119/115 120/120/116
f 120/120/116 118/118/114 117/117/113
f 119/119/115 121/121/117 122/122/118
f 122/122/118 120/120/116 119/119/115
f 123/123/119 73/73/73 70/70/70
f 70/70/70 124/124/120 123/123/119
f 125/125/121 123/123/119 124/124/120
f 74/74/74 126/126/122 75/75/75
f 75/75/75 126/126/122 125/125/121
f 125/125/121 124/124/120 75/75/75
f 89/89/89 127/127/123 86/86/86
f 127/127/123 128/128/124 85/85/85
f 127/127/123 85/85/85 79/79/79
f 127/127/123 79/79/79 86/86/86
f 129/129/125 130/130/126 131/131/127
f 132/132/128 130/130/126 129/129/125
f 130/130/126 132/132/128 133/133/129
f 130/130/126 134/134/130 135/135/131
f 135/135/131 136/136/132 130/130/126
f 136/136/132 135/135/131 137/137/133
f 138/138/134 139/139/135 140/140/136
f 138/138/134 140/140/136 141/141/137
f 138/138/134 141/141/137 142/142/138
f 143/143/139 144/144/140 145/145/141
f 146/146/142 143/143/139 147/147/143
f 141/141/137 140/140/136 148/148/144
f 147/147/143 143/143/139 145/145/141
f 130/130/126 133/133/129 134/134/130
f 146/146/142 149/149/145 143/143/139
f 150/150/146 151/151/147 152/152/148
f 152/152/148 153/153/149 150/150/146
f 154/154/150 153/153/149 155/155/151
f 153/153/149 152/152/148 155/155/151
f 153/153/149 154/154/150 131/131/127
f 131/131/127 130/130/126 153/153/149
f 156/156/152 157/157/153 158/158/154
f 158/158/154 159/159/155 156/156/152
f 160/160/156 158/158/154 161/161/157
f 161/161/157 162/162/158 160/160/156
f 163/163/159 164/164/160 165/165/158
f 165/165/158 161/161/161 163/163/159
f 163/163/159 166/166/162 167/167/163
f 163/163/159 167/167/163 168/168/164
f 163/163/159 168/168/164 164/164/160
f 169/169/165 170/170/166 157/157/153
f 157/157/153 171/171/152 169/169/165
f 172/172/167 173/173/168 174/174/169
f 174/174/169 175/175/170 172/172/167
f 176/176/171 174/174/169 170/170/166
f 170/170/166 177/177/165 176/176/171
f 178/178/172 164/164/160 168/168/164
f 164/164/160 178/178/172 179/179/173
f 179/179/173 180/180/174 164/164/160
f 173/173/168 172/172/167 181/181/175
f 181/181/175 182/182/176 173/173/168
f 182/182/176 181/181/175 183/183/177
f 183/183/177 184/184/178 182/182/176
f 184/184/178 183/183/177 185/185/179
f 185/185/179 186/186/180 184/184/178
f 187/187/181 188/188/182 136/136/132
f 136/136/132 137/137/133 187/187/181
f 189/189/183 188/188/182 187/187/181
f 138/138/134 142/142/138 190/190/184
f 142/142/138 188/188/182 189/189/183
f 189/189/183 190/190/184 142/142/138
f 151/151/147 150/150/146 191/191/185
f 191/191/185 150/150/146 143/143/139
f 191/191/185 143/143/139 149/149/145
f 191/191/185 149/149/145 192/192/186
