# Blender v3.0.1 OBJ File: ''
# www.blender.org
mtllib CORVETTEZ06 BOX CUT.018.mtl
o CORVETTEZ06_BOX_CUT.018
v 1.798456 0.512101 -0.583209
v 1.806391 0.486465 -0.561541
v 1.798456 0.492264 -0.594501
v 1.798456 0.519730 -0.561541
v 1.798456 0.512101 -0.540178
v 1.798456 0.492264 -0.528886
v 1.798456 0.469680 -0.532853
v 1.798456 0.455031 -0.550249
v 1.798456 0.455031 -0.573138
v 1.798456 0.469680 -0.590533
v 1.690420 0.511185 -0.813013
v 1.682180 0.531632 -0.809351
v 1.688894 0.530412 -0.805078
v 1.696524 0.511490 -0.808435
v 1.675161 0.549333 -0.798975
v 1.682180 0.546892 -0.795618
v 1.669668 0.562761 -0.783105
v 1.677297 0.559099 -0.780969
v 1.666921 0.569781 -0.763878
v 1.674551 0.565813 -0.762963
v 1.666921 0.569781 -0.743126
v 1.674551 0.565813 -0.743736
v 1.669668 0.562761 -0.723899
v 1.677297 0.559099 -0.725730
v 1.675161 0.549333 -0.708029
v 1.682180 0.546892 -0.711081
v 1.682180 0.531632 -0.697653
v 1.688894 0.530412 -0.701621
v 1.690420 0.511185 -0.694296
v 1.696524 0.511490 -0.698264
v 1.698660 0.491043 -0.697653
v 1.704154 0.492569 -0.701621
v 1.705985 0.473037 -0.708029
v 1.710868 0.476089 -0.711081
v 1.711173 0.459914 -0.723899
v 1.715751 0.463881 -0.725730
v 1.714225 0.452895 -0.743126
v 1.718497 0.457167 -0.743736
v 1.714225 0.452895 -0.763878
v 1.718497 0.457167 -0.762963
v 1.711173 0.459914 -0.783105
v 1.715751 0.463881 -0.780969
v 1.705985 0.473037 -0.798975
v 1.710868 0.476089 -0.795618
v 1.698660 0.491043 -0.809351
v 1.704154 0.492569 -0.805078
v 1.696524 0.511490 -0.808435
v 1.688894 0.530412 -0.805078
v 1.697440 0.530412 -0.784326
v 1.707206 0.505997 -0.788598
v 1.682180 0.546892 -0.795618
v 1.677297 0.559099 -0.780969
v 1.691031 0.546281 -0.765099
v 1.674551 0.565813 -0.762963
v 1.674551 0.565813 -0.743736
v 1.691031 0.546281 -0.740379
v 1.677297 0.559099 -0.725730
v 1.682180 0.546892 -0.711081
v 1.697440 0.530412 -0.721458
v 1.688894 0.530412 -0.701621
v 1.696524 0.511490 -0.698264
v 1.707206 0.505997 -0.716880
v 1.704154 0.492569 -0.701621
v 1.710868 0.476089 -0.711081
v 1.716056 0.484329 -0.729392
v 1.715751 0.463881 -0.725730
v 1.718497 0.457167 -0.743736
v 1.719413 0.475784 -0.752892
v 1.718497 0.457167 -0.762963
v 1.715751 0.463881 -0.780969
v 1.716056 0.484329 -0.776086
v 1.710868 0.476089 -0.795618
v 1.704154 0.492569 -0.805078
v 1.777398 0.516678 -0.669576
v 1.785638 0.493179 -0.649739
v 1.777398 0.498367 -0.680258
v 1.777398 0.524003 -0.649739
v 1.777398 0.516678 -0.629902
v 1.777398 0.498367 -0.619221
v 1.777398 0.477615 -0.622883
v 1.777398 0.463881 -0.639058
v 1.777398 0.463881 -0.660421
v 1.777398 0.477615 -0.676595
v 1.798456 0.512101 0.583209
v 1.798456 0.492264 0.594501
v 1.806391 0.486465 0.561541
v 1.798456 0.519730 0.561541
v 1.798456 0.512101 0.540178
v 1.798456 0.492264 0.528886
v 1.798456 0.469680 0.532853
v 1.798456 0.455031 0.550249
v 1.798456 0.455031 0.573138
v 1.798456 0.469680 0.590533
v 1.690420 0.511185 0.813013
v 1.696524 0.511490 0.808435
v 1.688894 0.530412 0.805078
v 1.682180 0.531632 0.809351
v 1.682180 0.546892 0.795618
v 1.675161 0.549333 0.798975
v 1.677297 0.559099 0.780969
v 1.669668 0.562761 0.783105
v 1.674551 0.565813 0.762963
v 1.666921 0.569781 0.763878
v 1.674551 0.565813 0.743736
v 1.666921 0.569781 0.743126
v 1.677297 0.559099 0.725730
v 1.669668 0.562761 0.723899
v 1.682180 0.546892 0.711081
v 1.675161 0.549333 0.708029
v 1.688894 0.530412 0.701621
v 1.682180 0.531632 0.697653
v 1.696524 0.511490 0.698264
v 1.690420 0.511185 0.694296
v 1.704154 0.492569 0.701621
v 1.698660 0.491043 0.697653
v 1.710868 0.476089 0.711081
v 1.705985 0.473037 0.708029
v 1.715751 0.463881 0.725730
v 1.711173 0.459914 0.723899
v 1.718497 0.457167 0.743736
v 1.714225 0.452895 0.743126
v 1.718497 0.457167 0.762963
v 1.714225 0.452895 0.763878
v 1.715751 0.463881 0.780969
v 1.711173 0.459914 0.783105
v 1.710868 0.476089 0.795618
v 1.705985 0.473037 0.798975
v 1.704154 0.492569 0.805078
v 1.698660 0.491043 0.809351
v 1.696524 0.511490 0.808435
v 1.707206 0.505997 0.788598
v 1.697440 0.530412 0.784326
v 1.688894 0.530412 0.805078
v 1.682180 0.546892 0.795618
v 1.691031 0.546281 0.765099
v 1.677297 0.559099 0.780969
v 1.674551 0.565813 0.762963
v 1.691031 0.546281 0.740379
v 1.674551 0.565813 0.743736
v 1.677297 0.559099 0.725730
v 1.697440 0.530412 0.721458
v 1.682180 0.546892 0.711081
v 1.688894 0.530412 0.701621
v 1.707206 0.505997 0.716880
v 1.696524 0.511490 0.698264
v 1.704154 0.492569 0.701621
v 1.716056 0.484329 0.729392
v 1.710868 0.476089 0.711081
v 1.715751 0.463881 0.725730
v 1.719413 0.475784 0.752892
v 1.718497 0.457167 0.743736
v 1.718497 0.457167 0.762963
v 1.716056 0.484329 0.776086
v 1.715751 0.463881 0.780969
v 1.710868 0.476089 0.795618
v 1.704154 0.492569 0.805078
v 1.777398 0.516678 0.669576
v 1.777398 0.498367 0.680258
v 1.785638 0.493179 0.649739
v 1.777398 0.524003 0.649739
v 1.777398 0.516678 0.629902
v 1.777398 0.498367 0.619221
v 1.777398 0.477615 0.622883
v 1.777398 0.463881 0.639058
v 1.777398 0.463881 0.660421
v 1.777398 0.477615 0.676595
vt 0.917966 0.836909
vt 0.772942 0.485855
vt 0.995117 0.564440
vt 0.772942 0.944334
vt 0.628407 0.836909
vt 0.551256 0.564440
vt 0.577624 0.254402
vt 0.695791 0.052248
vt 0.850093 0.052248
vt 0.968261 0.254402
vt 0.001465 0.498062
vt 0.017579 0.671377
vt 0.036622 0.640126
vt 0.021485 0.479507
vt 0.064455 0.824213
vt 0.080081 0.781732
vt 0.135746 0.937498
vt 0.146489 0.886715
vt 0.223640 0.997559
vt 0.228034 0.942869
vt 0.316904 0.997559
vt 0.314463 0.942869
vt 0.404798 0.937498
vt 0.396008 0.886715
vt 0.476577 0.824213
vt 0.461928 0.781732
vt 0.522935 0.671377
vt 0.505356 0.640126
vt 0.539537 0.498062
vt 0.520493 0.479507
vt 0.522935 0.324717
vt 0.505356 0.318857
vt 0.476577 0.172369
vt 0.461928 0.177252
vt 0.404798 0.059084
vt 0.396008 0.072268
vt 0.316904 1.998596
vt 0.314463 0.016602
vt 0.223640 1.998596
vt 0.228034 0.016602
vt 0.135746 0.059084
vt 0.146489 0.072268
vt 0.064455 0.172369
vt 0.080081 0.177252
vt 0.017579 0.324717
vt 0.036622 0.318857
vt 0.021485 0.479507
vt 0.036622 0.640126
vt 0.131352 0.612293
vt 0.167974 0.420911
vt 0.080081 0.781732
vt 0.146489 0.886715
vt 0.217780 0.748527
vt 0.228034 0.942869
vt 0.314463 0.942869
vt 0.330088 0.748527
vt 0.396008 0.886715
vt 0.461928 0.781732
vt 0.416517 0.612293
vt 0.505356 0.640126
vt 0.520493 0.479507
vt 0.436048 0.403333
vt 0.505356 0.318857
vt 0.461928 0.177252
vt 0.379894 0.219733
vt 0.396008 0.072268
vt 0.314463 0.016602
vt 0.273934 0.146977
vt 0.228034 0.016602
vt 0.146489 0.072268
vt 0.167974 0.219733
vt 0.080081 0.177252
vt 0.036622 0.318857
vt 0.917966 0.836909
vt 0.772942 0.485855
vt 0.995117 0.564440
vt 0.772942 0.944334
vt 0.628407 0.836909
vt 0.551256 0.564440
vt 0.577624 0.254402
vt 0.695791 0.052248
vt 0.850093 0.052248
vt 0.968261 0.254402
vt 0.917966 0.836909
vt 0.995117 0.564440
vt 0.772942 0.485855
vt 0.772942 0.944334
vt 0.628407 0.836909
vt 0.551256 0.564440
vt 0.577624 0.254402
vt 0.695791 0.052248
vt 0.850093 0.052248
vt 0.968261 0.254402
vt 0.001465 0.498062
vt 0.021485 0.479507
vt 0.036622 0.640126
vt 0.017579 0.671377
vt 0.080081 0.781732
vt 0.064455 0.824213
vt 0.146489 0.886715
vt 0.135746 0.937498
vt 0.228034 0.942869
vt 0.223640 0.997559
vt 0.314463 0.942869
vt 0.316904 0.997559
vt 0.396008 0.886715
vt 0.404798 0.937498
vt 0.461928 0.781732
vt 0.476577 0.824213
vt 0.505356 0.640126
vt 0.522935 0.671377
vt 0.520493 0.479507
vt 0.539537 0.498062
vt 0.505356 0.318857
vt 0.522935 0.324717
vt 0.461928 0.177252
vt 0.476577 0.172369
vt 0.396008 0.072268
vt 0.404798 0.059084
vt 0.314463 0.016602
vt 0.316904 1.998596
vt 0.228034 0.016602
vt 0.223640 1.998596
vt 0.146489 0.072268
vt 0.135746 0.059084
vt 0.080081 0.177252
vt 0.064455 0.172369
vt 0.036622 0.318857
vt 0.017579 0.324717
vt 0.021485 0.479507
vt 0.167974 0.420911
vt 0.131352 0.612293
vt 0.036622 0.640126
vt 0.080081 0.781732
vt 0.217780 0.748527
vt 0.146489 0.886715
vt 0.228034 0.942869
vt 0.330088 0.748527
vt 0.314463 0.942869
vt 0.396008 0.886715
vt 0.416517 0.612293
vt 0.461928 0.781732
vt 0.505356 0.640126
vt 0.436048 0.403333
vt 0.520493 0.479507
vt 0.505356 0.318857
vt 0.379894 0.219733
vt 0.461928 0.177252
vt 0.396008 0.072268
vt 0.273934 0.146977
vt 0.314463 0.016602
vt 0.228034 0.016602
vt 0.167974 0.219733
vt 0.146489 0.072268
vt 0.080081 0.177252
vt 0.036622 0.318857
vt 0.917966 0.836909
vt 0.995117 0.564440
vt 0.772942 0.485855
vt 0.772942 0.944334
vt 0.628407 0.836909
vt 0.551256 0.564440
vt 0.577624 0.254402
vt 0.695791 0.052248
vt 0.850093 0.052248
vt 0.968261 0.254402
vn 0.9719 0.1802 -0.1513
vn 1.0000 0.0007 0.0002
vn 0.9720 0.0407 -0.2313
vn 0.9719 0.2354 0.0000
vn 0.9719 0.1801 0.1513
vn 0.9720 0.0406 0.2312
vn 0.9722 -0.1173 0.2029
vn 0.9722 -0.2199 0.0800
vn 0.9722 -0.2200 -0.0800
vn 0.9722 -0.1173 -0.2029
vn 0.5738 0.2546 -0.7784
vn 0.5363 0.4899 -0.6873
vn 0.6909 0.4645 -0.5539
vn 0.7345 0.2892 -0.6139
vn 0.5072 0.6764 -0.5340
vn 0.6534 0.6217 -0.4318
vn 0.4869 0.8054 -0.3380
vn 0.6282 0.7252 -0.2820
vn 0.4750 0.8722 -0.1165
vn 0.6132 0.7846 -0.0921
vn 0.4715 0.8744 0.1148
vn 0.6106 0.7864 0.0935
vn 0.4764 0.8105 0.3406
vn 0.6196 0.7301 0.2882
vn 0.4905 0.6809 0.5438
vn 0.6409 0.6261 0.4440
vn 0.5146 0.4894 0.7041
vn 0.6754 0.4639 0.5733
vn 0.5490 0.2458 0.7989
vn 0.7182 0.2827 0.6358
vn 0.5929 -0.0306 0.8047
vn 0.7746 0.0624 0.6294
vn 0.6426 -0.3081 0.7015
vn 0.8274 -0.1319 0.5459
vn 0.6896 -0.5397 0.4828
vn 0.8800 -0.3051 0.3641
vn 0.7213 -0.6712 0.1710
vn 0.9086 -0.3943 0.1380
vn 0.7269 -0.6641 -0.1750
vn 0.9115 -0.3886 -0.1350
vn 0.7051 -0.5217 -0.4802
vn 0.8873 -0.2920 -0.3570
vn 0.6649 -0.2867 -0.6897
vn 0.8396 -0.1158 -0.5307
vn 0.6182 -0.0134 -0.7859
vn 0.7893 0.0765 -0.6092
vn 0.8730 0.4524 -0.1825
vn 0.9195 0.3288 -0.2156
vn 0.6534 0.6217 -0.4319
vn 0.6282 0.7251 -0.2820
vn 0.8430 0.5332 -0.0715
vn 0.6105 0.7864 0.0936
vn 0.8414 0.5352 0.0753
vn 0.8698 0.4546 0.1919
vn 0.9175 0.3259 0.2282
vn 0.9668 0.2000 0.1590
vn 0.9891 0.1471 0.0019
vn 0.9669 0.2056 -0.1512
vn 0.9677 0.1930 -0.1620
vn 1.0000 0.0007 -0.0000
vn 0.9679 0.0435 -0.2477
vn 0.9677 0.2521 -0.0000
vn 0.9677 0.1930 0.1620
vn 0.9679 0.0435 0.2477
vn 0.9680 -0.1256 0.2173
vn 0.9681 -0.2356 0.0857
vn 0.9681 -0.2356 -0.0857
vn 0.9680 -0.1256 -0.2173
vn 0.9719 0.1802 0.1513
vn 0.9720 0.0407 0.2313
vn 1.0000 0.0007 -0.0002
vn 0.9719 0.1801 -0.1513
vn 0.9720 0.0406 -0.2312
vn 0.9722 -0.2199 -0.0800
vn 0.9722 -0.2200 0.0800
vn 0.5738 0.2546 0.7784
vn 0.7345 0.2892 0.6139
vn 0.6909 0.4645 0.5540
vn 0.5363 0.4899 0.6873
vn 0.6534 0.6217 0.4318
vn 0.5072 0.6764 0.5340
vn 0.6282 0.7252 0.2820
vn 0.4869 0.8054 0.3380
vn 0.6132 0.7846 0.0921
vn 0.4750 0.8722 0.1165
vn 0.6106 0.7864 -0.0935
vn 0.4714 0.8744 -0.1148
vn 0.6196 0.7301 -0.2882
vn 0.4764 0.8105 -0.3406
vn 0.6409 0.6261 -0.4440
vn 0.4905 0.6809 -0.5438
vn 0.6754 0.4639 -0.5733
vn 0.5146 0.4894 -0.7041
vn 0.7182 0.2827 -0.6358
vn 0.5490 0.2458 -0.7989
vn 0.7746 0.0624 -0.6294
vn 0.5929 -0.0306 -0.8047
vn 0.8274 -0.1319 -0.5459
vn 0.6426 -0.3081 -0.7015
vn 0.8800 -0.3051 -0.3641
vn 0.6896 -0.5397 -0.4828
vn 0.9086 -0.3943 -0.1380
vn 0.7213 -0.6712 -0.1710
vn 0.9115 -0.3886 0.1350
vn 0.7269 -0.6641 0.1750
vn 0.8873 -0.2921 0.3570
vn 0.7051 -0.5217 0.4802
vn 0.8396 -0.1158 0.5307
vn 0.6649 -0.2867 0.6897
vn 0.7893 0.0765 0.6092
vn 0.6182 -0.0134 0.7859
vn 0.9195 0.3288 0.2156
vn 0.8730 0.4525 0.1823
vn 0.6909 0.4645 0.5539
vn 0.6534 0.6217 0.4319
vn 0.8430 0.5332 0.0715
vn 0.6282 0.7251 0.2820
vn 0.8414 0.5352 -0.0753
vn 0.6105 0.7864 -0.0935
vn 0.8697 0.4547 -0.1919
vn 0.9175 0.3259 -0.2282
vn 0.9668 0.2000 -0.1590
vn 0.9891 0.1471 -0.0019
vn 0.9669 0.2056 0.1512
vn 0.8873 -0.2920 0.3570
usemtl HEADLIGHTREFLECTOR_KIT00_HEADLIGHT_ON
s 1
f 1/1/1 2/2/2 3/3/3
f 4/4/4 2/2/2 1/1/1
f 2/2/2 4/4/4 5/5/5
f 6/6/6 2/2/2 5/5/5
f 2/2/2 6/6/6 7/7/7
f 8/8/8 2/2/2 7/7/7
f 2/2/2 8/8/8 9/9/9
f 10/10/10 2/2/2 9/9/9
f 2/2/2 10/10/10 3/3/3
f 11/11/11 12/12/12 13/13/13
f 13/13/13 14/14/14 11/11/11
f 12/12/12 15/15/15 16/16/16
f 16/16/16 13/13/13 12/12/12
f 15/15/15 17/17/17 18/18/18
f 18/18/18 16/16/16 15/15/15
f 17/17/17 19/19/19 20/20/20
f 20/20/20 18/18/18 17/17/17
f 19/19/19 21/21/21 22/22/22
f 22/22/22 20/20/20 19/19/19
f 21/21/21 23/23/23 24/24/24
f 24/24/24 22/22/22 21/21/21
f 24/24/24 23/23/23 25/25/25
f 25/25/25 26/26/26 24/24/24
f 25/25/25 27/27/27 28/28/28
f 28/28/28 26/26/26 25/25/25
f 27/27/27 29/29/29 30/30/30
f 30/30/30 28/28/28 27/27/27
f 29/29/29 31/31/31 32/32/32
f 32/32/32 30/30/30 29/29/29
f 31/31/31 33/33/33 34/34/34
f 34/34/34 32/32/32 31/31/31
f 33/33/33 35/35/35 36/36/36
f 36/36/36 34/34/34 33/33/33
f 35/35/35 37/37/37 38/38/38
f 38/38/38 36/36/36 35/35/35
f 37/37/37 39/39/39 40/40/40
f 40/40/40 38/38/38 37/37/37
f 39/39/39 41/41/41 42/42/42
f 42/42/42 40/40/40 39/39/39
f 41/41/41 43/43/43 44/44/44
f 44/44/44 42/42/42 41/41/41
f 43/43/43 45/45/45 46/46/46
f 46/46/46 44/44/44 43/43/43
f 45/45/45 11/11/11 14/14/14
f 14/14/14 46/46/46 45/45/45
f 47/47/14 48/48/13 49/49/47
f 49/49/47 50/50/48 47/47/14
f 51/51/49 49/49/47 48/48/13
f 51/51/49 52/52/50 53/53/51
f 53/53/51 49/49/47 51/51/49
f 54/54/20 53/53/51 52/52/50
f 54/54/20 55/55/52 56/56/53
f 56/56/53 53/53/51 54/54/20
f 57/57/24 56/56/53 55/55/52
f 57/57/24 58/58/26 59/59/54
f 59/59/54 56/56/53 57/57/24
f 60/60/28 59/59/54 58/58/26
f 60/60/28 61/61/30 62/62/55
f 62/62/55 59/59/54 60/60/28
f 63/63/32 62/62/55 61/61/30
f 63/63/32 64/64/34 65/65/56
f 65/65/56 62/62/55 63/63/32
f 66/66/36 65/65/56 64/64/34
f 66/66/36 67/67/38 68/68/57
f 68/68/57 65/65/56 66/66/36
f 69/69/40 68/68/57 67/67/38
f 69/69/40 70/70/42 71/71/58
f 71/71/58 68/68/57 69/69/40
f 72/72/44 71/71/58 70/70/42
f 72/72/44 73/73/46 50/50/48
f 50/50/48 71/71/58 72/72/44
f 47/47/14 50/50/48 73/73/46
f 71/71/58 50/50/48 49/49/47
f 71/71/58 49/49/47 53/53/51
f 53/53/51 68/68/57 71/71/58
f 68/68/57 53/53/51 56/56/53
f 56/56/53 65/65/56 68/68/57
f 65/65/56 56/56/53 59/59/54
f 59/59/54 62/62/55 65/65/56
f 74/74/59 75/75/60 76/76/61
f 77/77/62 75/75/60 74/74/59
f 75/75/60 77/77/62 78/78/63
f 79/79/64 75/75/60 78/78/63
f 75/75/60 79/79/64 80/80/65
f 81/81/66 75/75/60 80/80/65
f 75/75/60 81/81/66 82/82/67
f 83/83/68 75/75/60 82/82/67
f 75/75/60 83/83/68 76/76/61
f 84/84/69 85/85/70 86/86/71
f 87/87/4 84/84/69 86/86/71
f 86/86/71 88/88/72 87/87/4
f 89/89/73 88/88/72 86/86/71
f 86/86/71 90/90/10 89/89/73
f 91/91/74 90/90/10 86/86/71
f 86/86/71 92/92/75 91/91/74
f 93/93/7 92/92/75 86/86/71
f 86/86/71 85/85/70 93/93/7
f 94/94/76 95/95/77 96/96/78
f 96/96/78 97/97/79 94/94/76
f 97/97/79 96/96/78 98/98/80
f 98/98/80 99/99/81 97/97/79
f 99/99/81 98/98/80 100/100/82
f 100/100/82 101/101/83 99/99/81
f 101/101/83 100/100/82 102/102/84
f 102/102/84 103/103/85 101/101/83
f 103/103/85 102/102/84 104/104/86
f 104/104/86 105/105/87 103/103/85
f 105/105/87 104/104/86 106/106/88
f 106/106/88 107/107/89 105/105/87
f 106/106/88 108/108/90 109/109/91
f 109/109/91 107/107/89 106/106/88
f 109/109/91 108/108/90 110/110/92
f 110/110/92 111/111/93 109/109/91
f 111/111/93 110/110/92 112/112/94
f 112/112/94 113/113/95 111/111/93
f 113/113/95 112/112/94 114/114/96
f 114/114/96 115/115/97 113/113/95
f 115/115/97 114/114/96 116/116/98
f 116/116/98 117/117/99 115/115/97
f 117/117/99 116/116/98 118/118/100
f 118/118/100 119/119/101 117/117/99
f 119/119/101 118/118/100 120/120/102
f 120/120/102 121/121/103 119/119/101
f 121/121/103 120/120/102 122/122/104
f 122/122/104 123/123/105 121/121/103
f 123/123/105 122/122/104 124/124/106
f 124/124/106 125/125/107 123/123/105
f 125/125/107 124/124/106 126/126/108
f 126/126/108 127/127/109 125/125/107
f 127/127/109 126/126/108 128/128/110
f 128/128/110 129/129/111 127/127/109
f 129/129/111 128/128/110 95/95/77
f 95/95/77 94/94/76 129/129/111
f 130/130/77 131/131/112 132/132/113
f 132/132/113 133/133/114 130/130/77
f 134/134/115 133/133/114 132/132/113
f 134/134/115 132/132/113 135/135/116
f 135/135/116 136/136/117 134/134/115
f 137/137/84 136/136/117 135/135/116
f 137/137/84 135/135/116 138/138/118
f 138/138/118 139/139/119 137/137/84
f 140/140/88 139/139/119 138/138/118
f 140/140/88 138/138/118 141/141/120
f 141/141/120 142/142/90 140/140/88
f 143/143/92 142/142/90 141/141/120
f 143/143/92 141/141/120 144/144/121
f 144/144/121 145/145/94 143/143/92
f 146/146/96 145/145/94 144/144/121
f 146/146/96 144/144/121 147/147/122
f 147/147/122 148/148/98 146/146/96
f 149/149/100 148/148/98 147/147/122
f 149/149/100 147/147/122 150/150/123
f 150/150/123 151/151/102 149/149/100
f 152/152/104 151/151/102 150/150/123
f 152/152/104 150/150/123 153/153/124
f 153/153/124 154/154/125 152/152/104
f 155/155/108 154/154/125 153/153/124
f 155/155/108 153/153/124 131/131/112
f 131/131/112 156/156/110 155/155/108
f 130/130/77 156/156/110 131/131/112
f 153/153/124 132/132/113 131/131/112
f 153/153/124 150/150/123 135/135/116
f 135/135/116 132/132/113 153/153/124
f 150/150/123 147/147/122 138/138/118
f 138/138/118 135/135/116 150/150/123
f 147/147/122 144/144/121 141/141/120
f 141/141/120 138/138/118 147/147/122
f 157/157/63 158/158/64 159/159/60
f 160/160/62 157/157/63 159/159/60
f 159/159/60 161/161/59 160/160/62
f 162/162/61 161/161/59 159/159/60
f 159/159/60 163/163/68 162/162/61
f 164/164/67 163/163/68 159/159/60
f 159/159/60 165/165/66 164/164/67
f 166/166/65 165/165/66 159/159/60
f 159/159/60 158/158/64 166/166/65
