# Blender v3.0.1 OBJ File: ''
# www.blender.org
mtllib CORVETTEZ06 BOX CUT.007.mtl
o CORVETTEZ06_BOX_CUT.007
v -0.953093 0.731529 -0.844752
v -0.964385 0.725425 -0.849025
v -0.972320 0.736107 -0.842921
v -0.946989 0.673544 -0.870693
v -0.935087 0.672933 -0.870388
v -0.936308 0.636006 -0.884121
v -0.948820 0.639058 -0.883816
v -0.947295 0.711997 -0.854823
v -0.935697 0.712302 -0.853603
v -1.045259 0.630512 -0.892361
v -1.044038 0.641804 -0.888699
v -0.954619 0.633564 -0.885952
v -0.951262 0.621662 -0.889004
v -1.065096 0.633259 -0.892972
v -1.061739 0.643941 -0.889615
v -1.086764 0.666524 -0.882595
v -1.096530 0.660115 -0.885952
v -1.104770 0.692770 -0.870083
v -1.094089 0.695822 -0.868557
v -1.108127 0.740074 -0.846278
v -1.096835 0.734275 -0.849635
v -1.098971 0.725120 -0.854823
v -1.110874 0.725730 -0.854823
v -1.088595 0.738853 -0.848109
v -1.091952 0.748924 -0.842006
v -0.942106 0.724204 -0.848415
v -0.953398 0.720542 -0.851466
v -0.948820 0.639058 -0.883816
v -0.936308 0.636006 -0.884121
v -0.951262 0.621662 -0.889004
v -0.951262 0.621662 -0.889004
v -0.954619 0.633564 -0.885952
v -0.948820 0.639058 -0.883816
v -1.084018 0.644246 -0.892361
v -1.076388 0.652181 -0.888699
v -0.953398 0.720542 -0.851466
v -0.953398 0.720542 -0.851466
v -0.942106 0.724204 -0.848415
vt 0.015625 0.499985
vt 0.265633 0.499985
vt 0.015625 0.499985
vt 0.265633 0.749992
vt 0.015625 0.749992
vt 0.015625 0.749992
vt 0.265633 0.749992
vt 0.265633 0.749992
vt 0.015625 0.749992
vt 0.015625 0.499985
vt 0.265633 0.499985
vt 0.265633 0.499985
vt 0.015625 0.499985
vt 0.015625 0.499985
vt 0.265633 0.499985
vt 0.265633 0.499985
vt 0.015625 0.499985
vt 0.015625 0.499985
vt 0.265633 0.499985
vt 0.015625 0.499985
vt 0.265633 0.499985
vt 0.265633 0.499985
vt 0.015625 0.499985
vt 0.265633 0.499985
vt 0.015625 0.499985
vt 0.015625 0.499985
vt 0.265633 0.499985
vt 0.265633 0.749992
vt 0.015625 0.749992
vt 0.015625 0.718741
vt 0.015625 0.718741
vt 0.265633 0.718741
vt 0.265633 0.749992
vt 0.015625 0.499985
vt 0.265633 0.499985
vt 0.265633 0.718741
vt 0.265633 0.718741
vt 0.015625 0.718741
vn 0.0425 0.5071 -0.8608
vn 0.0442 0.5091 -0.8596
vn 0.0479 0.5122 -0.8576
vn 0.0468 0.3675 -0.9288
vn 0.0506 0.3679 -0.9285
vn 0.0357 0.3238 -0.9454
vn 0.0435 0.3145 -0.9483
vn 0.0821 0.4110 -0.9080
vn 0.0849 0.4069 -0.9095
vn 0.0680 0.2914 -0.9542
vn 0.0687 0.2909 -0.9543
vn 0.0742 0.2758 -0.9583
vn 0.0550 0.2774 -0.9592
vn 0.1009 0.2776 -0.9554
vn 0.1017 0.2808 -0.9544
vn 0.0241 0.4215 -0.9065
vn 0.0326 0.4166 -0.9085
vn 0.0211 0.4336 -0.9008
vn 0.0218 0.4330 -0.9011
vn 0.0003 0.4867 -0.8736
vn -0.0287 0.4865 -0.8732
vn 0.0205 0.4656 -0.8848
vn 0.0257 0.4699 -0.8824
vn -0.0326 0.5172 -0.8553
vn -0.0096 0.5080 -0.8613
vn 0.0674 0.4570 -0.8869
vn 0.0579 0.4783 -0.8763
vn 0.0356 0.3238 -0.9454
vn 0.0720 0.3457 -0.9356
vn 0.0652 0.3516 -0.9339
vn 0.0579 0.4782 -0.8763
usemtl DOORLINE_DOORLINE
s 1
f 1/1/1 2/2/2 3/3/3
f 4/4/4 5/5/5 6/6/6
f 6/6/6 7/7/7 4/4/4
f 5/5/5 4/4/4 8/8/8
f 8/8/8 9/9/9 5/5/5
f 10/10/10 11/11/11 12/12/12
f 12/12/12 13/13/13 10/10/10
f 14/14/14 15/15/15 11/11/11
f 11/11/11 10/10/10 14/14/14
f 16/16/16 17/17/17 18/18/18
f 18/18/18 19/19/19 16/16/16
f 20/20/20 21/21/21 22/22/22
f 22/22/22 23/23/23 20/20/20
f 24/24/24 25/25/25 3/3/3
f 3/3/3 2/2/2 24/24/24
f 26/26/26 27/27/27 2/2/2
f 2/2/2 1/1/1 26/26/26
f 28/28/7 29/29/28 30/30/13
f 31/31/13 32/32/12 33/33/7
f 21/21/21 20/20/20 25/25/25
f 25/25/25 24/24/24 21/21/21
f 34/34/29 35/35/30 15/15/15
f 15/15/15 14/14/14 34/34/29
f 9/9/9 8/8/8 36/36/27
f 37/37/31 38/38/26 9/9/9
f 16/16/16 35/35/30 34/34/29
f 34/34/29 17/17/17 16/16/16
f 18/18/18 23/23/23 22/22/22
f 22/22/22 19/19/19 18/18/18
