# Blender v3.0.1 OBJ File: ''
# www.blender.org
mtllib CORVETTEZ06 BOX CUT.016.mtl
o CORVETTEZ06_BOX_CUT.016
v -1.995605 0.184637 -0.206000
v -1.838435 0.175481 -0.212714
v -1.995605 0.166021 -0.219428
v -1.838435 0.133976 -0.212714
v -1.995605 0.143132 -0.219428
v -1.995605 0.124821 -0.206000
v -1.838435 0.121158 -0.173650
v -1.995605 0.117801 -0.184332
v -1.995605 0.124821 -0.162664
v -1.838435 0.154729 -0.149236
v -1.995605 0.143132 -0.149236
v -1.995605 0.166021 -0.149236
v -1.838435 0.187994 -0.173650
v -1.995605 0.184637 -0.162664
v -1.995605 0.191656 -0.184332
v -2.042299 0.154729 -0.184942
v -2.079531 0.166021 -0.177618
v -2.079531 0.184637 -0.164190
v -2.033448 0.177313 -0.184942
v -2.079531 0.143132 -0.177618
v -2.033448 0.132145 -0.184942
v -2.079531 0.124821 -0.164190
v -2.079531 0.117801 -0.142521
v -2.079531 0.124821 -0.120853
v -2.079531 0.143132 -0.107425
v -2.079531 0.166021 -0.107425
v -2.079531 0.184637 -0.120853
v -2.079531 0.191656 -0.142521
v -2.079531 0.166021 -0.192267
v -2.079531 0.143132 -0.192267
v -2.079531 0.184637 -0.205695
v -2.079531 0.124821 -0.205695
v -2.079531 0.117801 -0.227363
v -2.079531 0.124821 -0.249336
v -2.079531 0.143132 -0.262764
v -2.079531 0.166021 -0.262764
v -2.079531 0.184637 -0.249336
v -2.079531 0.191656 -0.227363
v -1.995605 0.184637 0.206610
v -1.995605 0.166021 0.220038
v -1.838435 0.175481 0.213324
v -1.838435 0.133976 0.213324
v -1.995605 0.143132 0.220038
v -1.995605 0.124821 0.206610
v -1.838435 0.121158 0.174261
v -1.995605 0.117801 0.184942
v -1.995605 0.124821 0.163274
v -1.838435 0.154729 0.149846
v -1.995605 0.143132 0.149846
v -1.995605 0.166021 0.149846
v -1.838435 0.187994 0.174261
v -1.995605 0.184637 0.163274
v -1.995605 0.191656 0.184942
v -2.079531 0.184637 0.164800
v -2.079531 0.166021 0.178228
v -2.042299 0.154729 0.185553
v -2.033448 0.177313 0.185553
v -2.079531 0.143132 0.178228
v -2.033448 0.132145 0.185553
v -2.079531 0.124821 0.164800
v -2.079531 0.117801 0.143132
v -2.079531 0.124821 0.121464
v -2.079531 0.143132 0.108036
v -2.079531 0.166021 0.108036
v -2.079531 0.184637 0.121464
v -2.079531 0.191656 0.143132
v -2.079531 0.143132 0.192877
v -2.079531 0.166021 0.192877
v -2.079531 0.184637 0.206305
v -2.079531 0.124821 0.206305
v -2.079531 0.117801 0.227973
v -2.079531 0.124821 0.249947
v -2.079531 0.143132 0.263375
v -2.079531 0.166021 0.263375
v -2.079531 0.184637 0.249947
v -2.079531 0.191656 0.227973
v 1.891232 0.206305 -0.626240
v 1.892453 0.184332 -0.616779
v 1.875362 0.185858 -0.649434
v 1.886654 0.222175 -0.652791
v 1.887875 0.210883 -0.766320
v 1.885739 0.221870 -0.745872
v 1.876278 0.189825 -0.750755
v 1.889096 0.190741 -0.777612
v 1.890316 0.162969 -0.775475
v 1.881161 0.149236 -0.752281
v 1.893063 0.157781 -0.619831
v 1.882992 0.150151 -0.647908
v 1.879635 0.225227 -0.702231
v 1.867428 0.188604 -0.701315
v 1.879330 0.151677 -0.700400
v 1.875362 0.185858 0.649434
v 1.892453 0.184332 0.616779
v 1.891232 0.206305 0.626240
v 1.886654 0.222175 0.652791
v 1.876278 0.189825 0.750755
v 1.885739 0.221870 0.745872
v 1.887875 0.210883 0.766320
v 1.889096 0.190741 0.777612
v 1.890316 0.162969 0.775475
v 1.881161 0.149236 0.752281
v 1.882992 0.150151 0.647908
v 1.893063 0.157781 0.619831
v 1.879635 0.225227 0.702231
v 1.867428 0.188604 0.701315
v 1.879330 0.151677 0.700400
vt 0.532212 0.768059
vt 0.532212 0.768059
vt 0.532212 0.768059
vt 0.532212 0.768059
vt 0.532212 0.768059
vt 0.532212 0.768059
vt 0.532212 0.768059
vt 0.532212 0.768059
vt 0.532212 0.768059
vt 0.532212 0.768059
vt 0.532212 0.768059
vt 0.532212 0.768059
vt 0.532212 0.768059
vt 0.532212 0.768059
vt 0.532212 0.768059
vt 0.532212 0.768059
vt 0.532212 0.768059
vt 0.532212 0.768059
vt 0.532212 0.768059
vt 0.532212 0.768059
vt 0.532212 0.768059
vt 0.532212 0.768059
vt 0.532212 0.768059
vt 0.532212 0.768059
vt 0.532212 0.768059
vt 0.532212 0.768059
vt 0.532212 0.768059
vt 0.532212 0.768059
vt 0.532212 0.768059
vt 0.532212 0.768059
vt 0.532212 0.768059
vt 0.532212 0.768059
vt 0.532212 0.768059
vt 0.532212 0.768059
vt 0.532212 0.768059
vt 0.532212 0.768059
vt 0.532212 0.768059
vt 0.532212 0.768059
vt 0.532212 0.768059
vt 0.532212 0.768059
vt 0.532212 0.768059
vt 0.532212 0.768059
vt 0.532212 0.768059
vt 0.532212 0.768059
vt 0.532212 0.768059
vt 0.532212 0.768059
vt 0.532212 0.768059
vt 0.532212 0.768059
vt 0.532212 0.768059
vt 0.532212 0.768059
vt 0.532212 0.768059
vt 0.532212 0.768059
vt 0.532212 0.768059
vt 0.532212 0.768059
vt 0.532212 0.768059
vt 0.532212 0.768059
vt 0.532212 0.768059
vt 0.532212 0.768059
vt 0.532212 0.768059
vt 0.532212 0.768059
vt 0.532212 0.768059
vt 0.532212 0.768059
vt 0.532212 0.768059
vt 0.532212 0.768059
vt 0.532212 0.768059
vt 0.532212 0.768059
vt 0.532212 0.768059
vt 0.532212 0.768059
vt 0.532212 0.768059
vt 0.532212 0.768059
vt 0.532212 0.768059
vt 0.532212 0.768059
vt 0.532212 0.768059
vt 0.532212 0.768059
vt 0.532212 0.768059
vt 0.532212 0.768059
vt 0.526841 0.685049
vt 0.513169 0.620594
vt 0.558580 0.625477
vt 0.562975 0.731437
vt 0.720206 0.698721
vt 0.691885 0.730949
vt 0.698721 0.636708
vt 0.736320 0.639149
vt 0.733390 0.557604
vt 0.701163 0.518052
vt 0.517563 0.542467
vt 0.556139 0.520005
vt 0.631336 0.740715
vt 0.630360 0.632801
vt 0.628895 0.524888
vt 0.558580 0.625477
vt 0.513169 0.620594
vt 0.526841 0.685049
vt 0.562975 0.731437
vt 0.698721 0.636708
vt 0.691885 0.730949
vt 0.720206 0.698721
vt 0.736320 0.639149
vt 0.733390 0.557604
vt 0.701163 0.518052
vt 0.556139 0.520005
vt 0.517563 0.542467
vt 0.631336 0.740715
vt 0.630360 0.632801
vt 0.628895 0.524888
vn 0.1456 0.8271 -0.5428
vn 0.0497 0.5871 -0.8080
vn 0.2451 0.3080 -0.9193
vn 0.0498 -0.5871 -0.8080
vn 0.2450 -0.3081 -0.9193
vn 0.1456 -0.8272 -0.5427
vn 0.0497 -0.9499 0.3086
vn 0.0280 -0.9996 -0.0064
vn 0.1422 -0.8197 0.5549
vn 0.0497 0.0000 0.9988
vn 0.2387 -0.3206 0.9166
vn 0.2387 0.3205 0.9167
vn 0.0498 0.9499 0.3084
vn 0.1422 0.8196 0.5549
vn 0.0133 0.9999 -0.0062
vn -0.9357 0.3528 0.0001
vn -0.0681 0.3722 -0.9256
vn -0.0484 0.8214 -0.5683
vn -0.4668 0.8844 0.0080
vn -0.2310 -0.2778 -0.9324
vn -0.4228 -0.9061 0.0164
vn -0.2093 -0.8123 -0.5443
vn 0.0451 -0.9949 0.0904
vn 0.3044 -0.7313 0.6103
vn 0.4313 -0.2580 0.8645
vn 0.4313 0.2579 0.8646
vn 0.3045 0.7313 0.6103
vn 0.0725 0.9958 0.0555
vn -0.0681 0.3722 0.9257
vn -0.2310 -0.2778 0.9324
vn -0.0486 0.8213 0.5684
vn -0.2132 -0.8109 0.5450
vn 0.0477 -0.9946 -0.0926
vn 0.3136 -0.7281 -0.6095
vn 0.4422 -0.2559 -0.8596
vn 0.4422 0.2560 -0.8596
vn 0.3137 0.7280 -0.6096
vn 0.0755 0.9955 -0.0570
vn 0.1457 0.8271 0.5429
vn 0.2451 0.3080 0.9193
vn 0.0497 0.5871 0.8080
vn 0.0498 -0.5871 0.8080
vn 0.2450 -0.3081 0.9193
vn 0.1456 -0.8272 0.5427
vn 0.0497 -0.9499 -0.3086
vn 0.0277 -0.9996 0.0063
vn 0.1422 -0.8197 -0.5549
vn 0.0497 0.0000 -0.9988
vn 0.2387 -0.3206 -0.9166
vn 0.2387 0.3205 -0.9167
vn 0.0498 0.9499 -0.3084
vn 0.1422 0.8197 -0.5549
vn 0.0131 0.9999 0.0065
vn -0.0481 0.8214 0.5683
vn -0.9358 0.3526 0.0001
vn -0.4669 0.8843 -0.0079
vn -0.2310 -0.2778 0.9325
vn -0.4229 -0.9060 -0.0165
vn -0.2094 -0.8123 0.5444
vn 0.0451 -0.9949 -0.0904
vn 0.3044 -0.7313 -0.6103
vn 0.4313 -0.2579 -0.8646
vn 0.4313 0.2578 -0.8646
vn 0.3045 0.7313 -0.6103
vn 0.0725 0.9958 -0.0554
vn -0.0486 0.8214 -0.5683
vn -0.2132 -0.8109 -0.5450
vn 0.0476 -0.9946 0.0926
vn 0.3136 -0.7281 0.6095
vn 0.4422 -0.2560 0.8596
vn 0.4423 0.2559 0.8596
vn 0.3137 0.7280 0.6096
vn 0.0755 0.9955 0.0570
vn 0.8849 -0.2307 -0.4046
vn 0.8849 -0.0249 -0.4652
vn 0.9587 -0.0529 -0.2795
vn 0.9237 -0.3112 -0.2236
vn 0.9045 -0.2566 0.3405
vn 0.9312 -0.3071 0.1965
vn 0.9632 -0.0654 0.2606
vn 0.9020 -0.0412 0.4297
vn 0.9047 0.0876 0.4170
vn 0.9733 0.1151 0.1988
vn 0.8997 0.1257 -0.4179
vn 0.9469 0.2157 -0.2386
vn 0.9492 -0.3146 -0.0011
vn 0.9997 -0.0148 0.0197
vn 0.9627 0.2693 0.0260
vn 0.9587 -0.0528 0.2796
vn 0.8849 -0.0249 0.4652
vn 0.8849 -0.2307 0.4046
vn 0.9237 -0.3113 0.2236
vn 0.9632 -0.0654 -0.2605
vn 0.9311 -0.3072 -0.1966
vn 0.9045 -0.2566 -0.3406
vn 0.9020 -0.0412 -0.4297
vn 0.9047 0.0876 -0.4170
vn 0.9733 0.1151 -0.1988
vn 0.9469 0.2157 0.2386
vn 0.8997 0.1257 0.4180
vn 0.9492 -0.3146 0.0011
vn 0.9997 -0.0148 -0.0197
vn 0.9627 0.2693 -0.0260
usemtl ALUMINUM_MISC
s 1
f 1/1/1 2/2/2 3/3/3
f 3/3/3 2/2/2 4/4/4
f 4/4/4 5/5/5 3/3/3
f 5/5/5 4/4/4 6/6/6
f 6/6/6 4/4/4 7/7/7
f 7/7/7 8/8/8 6/6/6
f 8/8/8 7/7/7 9/9/9
f 9/9/9 7/7/7 10/10/10
f 10/10/10 11/11/11 9/9/9
f 11/11/11 10/10/10 12/12/12
f 12/12/12 10/10/10 13/13/13
f 13/13/13 14/14/14 12/12/12
f 14/14/14 13/13/13 15/15/15
f 15/15/15 13/13/13 2/2/2
f 2/2/2 1/1/1 15/15/15
f 16/16/16 17/17/17 18/18/18
f 18/18/18 19/19/19 16/16/16
f 16/16/16 20/20/20 17/17/17
f 20/20/20 16/16/16 21/21/21
f 21/21/21 22/22/22 20/20/20
f 22/22/22 21/21/21 8/8/8
f 8/8/8 23/23/23 22/22/22
f 23/23/23 8/8/8 9/9/9
f 9/9/9 24/24/24 23/23/23
f 24/24/24 9/9/9 11/11/11
f 11/11/11 25/25/25 24/24/24
f 25/25/25 11/11/11 12/12/12
f 12/12/12 26/26/26 25/25/25
f 26/26/26 12/12/12 14/14/14
f 14/14/14 27/27/27 26/26/26
f 27/27/27 14/14/14 15/15/15
f 15/15/15 28/28/28 27/27/27
f 28/28/28 15/15/15 19/19/19
f 19/19/19 18/18/18 28/28/28
f 16/16/16 29/29/29 30/30/30
f 31/31/31 29/29/29 16/16/16
f 16/16/16 19/19/19 31/31/31
f 30/30/30 32/32/32 21/21/21
f 21/21/21 16/16/16 30/30/30
f 32/32/32 33/33/33 8/8/8
f 8/8/8 21/21/21 32/32/32
f 33/33/33 34/34/34 6/6/6
f 6/6/6 8/8/8 33/33/33
f 34/34/34 35/35/35 5/5/5
f 5/5/5 6/6/6 34/34/34
f 35/35/35 36/36/36 3/3/3
f 3/3/3 5/5/5 35/35/35
f 36/36/36 37/37/37 1/1/1
f 1/1/1 3/3/3 36/36/36
f 37/37/37 38/38/38 15/15/15
f 15/15/15 1/1/1 37/37/37
f 38/38/38 31/31/31 19/19/19
f 19/19/19 15/15/15 38/38/38
f 39/39/39 40/40/40 41/41/41
f 42/42/42 41/41/41 40/40/40
f 40/40/40 43/43/43 42/42/42
f 43/43/43 44/44/44 42/42/42
f 45/45/45 42/42/42 44/44/44
f 44/44/44 46/46/46 45/45/45
f 46/46/46 47/47/47 45/45/45
f 48/48/48 45/45/45 47/47/47
f 47/47/47 49/49/49 48/48/48
f 49/49/49 50/50/50 48/48/48
f 51/51/51 48/48/48 50/50/50
f 50/50/50 52/52/52 51/51/51
f 52/52/52 53/53/53 51/51/51
f 41/41/41 51/51/51 53/53/53
f 53/53/53 39/39/39 41/41/41
f 54/54/54 55/55/29 56/56/55
f 56/56/55 57/57/56 54/54/54
f 56/56/55 55/55/29 58/58/57
f 59/59/58 56/56/55 58/58/57
f 58/58/57 60/60/59 59/59/58
f 46/46/46 59/59/58 60/60/59
f 60/60/59 61/61/60 46/46/46
f 47/47/47 46/46/46 61/61/60
f 61/61/60 62/62/61 47/47/47
f 49/49/49 47/47/47 62/62/61
f 62/62/61 63/63/62 49/49/49
f 50/50/50 49/49/49 63/63/62
f 63/63/62 64/64/63 50/50/50
f 52/52/52 50/50/50 64/64/63
f 64/64/63 65/65/64 52/52/52
f 53/53/53 52/52/52 65/65/64
f 65/65/64 66/66/65 53/53/53
f 57/57/56 53/53/53 66/66/65
f 66/66/65 54/54/54 57/57/56
f 56/56/55 67/67/20 68/68/17
f 56/56/55 68/68/17 69/69/66
f 69/69/66 57/57/56 56/56/55
f 59/59/58 70/70/67 67/67/20
f 67/67/20 56/56/55 59/59/58
f 46/46/46 71/71/68 70/70/67
f 70/70/67 59/59/58 46/46/46
f 44/44/44 72/72/69 71/71/68
f 71/71/68 46/46/46 44/44/44
f 43/43/43 73/73/70 72/72/69
f 72/72/69 44/44/44 43/43/43
f 40/40/40 74/74/71 73/73/70
f 73/73/70 43/43/43 40/40/40
f 39/39/39 75/75/72 74/74/71
f 74/74/71 40/40/40 39/39/39
f 53/53/53 76/76/73 75/75/72
f 75/75/72 39/39/39 53/53/53
f 57/57/56 69/69/66 76/76/73
f 76/76/73 53/53/53 57/57/56
f 77/77/74 78/78/75 79/79/76
f 79/79/76 80/80/77 77/77/74
f 81/81/78 82/82/79 83/83/80
f 83/83/80 84/84/81 81/81/78
f 85/85/82 84/84/81 83/83/80
f 83/83/80 86/86/83 85/85/82
f 87/87/84 88/88/85 79/79/76
f 79/79/76 78/78/75 87/87/84
f 89/89/86 80/80/77 79/79/76
f 79/79/76 90/90/87 89/89/86
f 88/88/85 91/91/88 90/90/87
f 90/90/87 79/79/76 88/88/85
f 91/91/88 86/86/83 83/83/80
f 83/83/80 90/90/87 91/91/88
f 82/82/79 89/89/86 90/90/87
f 90/90/87 83/83/80 82/82/79
f 92/92/89 93/93/90 94/94/91
f 94/94/91 95/95/92 92/92/89
f 96/96/93 97/97/94 98/98/95
f 98/98/95 99/99/96 96/96/93
f 96/96/93 99/99/96 100/100/97
f 100/100/97 101/101/98 96/96/93
f 92/92/89 102/102/99 103/103/100
f 103/103/100 93/93/90 92/92/89
f 92/92/89 95/95/92 104/104/101
f 104/104/101 105/105/102 92/92/89
f 105/105/102 106/106/103 102/102/99
f 102/102/99 92/92/89 105/105/102
f 96/96/93 101/101/98 106/106/103
f 106/106/103 105/105/102 96/96/93
f 105/105/102 104/104/101 97/97/94
f 97/97/94 96/96/93 105/105/102
