# Blender v3.0.1 OBJ File: ''
# www.blender.org
mtllib CORVETTEZ06 BOX CUT.023.mtl
o CORVETTEZ06_BOX_CUT.023
v -2.140568 0.783410 0.692465
v -2.139653 0.790429 0.693075
v -2.146062 0.791345 0.693075
v -2.146977 0.784326 0.692465
v -2.141484 0.789209 0.692160
v -2.143315 0.787378 0.695212
v -2.142094 0.785241 0.691855
v -2.144841 0.789514 0.692160
v -2.145451 0.785852 0.691855
v -2.518998 0.794397 0.690024
v -2.518082 0.801416 0.689718
v -2.524491 0.802332 0.689718
v -2.525102 0.795312 0.689718
v -2.519608 0.799890 0.689108
v -2.521744 0.798364 0.692160
v -2.520218 0.796228 0.689108
v -2.523270 0.800501 0.688803
v -2.523575 0.796533 0.689108
v -2.405469 0.790735 0.690634
v -2.404553 0.797754 0.691244
v -2.410657 0.798364 0.691244
v -2.411573 0.791345 0.690634
v -2.406079 0.796228 0.690329
v -2.407910 0.794397 0.693381
v -2.406690 0.792566 0.690024
v -2.409436 0.796838 0.690329
v -2.410047 0.792871 0.690024
v -2.268441 0.787072 0.691549
v -2.267525 0.794092 0.691855
v -2.273934 0.795007 0.691855
v -2.274850 0.787988 0.691549
v -2.269051 0.792871 0.691244
v -2.271188 0.791040 0.693991
v -2.269662 0.788903 0.690939
v -2.272713 0.793176 0.691244
v -2.273019 0.789514 0.690939
v -2.190008 0.418409 0.333262
v -2.189398 0.426649 0.332957
v -2.189703 0.426344 0.325022
v -2.190619 0.418104 0.325633
v -2.189398 0.425123 0.331126
v -2.191534 0.422681 0.329295
v -2.190008 0.420240 0.331431
v -2.189703 0.424818 0.326853
v -2.190314 0.420240 0.327158
v -2.191839 0.397351 0.339061
v -2.190619 0.400403 0.350047
v -2.190924 0.404370 0.342418
v -2.191534 0.393689 0.346385
v -2.191229 0.395825 0.345775
v -2.192755 0.398877 0.344859
v -2.191534 0.397961 0.341502
v -2.190924 0.399487 0.347606
v -2.190924 0.401929 0.343333
v -2.192450 0.403149 0.318003
v -2.193976 0.392163 0.315256
v -2.193060 0.396435 0.322275
v -2.193365 0.398572 0.310984
v -2.193365 0.397961 0.313120
v -2.194891 0.397656 0.316477
v -2.192755 0.400403 0.317087
v -2.193365 0.394299 0.315561
v -2.193060 0.397046 0.319529
v -2.190008 0.418409 -0.332652
v -2.190619 0.418104 -0.325022
v -2.189703 0.426344 -0.324412
v -2.189398 0.426649 -0.332347
v -2.189398 0.425123 -0.330515
v -2.190008 0.420240 -0.330821
v -2.191534 0.422681 -0.328684
v -2.189703 0.424818 -0.326243
v -2.190314 0.420240 -0.326548
v -2.191839 0.397351 -0.338450
v -2.190924 0.404370 -0.341807
v -2.190619 0.400403 -0.349437
v -2.191534 0.393689 -0.345775
v -2.191229 0.395825 -0.345164
v -2.191534 0.397961 -0.340892
v -2.192755 0.398877 -0.344249
v -2.190924 0.399487 -0.346995
v -2.190924 0.401929 -0.342723
v -2.192450 0.403149 -0.317392
v -2.193060 0.396435 -0.321665
v -2.193976 0.392163 -0.314646
v -2.193365 0.398572 -0.310373
v -2.193365 0.397961 -0.312510
v -2.192755 0.400403 -0.316477
v -2.194891 0.397656 -0.315867
v -2.193365 0.394299 -0.314951
v -2.193060 0.397046 -0.318918
v -2.140568 0.783410 -0.691855
v -2.146977 0.784326 -0.691855
v -2.146062 0.791345 -0.692465
v -2.139653 0.790429 -0.692465
v -2.141484 0.789209 -0.691549
v -2.142094 0.785241 -0.691244
v -2.143315 0.787378 -0.694601
v -2.144841 0.789514 -0.691549
v -2.145451 0.785852 -0.691244
v -2.518998 0.794397 -0.689413
v -2.525102 0.795312 -0.689108
v -2.524491 0.802332 -0.689108
v -2.518082 0.801416 -0.689108
v -2.519608 0.799890 -0.688498
v -2.520218 0.796228 -0.688498
v -2.521744 0.798364 -0.691549
v -2.523270 0.800501 -0.688192
v -2.523575 0.796533 -0.688498
v -2.405469 0.790735 -0.690024
v -2.411573 0.791345 -0.690024
v -2.410657 0.798364 -0.690634
v -2.404553 0.797754 -0.690634
v -2.406079 0.796228 -0.689718
v -2.406690 0.792566 -0.689413
v -2.407910 0.794397 -0.692770
v -2.409436 0.796838 -0.689718
v -2.410047 0.792871 -0.689413
v -2.268441 0.787072 -0.690939
v -2.274850 0.787988 -0.690939
v -2.273934 0.795007 -0.691244
v -2.267525 0.794092 -0.691244
v -2.269051 0.792871 -0.690634
v -2.269662 0.788903 -0.690329
v -2.271188 0.791040 -0.693381
v -2.272713 0.793176 -0.690634
v -2.273019 0.789514 -0.690329
vt 0.525864 0.473159
vt 0.525864 0.935057
vt 0.063967 0.935057
vt 0.063967 0.473159
vt 0.019532 0.013672
vt 0.019532 0.168462
vt 0.019532 0.013672
vt 0.019532 0.013672
vt 0.019532 0.013672
vt 0.525864 0.473159
vt 0.525864 0.935057
vt 0.063967 0.935057
vt 0.063967 0.473159
vt 0.019532 0.013672
vt 0.019532 0.168462
vt 0.019532 0.013672
vt 0.019532 0.013672
vt 0.019532 0.013672
vt 0.525864 0.473159
vt 0.525864 0.935057
vt 0.063967 0.935057
vt 0.063967 0.473159
vt 0.019532 0.013672
vt 0.019532 0.168462
vt 0.019532 0.013672
vt 0.019532 0.013672
vt 0.019532 0.013672
vt 0.525864 0.473159
vt 0.525864 0.935057
vt 0.063967 0.935057
vt 0.063967 0.473159
vt 0.019532 0.013672
vt 0.019532 0.168462
vt 0.019532 0.013672
vt 0.019532 0.013672
vt 0.019532 0.013672
vt 0.525864 0.473159
vt 0.525864 0.935057
vt 0.063967 0.935057
vt 0.063967 0.473159
vt 0.019532 0.013672
vt 0.019532 0.168462
vt 0.019532 0.013672
vt 0.019532 0.013672
vt 0.019532 0.013672
vt 0.525864 0.473159
vt 0.063967 0.935057
vt 0.063967 0.473159
vt 0.525864 0.935057
vt 0.019532 0.013672
vt 0.019532 0.168462
vt 0.019532 0.013672
vt 0.019532 0.013672
vt 0.019532 0.013672
vt 0.525864 0.473159
vt 0.063967 0.935057
vt 0.063967 0.473159
vt 0.525864 0.935057
vt 0.019532 0.013672
vt 0.019532 0.168462
vt 0.019532 0.013672
vt 0.019532 0.013672
vt 0.019532 0.013672
vt 0.525864 0.473159
vt 0.063967 0.473159
vt 0.063967 0.935057
vt 0.525864 0.935057
vt 0.019532 0.013672
vt 0.019532 0.013672
vt 0.019532 0.168462
vt 0.019532 0.013672
vt 0.019532 0.013672
vt 0.525864 0.473159
vt 0.063967 0.473159
vt 0.063967 0.935057
vt 0.525864 0.935057
vt 0.019532 0.013672
vt 0.019532 0.013672
vt 0.019532 0.168462
vt 0.019532 0.013672
vt 0.019532 0.013672
vt 0.525864 0.473159
vt 0.063967 0.473159
vt 0.063967 0.935057
vt 0.525864 0.935057
vt 0.019532 0.013672
vt 0.019532 0.013672
vt 0.019532 0.168462
vt 0.019532 0.013672
vt 0.019532 0.013672
vt 0.525864 0.473159
vt 0.063967 0.473159
vt 0.063967 0.935057
vt 0.525864 0.935057
vt 0.019532 0.013672
vt 0.019532 0.013672
vt 0.019532 0.168462
vt 0.019532 0.013672
vt 0.019532 0.013672
vt 0.525864 0.473159
vt 0.063967 0.473159
vt 0.063967 0.935057
vt 0.525864 0.935057
vt 0.019532 0.013672
vt 0.019532 0.013672
vt 0.019532 0.168462
vt 0.019532 0.013672
vt 0.019532 0.013672
vt 0.525864 0.473159
vt 0.063967 0.473159
vt 0.063967 0.935057
vt 0.525864 0.935057
vt 0.019532 0.013672
vt 0.019532 0.013672
vt 0.019532 0.168462
vt 0.019532 0.013672
vt 0.019532 0.013672
vt 0.525864 0.473159
vt 0.063967 0.473159
vt 0.063967 0.935057
vt 0.525864 0.935057
vt 0.019532 0.013672
vt 0.019532 0.013672
vt 0.019532 0.168462
vt 0.019532 0.013672
vt 0.019532 0.013672
vn -0.0117 -0.0724 0.9973
vn 0.6048 0.4381 0.6650
vn 0.0094 -0.0599 0.9982
vn 0.4503 -0.6630 0.5980
vn -0.4748 0.5611 0.6780
vn -0.5999 -0.5133 0.6137
vn -0.0117 0.0294 0.9995
vn 0.5971 0.5039 0.6242
vn 0.0095 0.0240 0.9997
vn 0.4584 -0.6033 0.6526
vn -0.4684 0.6221 0.6274
vn -0.6072 -0.4505 0.6545
vn -0.0117 -0.0725 0.9973
vn 0.0094 -0.0598 0.9982
vn 0.4502 -0.6631 0.5981
vn -0.5998 -0.5134 0.6138
vn 0.6048 0.4382 0.6650
vn -0.4749 0.5611 0.6780
vn -0.5999 -0.5134 0.6137
vn -0.9931 0.0962 0.0665
vn -0.8226 0.4355 0.3656
vn -0.9917 0.1119 0.0627
vn -0.8931 -0.2203 0.3922
vn -0.8680 0.4052 -0.2872
vn -0.9375 -0.2539 -0.2381
vn -0.9931 0.0964 0.0669
vn -0.9097 -0.3572 0.2118
vn -0.9924 0.0918 0.0824
vn -0.9276 -0.0467 -0.3707
vn -0.8322 0.2218 0.5081
vn -0.8530 0.5145 -0.0882
vn -0.9931 0.0959 0.0670
vn -0.9931 0.0960 0.0670
vn -0.8992 0.1764 -0.4004
vn -0.9949 0.0849 0.0553
vn -0.8367 0.5245 0.1573
vn -0.9269 -0.3726 -0.0442
vn -0.8632 -0.0036 0.5048
vn -0.9931 0.0962 -0.0665
vn -0.9931 0.0962 -0.0664
vn -0.8226 0.4356 -0.3655
vn -0.8931 -0.2204 -0.3921
vn -0.9917 0.1118 -0.0627
vn -0.8679 0.4052 0.2872
vn -0.9375 -0.2539 0.2381
vn -0.9931 0.0964 -0.0669
vn -0.9097 -0.3571 -0.2117
vn -0.9276 -0.0467 0.3707
vn -0.9924 0.0918 -0.0823
vn -0.8322 0.2219 -0.5081
vn -0.8530 0.5144 0.0883
vn -0.9931 0.0959 -0.0669
vn -0.9931 0.0960 -0.0669
vn -0.8992 0.1765 0.4004
vn -0.8368 0.5245 -0.1572
vn -0.9949 0.0849 -0.0552
vn -0.9269 -0.3726 0.0443
vn -0.8632 -0.0036 -0.5048
vn -0.0117 -0.0724 -0.9973
vn 0.6048 0.4381 -0.6650
vn 0.4502 -0.6630 -0.5980
vn 0.0093 -0.0598 -0.9982
vn -0.4749 0.5611 -0.6780
vn -0.5999 -0.5133 -0.6137
vn -0.0117 0.0294 -0.9995
vn -0.0118 0.0294 -0.9995
vn 0.5971 0.5039 -0.6241
vn 0.4585 -0.6033 -0.6526
vn 0.0096 0.0240 -0.9997
vn -0.4683 0.6221 -0.6274
vn -0.6072 -0.4505 -0.6545
vn -0.0117 -0.0725 -0.9973
vn 0.4502 -0.6630 -0.5981
vn 0.0094 -0.0598 -0.9982
vn -0.4748 0.5612 -0.6780
vn 0.6047 0.4382 -0.6650
vn 0.4502 -0.6631 -0.5980
vn -0.4749 0.5611 -0.6779
vn -0.5999 -0.5134 -0.6137
usemtl DECAL_BADGING_UNIVERSAL
s 1
f 1/1/1 2/2/1 3/3/1
f 3/3/1 4/4/1 1/1/1
f 5/5/2 6/6/3 7/7/4
f 8/8/5 9/9/6 6/6/3
f 7/7/4 6/6/3 9/9/6
f 8/8/5 6/6/3 5/5/2
f 10/10/7 11/11/7 12/12/7
f 12/12/7 13/13/7 10/10/7
f 14/14/8 15/15/9 16/16/10
f 17/17/11 18/18/12 15/15/9
f 16/16/10 15/15/9 18/18/12
f 17/17/11 15/15/9 14/14/8
f 19/19/13 20/20/13 21/21/13
f 21/21/13 22/22/13 19/19/13
f 23/23/2 24/24/14 25/25/15
f 26/26/5 27/27/16 24/24/14
f 25/25/15 24/24/14 27/27/16
f 26/26/5 24/24/14 23/23/2
f 28/28/1 29/29/1 30/30/1
f 30/30/1 31/31/1 28/28/1
f 32/32/17 33/33/14 34/34/15
f 35/35/18 36/36/19 33/33/14
f 34/34/15 33/33/14 36/36/19
f 35/35/18 33/33/14 32/32/17
f 37/37/20 38/38/20 39/39/20
f 39/39/20 40/40/20 37/37/20
f 41/41/21 42/42/22 43/43/23
f 44/44/24 45/45/25 42/42/22
f 43/43/23 42/42/22 45/45/25
f 44/44/24 42/42/22 41/41/21
f 46/46/26 47/47/26 48/48/26
f 47/47/26 46/46/26 49/49/26
f 50/50/27 51/51/28 52/52/29
f 53/53/30 54/54/31 51/51/28
f 52/52/29 51/51/28 54/54/31
f 53/53/30 51/51/28 50/50/27
f 55/55/32 56/56/33 57/57/33
f 56/56/33 55/55/32 58/58/32
f 59/59/34 60/60/35 61/61/36
f 62/62/37 63/63/38 60/60/35
f 61/61/36 60/60/35 63/63/38
f 62/62/37 60/60/35 59/59/34
f 64/64/39 65/65/40 66/66/40
f 66/66/40 67/67/40 64/64/39
f 68/68/41 69/69/42 70/70/43
f 71/71/44 70/70/43 72/72/45
f 69/69/42 72/72/45 70/70/43
f 71/71/44 68/68/41 70/70/43
f 73/73/46 74/74/46 75/75/46
f 75/75/46 76/76/46 73/73/46
f 77/77/47 78/78/48 79/79/49
f 80/80/50 79/79/49 81/81/51
f 78/78/48 81/81/51 79/79/49
f 80/80/50 77/77/47 79/79/49
f 82/82/52 83/83/52 84/84/53
f 84/84/53 85/85/52 82/82/52
f 86/86/54 87/87/55 88/88/56
f 89/89/57 88/88/56 90/90/58
f 87/87/55 90/90/58 88/88/56
f 89/89/57 86/86/54 88/88/56
f 91/91/59 92/92/59 93/93/59
f 93/93/59 94/94/59 91/91/59
f 95/95/60 96/96/61 97/97/62
f 98/98/63 97/97/62 99/99/64
f 96/96/61 99/99/64 97/97/62
f 98/98/63 95/95/60 97/97/62
f 100/100/65 101/101/66 102/102/65
f 102/102/65 103/103/65 100/100/65
f 104/104/67 105/105/68 106/106/69
f 107/107/70 106/106/69 108/108/71
f 105/105/68 108/108/71 106/106/69
f 107/107/70 104/104/67 106/106/69
f 109/109/72 110/110/72 111/111/72
f 111/111/72 112/112/72 109/109/72
f 113/113/60 114/114/73 115/115/74
f 116/116/75 115/115/74 117/117/64
f 114/114/73 117/117/64 115/115/74
f 116/116/75 113/113/60 115/115/74
f 118/118/59 119/119/59 120/120/59
f 120/120/59 121/121/59 118/118/59
f 122/122/76 123/123/77 124/124/74
f 125/125/78 124/124/74 126/126/79
f 123/123/77 126/126/79 124/124/74
f 125/125/78 122/122/76 124/124/74
