# Blender v3.0.1 OBJ File: ''
# www.blender.org
mtllib CORVETTEZ06 BOX CUT.026.mtl
o CORVETTEZ06_BOX_CUT.026
v 0.443434 0.787072 0.390332
v 0.478835 0.790429 0.189825
v 0.261849 0.897244 0.161138
v 0.236213 0.893582 0.349437
v 0.591754 0.706198 0.415967
v 0.634785 0.709250 0.209662
v 0.190435 0.885342 0.542009
v 0.384228 0.780969 0.582293
v 0.522782 0.700095 0.609455
v 0.272225 0.898465 0.000000
v 0.493789 0.792871 0.000000
v 0.651265 0.713523 0.000000
v 0.055849 0.993683 0.128788
v 0.039064 0.988800 0.306711
v 0.001526 0.975982 0.502029
v -0.036012 0.957366 0.593585
v 0.142827 0.872219 0.636311
v 0.325022 0.773339 0.677816
v 0.424818 0.712302 0.700705
v 0.454115 0.698264 0.697958
v 0.477615 0.693381 0.680563
v 0.101321 0.974456 0.070498
v 0.116276 0.969268 0.000000
v 0.111698 0.970489 0.041505
v 0.478835 0.790429 -0.189825
v 0.443434 0.787072 -0.390332
v 0.236213 0.893582 -0.349437
v 0.261849 0.897244 -0.161138
v 0.634785 0.709250 -0.209662
v 0.591754 0.706198 -0.415967
v 0.190435 0.885342 -0.542009
v 0.384228 0.780969 -0.582293
v 0.522782 0.700095 -0.609455
v 0.039064 0.988800 -0.306711
v 0.055849 0.993683 -0.128788
v 0.001526 0.975982 -0.502029
v -0.036012 0.957366 -0.592975
v 0.142827 0.872219 -0.636311
v 0.325022 0.773339 -0.677816
v 0.101321 0.974456 -0.070498
v 0.111698 0.970489 -0.041505
v 0.477615 0.693381 -0.680563
v 0.454115 0.698264 -0.697958
v 0.424818 0.712302 -0.700705
vt 0.221686 0.302744
vt 0.364269 0.260262
vt 0.385266 0.593738
vt 0.250984 0.623524
vt 0.203131 0.070315
vt 0.350108 0.018555
vt 0.113285 0.675771
vt 0.084475 0.373058
vt 0.064943 0.152837
vt 0.500015 0.581042
vt 0.500015 0.243172
vt 0.499527 0.000000
vt 0.408216 0.906735
vt 0.281747 0.925291
vt 0.142094 0.964354
vt 0.077151 1.000000
vt 0.045900 0.727531
vt 0.016602 0.442396
vt 0.000000 0.281747
vt 0.001953 0.237312
vt 0.014161 0.205084
vt 0.449721 0.838862
vt 0.500473 0.816889
vt 0.470717 0.823237
vt 0.635243 0.259774
vt 0.778314 0.301279
vt 0.749504 0.622547
vt 0.615223 0.592761
vt 0.649403 0.017579
vt 0.796381 0.068850
vt 0.887204 0.673818
vt 0.915525 0.371105
vt 0.935057 0.150395
vt 0.719230 0.923826
vt 0.592273 0.906247
vt 0.858882 0.962401
vt 0.923826 0.997559
vt 0.954588 0.725089
vt 0.983886 0.439467
vt 0.550768 0.838374
vt 0.529771 0.823237
vt 0.985839 0.202155
vt 0.998047 0.234870
vt 1.000000 0.279305
vn 0.4464 0.8852 0.1313
vn 0.4441 0.8932 0.0707
vn 0.4270 0.9025 0.0565
vn 0.4268 0.8978 0.1090
vn 0.4513 0.8811 0.1415
vn 0.4509 0.8891 0.0784
vn 0.4049 0.8860 0.2260
vn 0.4362 0.8654 0.2466
vn 0.4444 0.8595 0.2525
vn 0.4253 0.9051 0.0013
vn 0.4426 0.8967 0.0020
vn 0.4515 0.8923 0.0016
vn 0.4190 0.9064 0.0536
vn 0.4149 0.9045 0.0987
vn 0.3779 0.8972 0.2284
vn 0.3424 0.8828 0.3216
vn 0.3737 0.8735 0.3120
vn 0.4139 0.8509 0.3235
vn 0.4325 0.8364 0.3367
vn 0.4272 0.8376 0.3404
vn 0.4229 0.8383 0.3442
vn 0.4180 0.9080 0.0289
vn 0.4138 0.9103 -0.0000
vn 0.4137 0.9102 0.0210
vn 0.4444 0.8931 -0.0693
vn 0.4462 0.8856 -0.1293
vn 0.4236 0.8993 -0.1091
vn 0.4255 0.9033 -0.0548
vn 0.4555 0.8869 -0.0774
vn 0.4589 0.8772 -0.1414
vn 0.4004 0.8873 -0.2290
vn 0.4344 0.8649 -0.2516
vn 0.4477 0.8554 -0.2606
vn 0.4124 0.9053 -0.1013
vn 0.4168 0.9076 -0.0507
vn 0.3813 0.8947 -0.2327
vn 0.3525 0.8805 -0.3169
vn 0.3717 0.8763 -0.3064
vn 0.4135 0.8515 -0.3224
vn 0.4181 0.9079 -0.0287
vn 0.4137 0.9102 -0.0210
vn 0.4229 0.8383 -0.3442
vn 0.4272 0.8376 -0.3404
vn 0.4325 0.8364 -0.3367
usemtl WINDSHIELD_WINDOW_FRONT_DAMAGE
s 1
f 1/1/1 2/2/2 3/3/3
f 3/3/3 4/4/4 1/1/1
f 5/5/5 6/6/6 2/2/2
f 2/2/2 1/1/1 5/5/5
f 4/4/4 7/7/7 8/8/8
f 8/8/8 1/1/1 4/4/4
f 1/1/1 8/8/8 9/9/9
f 9/9/9 5/5/5 1/1/1
f 10/10/10 3/3/3 2/2/2
f 2/2/2 11/11/11 10/10/10
f 11/11/11 2/2/2 6/6/6
f 6/6/6 12/12/12 11/11/11
f 4/4/4 3/3/3 13/13/13
f 13/13/13 14/14/14 4/4/4
f 14/14/14 15/15/15 7/7/7
f 7/7/7 4/4/4 14/14/14
f 15/15/15 16/16/16 17/17/17
f 17/17/17 7/7/7 15/15/15
f 18/18/18 8/8/8 7/7/7
f 7/7/7 17/17/17 18/18/18
f 8/8/8 18/18/18 19/19/19
f 8/8/8 19/19/19 20/20/20
f 8/8/8 20/20/20 21/21/21
f 8/8/8 21/21/21 9/9/9
f 22/22/22 13/13/13 3/3/3
f 22/22/22 3/3/3 10/10/10
f 10/10/10 23/23/23 24/24/24
f 22/22/22 10/10/10 24/24/24
f 25/25/25 26/26/26 27/27/27
f 27/27/27 28/28/28 25/25/25
f 29/29/29 30/30/30 26/26/26
f 26/26/26 25/25/25 29/29/29
f 31/31/31 27/27/27 26/26/26
f 26/26/26 32/32/32 31/31/31
f 32/32/32 26/26/26 30/30/30
f 30/30/30 33/33/33 32/32/32
f 28/28/28 10/10/10 11/11/11
f 11/11/11 25/25/25 28/28/28
f 25/25/25 11/11/11 12/12/12
f 12/12/12 29/29/29 25/25/25
f 28/28/28 27/27/27 34/34/34
f 34/34/34 35/35/35 28/28/28
f 36/36/36 34/34/34 27/27/27
f 27/27/27 31/31/31 36/36/36
f 37/37/37 36/36/36 31/31/31
f 31/31/31 38/38/38 37/37/37
f 32/32/32 39/39/39 38/38/38
f 38/38/38 31/31/31 32/32/32
f 28/28/28 35/35/35 40/40/40
f 41/41/41 23/23/23 10/10/10
f 40/40/40 41/41/41 10/10/10
f 28/28/28 40/40/40 10/10/10
f 32/32/32 33/33/33 42/42/42
f 32/32/32 42/42/42 43/43/43
f 32/32/32 43/43/43 44/44/44
f 32/32/32 44/44/44 39/39/39
