# Blender v3.0.1 OBJ File: ''
# www.blender.org
mtllib CORVETTEZ06 BOX CUT.031.mtl
o CORVETTEZ06_BOX_CUT.031
v -1.608020 0.915555 0.271004
v -1.659902 0.910062 0.194098
v -1.746574 0.880459 0.228278
v -1.662648 0.890225 0.313425
v -1.844539 0.860317 0.109256
v -1.793573 0.862453 0.248726
v -1.688894 0.907620 0.098575
v -1.697440 0.908231 0.000305
v -1.853389 0.860927 0.000305
v -1.295816 1.000092 0.113529
v -1.295205 1.003143 0.000305
v -1.493576 0.960723 0.000305
v -1.482589 0.960417 0.099185
v -1.314432 0.964080 0.387890
v -1.483505 0.944548 0.295114
v -1.514634 0.924101 0.344249
v -1.330607 0.931425 0.447707
v -1.547899 0.894498 0.392468
v -1.345561 0.893887 0.491348
v -1.566820 0.866115 0.424207
v -1.355327 0.860012 0.520035
v -1.699881 0.865200 0.345775
v -1.302835 0.984832 0.307932
v -1.437727 0.965606 0.197455
v -1.121861 1.031220 0.140385
v -1.122166 1.035188 0.000305
v -1.297647 0.993378 0.225837
v -1.121250 1.023286 0.271920
v -1.128880 0.977508 0.468154
v -1.124607 1.005585 0.401318
v -1.136204 0.934477 0.527055
v -1.145360 0.889920 0.567339
v -1.198157 0.851772 0.580157
v -1.174963 0.857875 0.582904
v -1.158483 0.867946 0.580157
v -1.746574 0.880459 -0.227668
v -1.659902 0.910062 -0.193487
v -1.608020 0.915555 -0.270394
v -1.662648 0.890225 -0.312815
v -1.793573 0.862453 -0.248115
v -1.844539 0.860317 -0.108646
v -1.688894 0.907620 -0.097964
v -1.482589 0.960417 -0.098575
v -1.295816 1.000092 -0.112918
v -1.514634 0.924101 -0.343638
v -1.483505 0.944548 -0.294504
v -1.314432 0.964080 -0.387280
v -1.330607 0.931425 -0.447096
v -1.345561 0.893887 -0.490738
v -1.547899 0.894498 -0.391858
v -1.355327 0.860012 -0.519425
v -1.566820 0.866115 -0.423597
v -1.699881 0.865200 -0.345164
v -1.302835 0.984832 -0.307321
v -1.437727 0.965606 -0.196844
v -1.121861 1.031220 -0.139775
v -1.121250 1.023286 -0.271310
v -1.297647 0.993378 -0.225227
v -1.124607 1.005585 -0.400708
v -1.129185 0.974151 -0.475478
v -1.136204 0.934477 -0.526444
v -1.145360 0.889920 -0.566729
v -1.174963 0.857875 -0.582293
v -1.198157 0.851772 -0.579547
v -1.158483 0.867946 -0.579547
vt 0.577136 0.267098
vt 0.555162 0.258309
vt 0.564928 0.243172
vt 0.589343 0.257820
vt 0.531236 0.226569
vt 0.570788 0.234870
vt 0.527818 0.252937
vt 0.500015 0.251473
vt 0.500015 0.224616
vt 0.532212 0.320811
vt 0.500015 0.320811
vt 0.500015 0.286630
vt 0.528306 0.288583
vt 0.610340 0.317393
vt 0.583972 0.288583
vt 0.598132 0.283212
vt 0.627918 0.314951
vt 0.611805 0.277352
vt 0.640126 0.312021
vt 0.621082 0.273934
vt 0.648427 0.310556
vt 0.598621 0.251473
vt 0.587878 0.319346
vt 0.556139 0.296396
vt 0.540025 0.350597
vt 0.500015 0.350597
vt 0.564440 0.320322
vt 0.577624 0.350597
vt 0.633778 0.349620
vt 0.614246 0.350108
vt 0.650380 0.348155
vt 0.661611 0.346690
vt 0.665517 0.337413
vt 0.666494 0.341319
vt 0.665517 0.344249
vt 0.435072 0.243172
vt 0.444838 0.258309
vt 0.422864 0.267098
vt 0.410657 0.257820
vt 0.429212 0.234870
vt 0.468764 0.226569
vt 0.472182 0.252937
vt 0.471694 0.288583
vt 0.467788 0.320811
vt 0.401868 0.283212
vt 0.416028 0.288583
vt 0.389660 0.317393
vt 0.372082 0.314951
vt 0.359874 0.312021
vt 0.388195 0.277352
vt 0.351573 0.310556
vt 0.378918 0.273934
vt 0.401379 0.251473
vt 0.412122 0.319346
vt 0.443861 0.296396
vt 0.459975 0.350597
vt 0.422376 0.350597
vt 0.435560 0.320322
vt 0.385754 0.350108
vt 0.364269 0.349132
vt 0.349620 0.348155
vt 0.338389 0.346690
vt 0.333506 0.341319
vt 0.334483 0.337413
vt 0.334483 0.344249
vn -0.2614 0.9524 0.1569
vn -0.2656 0.9606 0.0816
vn -0.2942 0.9477 0.1240
vn -0.2942 0.9155 0.2744
vn -0.3028 0.9516 0.0522
vn -0.2982 0.9358 0.1883
vn -0.2688 0.9622 0.0444
vn -0.2705 0.9627 0.0004
vn -0.3141 0.9494 0.0027
vn -0.1957 0.9798 0.0405
vn -0.1953 0.9807 0.0002
vn -0.2305 0.9731 0.0002
vn -0.2304 0.9722 0.0424
vn -0.2397 0.9177 0.3167
vn -0.2410 0.9561 0.1666
vn -0.2575 0.9178 0.3023
vn -0.2573 0.8290 0.4965
vn -0.2781 0.8449 0.4569
vn -0.2659 0.7205 0.6404
vn -0.2952 0.7524 0.5889
vn -0.2690 0.6409 0.7190
vn -0.3163 0.8615 0.3972
vn -0.2110 0.9660 0.1492
vn -0.2227 0.9723 0.0707
vn -0.1716 0.9842 0.0429
vn -0.1673 0.9859 -0.0004
vn -0.1977 0.9777 0.0709
vn -0.1781 0.9799 0.0895
vn -0.2384 0.8550 0.4606
vn -0.2084 0.9459 0.2487
vn -0.2415 0.7381 0.6300
vn -0.2403 0.6323 0.7365
vn -0.2481 0.5758 0.7791
vn -0.2422 0.5702 0.7850
vn -0.2410 0.5880 0.7721
vn -0.2934 0.9483 -0.1212
vn -0.2689 0.9597 -0.0813
vn -0.2614 0.9524 -0.1568
vn -0.2941 0.9156 -0.2743
vn -0.2982 0.9358 -0.1882
vn -0.3004 0.9523 -0.0546
vn -0.2707 0.9615 -0.0461
vn -0.2296 0.9724 -0.0406
vn -0.1954 0.9799 -0.0393
vn -0.2576 0.9178 -0.3021
vn -0.2411 0.9561 -0.1666
vn -0.2399 0.9179 -0.3160
vn -0.2582 0.8288 -0.4964
vn -0.2659 0.7205 -0.6404
vn -0.2781 0.8449 -0.4569
vn -0.2690 0.6409 -0.7189
vn -0.2952 0.7524 -0.5889
vn -0.3163 0.8615 -0.3972
vn -0.2110 0.9660 -0.1492
vn -0.2244 0.9717 -0.0733
vn -0.1705 0.9845 -0.0415
vn -0.1789 0.9797 -0.0904
vn -0.1971 0.9777 -0.0721
vn -0.2084 0.9459 -0.2486
vn -0.2399 0.8469 -0.4745
vn -0.2422 0.7301 -0.6389
vn -0.2403 0.6323 -0.7365
vn -0.2423 0.5702 -0.7849
vn -0.2482 0.5758 -0.7790
vn -0.2410 0.5880 -0.7721
usemtl WINDSHIELD_WINDOW_REAR
s 1
f 1/1/1 2/2/2 3/3/3
f 3/3/3 4/4/4 1/1/1
f 3/3/3 5/5/5 6/6/6
f 7/7/7 8/8/8 9/9/9
f 9/9/9 5/5/5 7/7/7
f 10/10/10 11/11/11 12/12/12
f 12/12/12 13/13/13 10/10/10
f 13/13/13 12/12/12 8/8/8
f 8/8/8 7/7/7 13/13/13
f 14/14/14 15/15/15 16/16/16
f 16/16/16 17/17/17 14/14/14
f 18/18/18 19/19/19 17/17/17
f 17/17/17 16/16/16 18/18/18
f 20/20/20 21/21/21 19/19/19
f 19/19/19 18/18/18 20/20/20
f 15/15/15 2/2/2 1/1/1
f 1/1/1 16/16/16 15/15/15
f 16/16/16 1/1/1 4/4/4
f 4/4/4 18/18/18 16/16/16
f 22/22/22 20/20/20 18/18/18
f 18/18/18 4/4/4 22/22/22
f 15/15/15 14/14/14 23/23/23
f 23/23/23 24/24/24 15/15/15
f 11/11/11 10/10/10 25/25/25
f 25/25/25 26/26/26 11/11/11
f 10/10/10 27/27/27 28/28/28
f 28/28/28 25/25/25 10/10/10
f 14/14/14 29/29/29 30/30/30
f 30/30/30 23/23/23 14/14/14
f 17/17/17 31/31/31 29/29/29
f 29/29/29 14/14/14 17/17/17
f 19/19/19 32/32/32 31/31/31
f 31/31/31 17/17/17 19/19/19
f 21/21/21 33/33/33 34/34/34
f 21/21/21 34/34/34 35/35/35
f 35/35/35 32/32/32 19/19/19
f 21/21/21 35/35/35 19/19/19
f 28/28/28 27/27/27 23/23/23
f 23/23/23 30/30/30 28/28/28
f 27/27/27 24/24/24 23/23/23
f 13/13/13 24/24/24 27/27/27
f 27/27/27 10/10/10 13/13/13
f 7/7/7 2/2/2 24/24/24
f 24/24/24 13/13/13 7/7/7
f 24/24/24 2/2/2 15/15/15
f 36/36/36 37/37/37 38/38/38
f 38/38/38 39/39/39 36/36/36
f 40/40/40 41/41/41 36/36/36
f 36/36/36 41/41/41 42/42/42
f 42/42/42 37/37/37 36/36/36
f 41/41/41 9/9/9 8/8/8
f 8/8/8 42/42/42 41/41/41
f 43/43/43 12/12/12 11/11/11
f 11/11/11 44/44/44 43/43/43
f 42/42/42 8/8/8 12/12/12
f 12/12/12 43/43/43 42/42/42
f 45/45/45 46/46/46 47/47/47
f 47/47/47 48/48/48 45/45/45
f 48/48/48 49/49/49 50/50/50
f 50/50/50 45/45/45 48/48/48
f 49/49/49 51/51/51 52/52/52
f 52/52/52 50/50/50 49/49/49
f 38/38/38 37/37/37 46/46/46
f 46/46/46 45/45/45 38/38/38
f 39/39/39 38/38/38 45/45/45
f 45/45/45 50/50/50 39/39/39
f 50/50/50 52/52/52 53/53/53
f 53/53/53 39/39/39 50/50/50
f 54/54/54 47/47/47 46/46/46
f 46/46/46 55/55/55 54/54/54
f 26/26/26 56/56/56 44/44/44
f 44/44/44 11/11/11 26/26/26
f 56/56/56 57/57/57 58/58/58
f 58/58/58 44/44/44 56/56/56
f 59/59/59 60/60/60 47/47/47
f 47/47/47 54/54/54 59/59/59
f 60/60/60 61/61/61 48/48/48
f 48/48/48 47/47/47 60/60/60
f 61/61/61 62/62/62 49/49/49
f 49/49/49 48/48/48 61/61/61
f 63/63/63 64/64/64 51/51/51
f 49/49/49 62/62/62 65/65/65
f 51/51/51 49/49/49 65/65/65
f 63/63/63 51/51/51 65/65/65
f 54/54/54 58/58/58 57/57/57
f 57/57/57 59/59/59 54/54/54
f 58/58/58 54/54/54 55/55/55
f 44/44/44 58/58/58 55/55/55
f 55/55/55 43/43/43 44/44/44
f 43/43/43 55/55/55 37/37/37
f 37/37/37 42/42/42 43/43/43
f 55/55/55 46/46/46 37/37/37
f 5/5/5 3/3/3 2/2/2
f 2/2/2 7/7/7 5/5/5
f 6/6/6 22/22/22 4/4/4
f 4/4/4 3/3/3 6/6/6
f 40/40/40 36/36/36 39/39/39
f 39/39/39 53/53/53 40/40/40
