# Blender v3.0.1 OBJ File: ''
# www.blender.org
mtllib test2.mtl
o Sphere
v -0.303416 -0.707086 -0.685194
v 0.032129 0.558776 -0.849113
v 0.086780 -0.291220 -0.979421
v 0.164733 -0.743533 -0.682909
v 0.439800 0.136412 -0.913671
v 0.453524 0.665611 -0.648544
v 0.737947 -0.118192 -0.688084
v 0.517162 -0.660377 -0.600858
v 0.032857 -0.973612 -0.282918
v 0.089418 0.946176 -0.369453
v 0.737017 0.493149 -0.492459
v 0.954691 0.041916 -0.366525
v 0.944292 0.388308 0.002060
v 0.577980 0.843519 -0.092381
v 0.975944 -0.331949 -0.142892
v 0.713696 -0.728742 -0.056194
v 0.891690 -0.012797 0.503017
v 0.762174 0.572735 0.379465
v 0.688184 0.347198 0.654061
v 0.718925 -0.405249 0.614656
v 0.284593 -0.970049 0.005234
v 0.259458 0.910977 0.365242
v 0.416213 -0.486333 0.816958
v 0.442954 -0.867929 0.315470
v 0.359659 0.174067 0.940767
v 0.257145 0.661925 0.725606
v 0.030263 -0.697522 0.743096
v -0.285759 0.019291 0.995184
v -0.252942 0.477400 0.868012
v -0.334691 -0.413853 0.876021
v -0.210231 0.864203 0.506835
v -0.790454 0.100597 0.650237
v -0.252584 -0.873356 0.486559
v 0.032711 1.003959 0.122551
v -0.686990 0.647346 0.383655
v -0.987730 0.178969 0.198468
v -0.841785 -0.408711 0.426623
v -0.163921 -0.993636 0.134309
v -0.788731 -0.633963 0.106300
v -0.878301 0.461488 -0.240851
v -0.997007 -0.124957 -0.249193
v -0.552760 0.862063 -0.025765
v -0.734941 -0.482260 -0.501465
v -0.821439 0.020447 -0.601856
v -0.506131 -0.879334 -0.146928
v -0.527819 -0.177763 -0.857576
v -0.231748 0.954376 -0.272259
v -0.491203 0.629759 -0.647521
v -0.257315 0.168987 -0.980976
vt 0.735631 0.407385
vt 0.710249 0.239338
vt 0.817553 0.261379
vt 0.743606 0.684543
vt 0.678862 0.536246
vt 0.787834 0.559955
vt 0.705582 0.873825
vt 0.655603 0.724522
vt 0.618008 0.459880
vt 0.594267 0.657713
vt 0.554544 0.513097
vt 0.624540 0.284492
vt 0.521645 0.389624
vt 0.737427 0.093130
vt 0.484640 0.091419
vt 0.578125 0.000000
vt 0.520965 0.804891
vt 0.503569 0.619562
vt 0.425948 0.689306
vt 0.418492 0.494478
vt 0.346945 0.951400
vt 0.348882 0.852897
vt 0.389588 0.375475
vt 0.514387 0.252146
vt 0.304737 0.722004
vt 0.308339 0.548718
vt 0.378985 0.608759
vt 0.399567 0.181658
vt 0.153804 0.070822
vt 0.325056 0.345167
vt 0.255878 0.266255
vt 0.182572 0.187134
vt 0.204152 0.653988
vt 0.207080 0.513086
vt 0.189751 0.368910
vt 0.183057 0.816561
vt 0.109489 0.531026
vt 0.077622 0.375477
vt 0.078754 0.717364
vt 0.021649 0.818520
vt 0.025572 0.279528
vt 0.012615 0.163591
vt 0.037612 0.554680
vt 0.000000 0.406178
vt 0.000000 0.654220
vt 1.000000 0.530835
vt 0.957806 0.652518
vt 0.963902 0.455741
vt 0.905521 0.344192
vt 0.992921 0.296148
vt 0.903984 0.512719
vt 0.943303 0.175188
vt 0.956638 0.038995
vt 0.853675 0.701242
vt 0.877075 0.883736
vt 0.765625 1.000000
vt 0.013014 0.937500
vt 0.971041 0.831626
vt 0.837077 0.446742
vn -0.0390 -0.5525 -0.8326
vn 0.1046 0.2481 -0.9631
vn 0.1065 0.7673 -0.6324
vn 0.4486 -0.2379 -0.8615
vn 0.7322 0.1691 -0.6598
vn 0.7751 -0.3950 -0.4932
vn 0.3655 -0.8782 -0.3085
vn 0.0448 -0.9986 -0.0268
vn 0.7830 0.5878 -0.2036
vn 0.9988 0.0471 -0.0161
vn 0.7712 0.6335 0.0625
vn 0.9926 0.0195 0.1198
vn 0.9125 0.2672 0.3098
vn 0.3086 0.9482 0.0750
vn 0.9061 -0.3202 0.2764
vn 0.8338 -0.4998 0.2345
vn 0.4726 0.7236 0.5031
vn 0.4490 0.4379 0.7789
vn 0.1233 -0.9596 0.2530
vn 0.5717 -0.1036 0.8139
vn 0.1216 -0.8761 0.4665
vn 0.0174 0.2663 0.9637
vn 0.1238 -0.1726 0.9772
vn 0.0496 -0.2701 0.9615
vn 0.1003 0.4191 0.9024
vn 0.0116 0.9373 0.3482
vn -0.2454 -0.6519 0.7174
vn -0.5744 -0.1562 0.8036
vn -0.6432 -0.2526 0.7229
vn -0.4509 0.6352 0.6270
vn -0.5853 0.4421 0.6797
vn -0.2729 0.9466 0.1717
vn -0.5933 -0.7014 0.3950
vn -0.5220 -0.8249 0.2167
vn -0.8287 0.3641 0.4250
vn -0.9719 -0.1848 0.1456
vn -0.7903 0.6097 0.0606
vn -0.9733 0.1986 -0.1147
vn -0.8517 -0.4858 -0.1966
vn -0.9079 0.1891 -0.3740
vn -0.2055 -0.9681 -0.1434
vn -0.8243 -0.2439 -0.5109
vn -0.5548 -0.7088 -0.4357
vn -0.5848 0.2594 -0.7686
vn -0.2515 -0.8903 -0.3796
vn -0.1307 0.7789 -0.6134
vn -0.0103 0.9930 -0.1178
vn 0.0991 0.0708 -0.9926
vn 0.3006 0.4210 -0.8558
vn 0.2977 -0.8667 -0.4004
vn 0.4564 -0.3195 -0.8304
vn 0.3052 -0.4847 -0.8197
vn 0.6048 0.3441 -0.7182
vn 0.7218 0.2874 -0.6296
vn 0.3821 0.8520 -0.3580
vn 0.6217 0.6949 -0.3614
vn 0.7481 -0.5690 -0.3414
vn 0.4430 -0.8558 -0.2673
vn 0.8562 -0.2285 -0.4634
vn 0.2505 0.9644 -0.0844
vn 0.8894 0.3454 -0.2995
vn 0.4936 -0.8690 0.0341
vn 0.7247 -0.6228 0.2947
vn 0.5350 0.8059 0.2536
vn 0.8419 0.2832 0.4594
vn 0.5315 -0.6602 0.5307
vn 0.5273 0.5814 0.6196
vn 0.6438 0.0434 0.7639
vn 0.6234 -0.0525 0.7801
vn 0.2988 -0.7517 0.5879
vn 0.0893 0.8191 0.5667
vn 0.0915 -0.9351 0.3423
vn 0.0352 -0.3866 0.9216
vn -0.0444 0.6844 0.7277
vn -0.5339 -0.6002 0.5956
vn -0.5151 0.2633 0.8157
vn -0.4574 0.8404 0.2908
vn -0.9185 -0.0776 0.3876
vn -0.4458 -0.8754 0.1867
vn -0.2456 0.9684 0.0429
vn -0.9405 -0.3310 0.0770
vn -0.8557 0.5052 0.1118
vn -0.7453 -0.6284 -0.2228
vn -0.6419 0.6953 -0.3233
vn -0.4953 0.7966 -0.3467
vn -0.7454 0.3620 -0.5597
vn -0.7268 -0.2526 -0.6387
vn -0.5800 0.1689 -0.7969
vn -0.5396 -0.4587 -0.7060
vn -0.2216 -0.1689 -0.9604
vn -0.2481 -0.3935 -0.8852
vn -0.1559 0.7978 -0.5824
vn -0.2590 0.4765 -0.8401
vn -0.0641 -0.8558 -0.5134
usemtl None
s off
f 3/1/1 4/2/1 1/3/1
f 2/4/2 5/5/2 49/6/2
f 10/7/3 6/8/3 2/4/3
f 5/5/4 7/9/4 3/1/4
f 11/10/5 12/11/5 5/5/5
f 8/12/6 7/9/6 15/13/6
f 9/14/7 8/12/7 21/15/7
f 38/16/8 9/14/8 21/15/8
f 11/10/9 14/17/9 13/18/9
f 12/11/10 13/18/10 15/13/10
f 13/18/11 14/17/11 18/19/11
f 15/13/12 13/18/12 17/20/12
f 13/18/13 18/19/13 17/20/13
f 34/21/14 22/22/14 14/17/14
f 15/13/15 17/20/15 20/23/15
f 15/13/16 20/23/16 16/24/16
f 22/22/17 26/25/17 18/19/17
f 26/25/18 25/26/18 19/27/18
f 21/15/19 24/28/19 38/29/19
f 25/26/20 23/30/20 20/23/20
f 24/28/21 27/31/21 33/32/21
f 25/26/22 29/33/22 28/34/22
f 25/26/23 28/34/23 23/30/23
f 23/30/24 28/34/24 30/35/24
f 26/25/25 29/33/25 25/26/25
f 34/21/26 31/36/26 22/22/26
f 30/35/27 33/32/27 27/31/27
f 28/34/28 32/37/28 30/35/28
f 30/35/29 32/37/29 37/38/29
f 31/36/30 35/39/30 29/33/30
f 29/33/31 35/39/31 32/37/31
f 34/21/32 42/40/32 31/36/32
f 37/38/33 39/41/33 33/32/33
f 33/32/34 39/41/34 45/42/34
f 32/37/35 35/39/35 36/43/35
f 36/43/36 41/44/36 37/38/36
f 35/39/37 42/40/37 40/45/37
f 36/46/38 40/47/38 41/48/38
f 41/48/39 43/49/39 39/50/39
f 41/48/40 40/47/40 44/51/40
f 45/52/41 9/14/41 38/53/41
f 41/48/42 44/51/42 43/49/42
f 43/49/43 1/3/43 45/52/43
f 44/51/44 48/54/44 49/6/44
f 1/3/45 9/14/45 45/52/45
f 48/54/46 10/7/46 2/4/46
f 47/55/47 34/56/47 10/7/47
f 49/6/48 5/5/48 3/1/48
f 5/5/49 2/4/49 6/8/49
f 4/2/50 8/12/50 9/14/50
f 3/1/51 7/9/51 8/12/51
f 4/2/52 3/1/52 8/12/52
f 6/8/53 11/10/53 5/5/53
f 7/9/54 5/5/54 12/11/54
f 10/7/55 14/17/55 6/8/55
f 11/10/56 6/8/56 14/17/56
f 8/12/57 15/13/57 16/24/57
f 21/15/58 8/12/58 16/24/58
f 7/9/59 12/11/59 15/13/59
f 10/7/60 34/21/60 14/17/60
f 12/11/61 11/10/61 13/18/61
f 16/24/62 24/28/62 21/15/62
f 16/24/63 20/23/63 24/28/63
f 14/17/64 22/22/64 18/19/64
f 17/20/65 18/19/65 19/27/65
f 24/28/66 20/23/66 23/30/66
f 18/19/67 26/25/67 19/27/67
f 17/20/68 19/27/68 25/26/68
f 17/20/69 25/26/69 20/23/69
f 24/28/70 23/30/70 27/31/70
f 22/22/71 31/36/71 26/25/71
f 38/29/72 24/28/72 33/32/72
f 23/30/73 30/35/73 27/31/73
f 29/33/74 26/25/74 31/36/74
f 30/35/75 37/38/75 33/32/75
f 28/34/76 29/33/76 32/37/76
f 31/36/77 42/40/77 35/39/77
f 32/37/78 36/43/78 37/38/78
f 33/32/79 45/42/79 38/29/79
f 34/21/80 47/57/80 42/40/80
f 37/38/81 41/44/81 39/41/81
f 36/43/82 35/39/82 40/45/82
f 39/50/83 43/49/83 45/52/83
f 40/47/84 42/58/84 48/54/84
f 42/58/85 47/55/85 48/54/85
f 44/51/86 40/47/86 48/54/86
f 44/51/87 46/59/87 43/49/87
f 46/59/88 44/51/88 49/6/88
f 43/49/89 46/59/89 1/3/89
f 46/59/90 49/6/90 3/1/90
f 46/59/91 3/1/91 1/3/91
f 47/55/92 10/7/92 48/54/92
f 49/6/93 48/54/93 2/4/93
f 1/3/94 4/2/94 9/14/94
