# Blender v3.0.1 OBJ File: ''
# www.blender.org
mtllib test3.mtl
o Cube
v 1.000000 1.000000 -1.000000
v 1.000000 -1.000000 -1.000000
v 1.000000 1.000000 1.000000
v 1.000000 -1.000000 1.000000
v -1.000000 1.000000 -1.000000
v -1.000000 -1.000000 -1.000000
v -1.000000 1.000000 1.000000
v -1.000000 -1.000000 1.000000
v 0.000000 1.000000 1.000000
v 1.000000 1.000000 0.000000
v -1.000000 1.000000 0.000000
v 0.000000 1.000000 -1.000000
v 0.282308 1.813976 0.189993
v -0.500000 1.000000 1.000000
v 1.000000 1.000000 0.500000
v -1.000000 1.000000 -0.500000
v 0.500000 1.000000 -1.000000
v 0.500000 1.000000 1.000000
v 1.000000 1.000000 -0.500000
v -1.000000 1.000000 0.500000
v -0.500000 1.000000 -1.000000
v 0.000000 1.000000 0.500000
v 0.000000 1.000000 -0.500000
v 0.500000 1.000000 0.000000
v -0.500000 1.000000 0.000000
v -0.500000 1.000000 -0.500000
v 0.500000 1.000000 -0.500000
v 0.500000 0.484421 0.500000
v -0.500000 1.000000 0.500000
v -0.500000 1.000000 -0.250000
vt 0.812500 0.687500
vt 0.875000 0.687500
vt 0.875000 0.750000
vt 0.812500 0.750000
vt 0.375000 0.750000
vt 0.625000 0.750000
vt 0.625000 0.812500
vt 0.625000 0.875000
vt 0.625000 0.937500
vt 0.625000 1.000000
vt 0.375000 1.000000
vt 0.375000 0.000000
vt 0.625000 0.000000
vt 0.625000 0.062500
vt 0.625000 0.125000
vt 0.625000 0.187500
vt 0.625000 0.250000
vt 0.375000 0.250000
vt 0.125000 0.500000
vt 0.375000 0.500000
vt 0.125000 0.750000
vt 0.625000 0.500000
vt 0.625000 0.562500
vt 0.625000 0.625000
vt 0.625000 0.687500
vt 0.625000 0.312500
vt 0.625000 0.375000
vt 0.625000 0.437500
vt 0.687500 0.687500
vt 0.750000 0.687500
vt 0.750000 0.750000
vt 0.687500 0.750000
vt 0.687500 0.562500
vt 0.750000 0.562500
vt 0.750000 0.625000
vt 0.687500 0.625000
vt 0.812500 0.562500
vt 0.875000 0.562500
vt 0.875000 0.625000
vt 0.812500 0.625000
vt 0.812500 0.593750
vt 0.750000 0.500000
vt 0.812500 0.500000
vt 0.875000 0.500000
vt 0.687500 0.500000
vn 0.0000 1.0000 0.0000
vn 0.0000 0.0000 1.0000
vn -1.0000 0.0000 0.0000
vn 0.0000 -1.0000 0.0000
vn 1.0000 0.0000 0.0000
vn 0.0000 0.0000 -1.0000
vn 0.4166 0.8080 -0.4166
vn 0.5553 0.6192 -0.5553
vn -0.4355 0.7878 -0.4355
vn -0.4166 0.8080 -0.4166
vn -0.4166 0.8080 0.4166
vn 0.6808 0.2702 0.6808
vn -0.5129 0.6883 0.5129
usemtl Material
s off
f 29/1/1 20/2/1 7/3/1 14/4/1
f 4/5/2 3/6/2 18/7/2 9/8/2 14/9/2 7/10/2 8/11/2
f 8/12/3 7/13/3 20/14/3 11/15/3 16/16/3 5/17/3 6/18/3
f 6/19/4 2/20/4 4/5/4 8/21/4
f 2/20/5 1/22/5 19/23/5 10/24/5 15/25/5 3/6/5 4/5/5
f 6/18/6 5/17/6 21/26/6 12/27/6 17/28/6 1/22/6 2/20/6
f 28/29/7 22/30/7 9/31/7 18/32/7
f 27/33/8 23/34/8 13/35/8 24/36/8
f 26/37/1 16/38/1 11/39/1 25/40/1 30/41/1
f 23/34/9 26/37/9 30/41/9 25/40/9 13/35/9
f 12/42/1 21/43/1 26/37/1 23/34/1
f 21/43/1 5/44/1 16/38/1 26/37/1
f 19/23/1 27/33/1 24/36/1 10/24/1
f 1/22/1 17/45/1 27/33/1 19/23/1
f 17/45/1 12/42/1 23/34/1 27/33/1
f 15/25/10 28/29/10 18/32/10 3/6/10
f 10/24/11 24/36/11 28/29/11 15/25/11
f 24/36/12 13/35/12 22/30/12 28/29/12
f 22/30/1 29/1/1 14/4/1 9/31/1
f 13/35/13 25/40/13 29/1/13 22/30/13
f 25/40/1 11/39/1 20/2/1 29/1/1
