# Blender v3.0.1 OBJ File: ''
# www.blender.org
mtllib glass2.mtl
o Cube_Cube.001
v 0.707264 -0.082737 1.077277
v 0.707264 1.352736 1.077277
v 0.707264 -0.082737 -0.477277
v 0.707264 1.352736 -0.477277
v 0.752737 -0.082737 1.077277
v 0.752737 1.352736 1.077277
v 0.752737 -0.082737 -0.477277
v 0.752737 1.352736 -0.477277
v 0.707264 -0.082737 1.077277
v 0.707264 1.352736 1.077277
v 0.707264 -0.082737 -0.477277
v 0.707264 1.352736 -0.477277
v 0.752737 -0.082737 1.077277
v 0.752737 1.352736 1.077277
v 0.752737 -0.082737 -0.477277
v 0.752737 1.352736 -0.477277
v -0.822737 -0.082737 1.077277
v -0.822737 1.352736 1.077277
v -0.822737 -0.082737 -0.477277
v -0.822737 1.352736 -0.477277
v -0.777264 -0.082737 1.077277
v -0.777264 1.352736 1.077277
v -0.777264 -0.082737 -0.477277
v -0.777264 1.352736 -0.477277
v -0.822737 -0.082737 1.077277
v -0.822737 1.352736 1.077277
v -0.822737 -0.082737 -0.477277
v -0.822737 1.352736 -0.477277
v -0.777264 -0.082737 1.077277
v -0.777264 1.352736 1.077277
v -0.777264 -0.082737 -0.477277
v -0.777264 1.352736 -0.477277
v 0.727736 -0.082737 -0.432264
v 0.727736 1.352736 -0.432264
v -0.777737 -0.082737 -0.432263
v -0.777737 1.352736 -0.432263
v 0.727736 -0.082737 -0.477737
v 0.727736 1.352736 -0.477737
v -0.777737 -0.082737 -0.477737
v -0.777737 1.352736 -0.477737
v 0.727736 -0.082737 -0.432264
v 0.727736 1.352736 -0.432264
v -0.777737 -0.082737 -0.432263
v -0.777737 1.352736 -0.432263
v 0.727736 -0.082737 -0.477737
v 0.727736 1.352736 -0.477737
v -0.777737 -0.082737 -0.477737
v -0.777737 1.352736 -0.477737
v 0.753395 -0.082737 1.097737
v 0.753395 1.352736 1.097737
v -0.822593 -0.082737 1.097737
v -0.822593 1.352736 1.097737
v 0.753395 -0.082737 1.052263
v 0.753395 1.352736 1.052263
v -0.822593 -0.082737 1.052264
v -0.822593 1.352736 1.052264
v -0.822593 -0.082737 1.097737
v -0.822593 1.352736 1.097737
v -0.822593 -0.082737 1.052264
v -0.822593 1.352736 1.052264
v 0.752737 -0.117645 -0.477277
v -0.822737 -0.117645 -0.477277
v 0.753395 -0.117645 1.097737
v -0.822593 -0.117645 1.097737
vt 0.375000 0.000000
vt 0.625000 0.000000
vt 0.625000 0.250000
vt 0.375000 0.250000
vt 0.625000 0.500000
vt 0.375000 0.500000
vt 0.625000 0.750000
vt 0.375000 0.750000
vt 0.625000 1.000000
vt 0.375000 1.000000
vt 0.125000 0.500000
vt 0.125000 0.750000
vt 0.875000 0.500000
vt 0.875000 0.750000
vt 0.375000 0.000000
vt 0.625000 0.000000
vt 0.625000 0.250000
vt 0.375000 0.250000
vt 0.625000 0.500000
vt 0.375000 0.500000
vt 0.625000 0.750000
vt 0.375000 0.750000
vt 0.625000 1.000000
vt 0.375000 1.000000
vt 0.125000 0.500000
vt 0.125000 0.750000
vt 0.875000 0.500000
vt 0.875000 0.750000
vt 0.375000 0.000000
vt 0.625000 0.000000
vt 0.625000 0.250000
vt 0.375000 0.250000
vt 0.625000 0.500000
vt 0.375000 0.500000
vt 0.625000 0.750000
vt 0.375000 0.750000
vt 0.625000 1.000000
vt 0.375000 1.000000
vt 0.125000 0.500000
vt 0.125000 0.750000
vt 0.875000 0.500000
vt 0.875000 0.750000
vt 0.375000 0.000000
vt 0.625000 0.000000
vt 0.625000 0.250000
vt 0.375000 0.250000
vt 0.625000 0.500000
vt 0.375000 0.500000
vt 0.625000 0.750000
vt 0.375000 0.750000
vt 0.625000 1.000000
vt 0.375000 1.000000
vt 0.125000 0.500000
vt 0.125000 0.750000
vt 0.875000 0.500000
vt 0.875000 0.750000
vt 0.000000 0.000000
vt 0.000000 0.000000
vt 0.000000 0.000000
vt 0.000000 0.000000
vt 0.000000 0.000000
vt 0.000000 0.000000
vt 0.000000 0.000000
vt 0.000000 0.000000
vn -1.0000 0.0000 0.0000
vn 0.0000 0.0000 -1.0000
vn 1.0000 0.0000 0.0000
vn 0.0000 0.0000 1.0000
vn 0.0000 -1.0000 0.0000
vn 0.0000 1.0000 0.0000
vn -1.0000 0.0000 0.0004
vn 1.0000 0.0000 -0.0001
usemtl None
s off
f 1/1/1 2/2/1 4/3/1 3/4/1
f 3/4/2 4/3/2 8/5/2 7/6/2
f 7/6/3 8/5/3 6/7/3 5/8/3
f 5/8/4 6/7/4 2/9/4 1/10/4
f 3/11/5 7/6/5 5/8/5 1/12/5
f 8/5/6 4/13/6 2/14/6 6/7/6
f 17/15/1 18/16/1 20/17/1 19/18/1
f 19/18/2 20/17/2 24/19/2 23/20/2
f 23/20/3 24/19/3 22/21/3 21/22/3
f 21/22/4 22/21/4 18/23/4 17/24/4
f 19/25/5 23/20/5 21/22/5 17/26/5
f 24/19/6 20/27/6 18/28/6 22/21/6
f 33/29/4 34/30/4 36/31/4 35/32/4
f 35/32/1 36/31/1 40/33/1 39/34/1
f 39/34/2 40/33/2 38/35/2 37/36/2
f 37/36/3 38/35/3 34/37/3 33/38/3
f 35/39/5 39/34/5 37/36/5 33/40/5
f 40/33/6 36/41/6 34/42/6 38/35/6
f 49/43/4 50/44/4 52/45/4 51/46/4
f 51/46/1 52/45/1 56/47/1 55/48/1
f 55/48/2 56/47/2 54/49/2 53/50/2
f 53/50/3 54/49/3 50/51/3 49/52/3
f 51/53/5 55/48/5 53/50/5 49/54/5
f 56/47/6 52/55/6 50/56/6 54/49/6
f 57/57/5 27/58/5 15/59/5 49/60/5
f 64/61/6 63/62/6 61/63/6 62/64/6
f 49/60/7 15/59/7 61/63/7 63/62/7
f 15/59/4 27/58/4 62/64/4 61/63/4
f 57/57/2 49/60/2 63/62/2 64/61/2
f 27/58/8 57/57/8 64/61/8 62/64/8
l 1 9
l 2 10
l 3 11
l 4 12
l 5 13
l 6 14
l 7 15
l 8 16
l 17 25
l 18 26
l 19 27
l 20 28
l 21 29
l 22 30
l 23 31
l 24 32
l 33 41
l 34 42
l 35 43
l 36 44
l 37 45
l 38 46
l 39 47
l 40 48
l 51 57
l 52 58
l 55 59
l 56 60
