# Blender v3.0.1 OBJ File: ''
# www.blender.org
mtllib rock2.mtl
o Icosphere.024_Icosphere.025
v -0.689717 0.241195 0.590671
v -0.688381 0.210744 0.609452
v -0.726507 0.213476 0.601520
v -0.720774 0.217649 0.557941
v -0.683833 0.217297 0.545376
v -0.663782 0.213028 0.577230
v -0.687516 0.230383 0.610207
v -0.687296 0.221335 0.612765
v -0.719147 0.232481 0.605653
v -0.726654 0.224046 0.605902
v -0.712464 0.235747 0.570256
v -0.719681 0.228241 0.561260
v -0.683306 0.235653 0.556721
v -0.682679 0.227971 0.547049
v -0.662339 0.223684 0.579084
v -0.667166 0.232296 0.581863
v 0.429981 0.301994 0.814632
v 0.468102 0.194944 0.931958
v 0.330177 0.194944 0.887143
v 0.330177 0.194944 0.742121
v 0.468102 0.194944 0.697306
v 0.553347 0.194944 0.814632
v 0.459681 0.269816 0.906042
v 0.468102 0.236833 0.931958
v 0.352223 0.269816 0.871126
v 0.330177 0.236833 0.887143
v 0.352223 0.269816 0.758138
v 0.330177 0.236833 0.742121
v 0.459681 0.269816 0.723222
v 0.468102 0.236833 0.697305
v 0.553347 0.236833 0.814632
v 0.526096 0.269816 0.814632
v 0.523975 0.337923 0.714371
v 0.601260 0.209455 0.588098
v 0.667950 0.209455 0.748852
v 0.535674 0.209455 0.861954
v 0.387230 0.209455 0.771102
v 0.427764 0.209455 0.601848
v 0.584188 0.299306 0.615991
v 0.601260 0.259725 0.588098
v 0.636147 0.299306 0.741235
v 0.667950 0.259725 0.748852
v 0.533090 0.299306 0.829354
v 0.535674 0.259725 0.861954
v 0.417436 0.299306 0.758570
v 0.387230 0.259725 0.771102
v 0.427764 0.259725 0.601848
v 0.449016 0.299306 0.626703
v 0.573009 0.300551 0.853797
v 0.636445 0.195104 0.750152
v 0.691184 0.195104 0.882100
v 0.582611 0.195104 0.974935
v 0.460768 0.195104 0.900363
v 0.494037 0.195104 0.761437
v 0.622432 0.268854 0.773046
v 0.636445 0.236365 0.750152
v 0.665080 0.268854 0.875848
v 0.691184 0.236365 0.882100
v 0.580490 0.268854 0.948176
v 0.582611 0.236365 0.974935
v 0.485561 0.268854 0.890077
v 0.460768 0.236365 0.900363
v 0.494037 0.236365 0.761437
v 0.511482 0.268854 0.781839
v 0.327194 0.468787 0.132726
v 0.363488 0.415904 0.152893
v 0.309339 0.416466 0.202314
v 0.248703 0.415833 0.145762
v 0.270015 0.415453 0.075650
v 0.341017 0.415499 0.080032
v 0.361455 0.452759 0.151293
v 0.367467 0.436417 0.154258
v 0.319635 0.453323 0.194514
v 0.313598 0.437063 0.206725
v 0.272617 0.452731 0.145494
v 0.252699 0.436348 0.147120
v 0.283921 0.452039 0.086196
v 0.271566 0.435791 0.075114
v 0.343163 0.435864 0.079252
v 0.340304 0.452124 0.089173
v 0.343711 0.449691 0.186191
v 0.353706 0.416452 0.162083
v 0.388443 0.416806 0.192358
v 0.357471 0.416408 0.234271
v 0.312164 0.416169 0.225984
v 0.309816 0.416198 0.181332
v 0.352852 0.439617 0.163468
v 0.354273 0.429346 0.159501
v 0.382835 0.439972 0.186487
v 0.390893 0.429752 0.189383
v 0.355592 0.439600 0.219357
v 0.358033 0.429302 0.231679
v 0.317753 0.439165 0.216545
v 0.311718 0.428952 0.225053
v 0.309175 0.428998 0.180048
v 0.315575 0.439218 0.181123
v 0.283969 0.449691 0.199769
v 0.266412 0.416452 0.180460
v 0.308596 0.416806 0.161920
v 0.333332 0.416408 0.207791
v 0.306541 0.416169 0.245257
v 0.265140 0.416198 0.228368
v 0.267301 0.439617 0.181822
v 0.264317 0.429346 0.178847
v 0.300897 0.439972 0.164495
v 0.306947 0.429752 0.158437
v 0.319037 0.439600 0.203142
v 0.331226 0.429302 0.206179
v 0.300381 0.439165 0.236181
v 0.305509 0.428952 0.245265
v 0.263705 0.428998 0.228402
v 0.267403 0.439218 0.223069
v -0.455721 0.254197 0.104553
v -0.442091 0.208868 0.071677
v -0.394719 0.209350 0.112963
v -0.436956 0.208808 0.170121
v -0.498742 0.208482 0.158819
v -0.501943 0.208521 0.097927
v -0.443255 0.240459 0.073565
v -0.441317 0.226451 0.068155
v -0.402366 0.240942 0.104957
v -0.391378 0.227005 0.108906
v -0.439519 0.240435 0.149782
v -0.436190 0.226392 0.166586
v -0.491120 0.239842 0.145947
v -0.499350 0.225914 0.157550
v -0.502817 0.225977 0.096176
v -0.494090 0.239914 0.097642
v -0.537192 0.249414 0.123069
v -0.561135 0.204085 0.096738
v -0.503607 0.204568 0.071455
v -0.469875 0.204025 0.134010
v -0.506410 0.203699 0.185102
v -0.562869 0.203738 0.162071
v -0.559922 0.235676 0.098595
v -0.563991 0.221669 0.094539
v -0.514107 0.236159 0.074966
v -0.505856 0.222222 0.066705
v -0.489369 0.235652 0.127669
v -0.472747 0.221609 0.131812
v -0.514811 0.235059 0.172725
v -0.507817 0.221131 0.185112
v -0.564825 0.221194 0.162116
v -0.559783 0.235131 0.154844
v -0.703215 0.234620 -0.130622
v -0.723167 0.206155 -0.122050
v -0.731999 0.210930 -0.159775
v -0.689990 0.210345 -0.173353
v -0.663007 0.205998 -0.145503
v -0.683515 0.203406 -0.113760
v -0.721094 0.225654 -0.120456
v -0.724390 0.216911 -0.119376
v -0.730257 0.229648 -0.150882
v -0.734706 0.221863 -0.157750
v -0.695287 0.228898 -0.160089
v -0.691214 0.221101 -0.170670
v -0.670724 0.225292 -0.139666
v -0.662720 0.216668 -0.143475
v -0.683269 0.214056 -0.111393
v -0.686776 0.223236 -0.114327
v -0.660446 0.224124 -0.113074
v -0.659110 0.193672 -0.094293
v -0.697237 0.196404 -0.102225
v -0.691503 0.200578 -0.145804
v -0.654562 0.200226 -0.158369
v -0.634512 0.195956 -0.126515
v -0.658245 0.213312 -0.093538
v -0.658026 0.204264 -0.090980
v -0.689876 0.215410 -0.098092
v -0.697383 0.206975 -0.097844
v -0.683193 0.218676 -0.133489
v -0.690410 0.211169 -0.142485
v -0.654035 0.218582 -0.147024
v -0.653408 0.210899 -0.156696
v -0.633068 0.206612 -0.124661
v -0.637895 0.215224 -0.121882
v 0.062645 0.416036 -0.062176
v 0.126841 0.444817 -0.099170
v 0.164777 0.417998 -0.086506
v 0.127335 0.416579 -0.035595
v 0.073479 0.415533 -0.050020
v 0.067722 0.415810 -0.118701
v 0.127934 0.417523 -0.137868
v 0.154158 0.436794 -0.092268
v 0.095267 0.442651 -0.062947
v 0.078906 0.435097 -0.117231
v 0.124343 0.435524 -0.128268
v 0.068350 0.433521 -0.075972
v 0.129684 0.434811 -0.046097
v 0.153766 0.419914 -0.117522
v 0.094993 0.418589 -0.137019
v 0.058307 0.417198 -0.087137
v 0.089718 0.418145 -0.036970
v 0.153404 0.419342 -0.055590
vt 0.181819 0.314921
vt 0.000000 0.314921
vt 0.000000 0.314921
vt 0.181819 0.314921
vt 0.909091 0.314921
vt 0.727273 0.314921
vt 0.727273 0.314921
vt 0.909091 0.314921
vt 0.545455 0.314921
vt 0.545455 0.314921
vt 0.363637 0.314921
vt 0.363637 0.314921
vt 0.565536 0.349703
vt 0.707192 0.349703
vt 0.636364 0.472382
vt 0.020081 0.349703
vt 0.161738 0.349703
vt 0.090910 0.472382
vt 0.383718 0.349703
vt 0.525374 0.349703
vt 0.454546 0.472382
vt 0.747354 0.349703
vt 0.889010 0.349703
vt 0.818182 0.472382
vt 0.201900 0.349703
vt 0.343556 0.349703
vt 0.272728 0.472382
vt 0.181819 0.314921
vt 0.000000 0.314921
vt 0.000000 0.314921
vt 0.181819 0.314921
vt 0.909091 0.314921
vt 0.727273 0.314921
vt 0.727273 0.314921
vt 0.909091 0.314921
vt 0.545455 0.314921
vt 0.545455 0.314921
vt 0.363637 0.314921
vt 0.363637 0.314921
vt 0.565536 0.349703
vt 0.707192 0.349703
vt 0.636364 0.472382
vt 0.020081 0.349703
vt 0.161738 0.349703
vt 0.090910 0.472382
vt 0.383718 0.349703
vt 0.525374 0.349703
vt 0.454546 0.472382
vt 0.747354 0.349703
vt 0.889010 0.349703
vt 0.818182 0.472382
vt 0.201900 0.349703
vt 0.343556 0.349703
vt 0.272728 0.472382
vt 0.181819 0.314921
vt 0.000000 0.314921
vt 0.000000 0.314921
vt 0.181819 0.314921
vt 0.909091 0.314921
vt 0.727273 0.314921
vt 0.727273 0.314921
vt 0.909091 0.314921
vt 0.545455 0.314921
vt 0.545455 0.314921
vt 0.363637 0.314921
vt 0.363637 0.314921
vt 0.565536 0.349703
vt 0.707192 0.349703
vt 0.636364 0.472382
vt 0.020081 0.349703
vt 0.161738 0.349703
vt 0.090910 0.472382
vt 0.383718 0.349703
vt 0.525374 0.349703
vt 0.454546 0.472382
vt 0.747354 0.349703
vt 0.889010 0.349703
vt 0.818182 0.472382
vt 0.201900 0.349703
vt 0.343556 0.349703
vt 0.272728 0.472382
vt 0.181819 0.314921
vt 0.000000 0.314921
vt 0.000000 0.314921
vt 0.181819 0.314921
vt 0.909091 0.314921
vt 0.727273 0.314921
vt 0.727273 0.314921
vt 0.909091 0.314921
vt 0.545455 0.314921
vt 0.545455 0.314921
vt 0.363637 0.314921
vt 0.363637 0.314921
vt 0.565536 0.349703
vt 0.707192 0.349703
vt 0.636364 0.472382
vt 0.020081 0.349703
vt 0.161738 0.349703
vt 0.090910 0.472382
vt 0.383718 0.349703
vt 0.525374 0.349703
vt 0.454546 0.472382
vt 0.747354 0.349703
vt 0.889010 0.349703
vt 0.818182 0.472382
vt 0.201900 0.349703
vt 0.343556 0.349703
vt 0.272728 0.472382
vt 0.181819 0.314921
vt 0.000000 0.314921
vt 0.000000 0.314921
vt 0.181819 0.314921
vt 0.909091 0.314921
vt 0.727273 0.314921
vt 0.727273 0.314921
vt 0.909091 0.314921
vt 0.545455 0.314921
vt 0.545455 0.314921
vt 0.363637 0.314921
vt 0.363637 0.314921
vt 0.565536 0.349703
vt 0.707192 0.349703
vt 0.636364 0.472382
vt 0.020081 0.349703
vt 0.161738 0.349703
vt 0.090910 0.472382
vt 0.383718 0.349703
vt 0.525374 0.349703
vt 0.454546 0.472382
vt 0.747354 0.349703
vt 0.889010 0.349703
vt 0.818182 0.472382
vt 0.201900 0.349703
vt 0.343556 0.349703
vt 0.272728 0.472382
vt 0.181819 0.314921
vt 0.000000 0.314921
vt 0.000000 0.314921
vt 0.181819 0.314921
vt 0.909091 0.314921
vt 0.727273 0.314921
vt 0.727273 0.314921
vt 0.909091 0.314921
vt 0.545455 0.314921
vt 0.545455 0.314921
vt 0.363637 0.314921
vt 0.363637 0.314921
vt 0.565536 0.349703
vt 0.707192 0.349703
vt 0.636364 0.472382
vt 0.020081 0.349703
vt 0.161738 0.349703
vt 0.090910 0.472382
vt 0.383718 0.349703
vt 0.525374 0.349703
vt 0.454546 0.472382
vt 0.747354 0.349703
vt 0.889010 0.349703
vt 0.818182 0.472382
vt 0.201900 0.349703
vt 0.343556 0.349703
vt 0.272728 0.472382
vt 0.181819 0.314921
vt 0.000000 0.314921
vt 0.000000 0.314921
vt 0.181819 0.314921
vt 0.909091 0.314921
vt 0.727273 0.314921
vt 0.727273 0.314921
vt 0.909091 0.314921
vt 0.545455 0.314921
vt 0.545455 0.314921
vt 0.363637 0.314921
vt 0.363637 0.314921
vt 0.565536 0.349703
vt 0.707192 0.349703
vt 0.636364 0.472382
vt 0.020081 0.349703
vt 0.161738 0.349703
vt 0.090910 0.472382
vt 0.383718 0.349703
vt 0.525374 0.349703
vt 0.454546 0.472382
vt 0.747354 0.349703
vt 0.889010 0.349703
vt 0.818182 0.472382
vt 0.201900 0.349703
vt 0.343556 0.349703
vt 0.272728 0.472382
vt 0.181819 0.314921
vt 0.000000 0.314921
vt 0.000000 0.314921
vt 0.181819 0.314921
vt 0.909091 0.314921
vt 0.727273 0.314921
vt 0.727273 0.314921
vt 0.909091 0.314921
vt 0.545455 0.314921
vt 0.545455 0.314921
vt 0.363637 0.314921
vt 0.363637 0.314921
vt 0.565536 0.349703
vt 0.707192 0.349703
vt 0.636364 0.472382
vt 0.020081 0.349703
vt 0.161738 0.349703
vt 0.090910 0.472382
vt 0.383718 0.349703
vt 0.525374 0.349703
vt 0.454546 0.472382
vt 0.747354 0.349703
vt 0.889010 0.349703
vt 0.818182 0.472382
vt 0.201900 0.349703
vt 0.343556 0.349703
vt 0.272728 0.472382
vt 0.181819 0.314921
vt 0.000000 0.314921
vt 0.000000 0.314921
vt 0.181819 0.314921
vt 0.909091 0.314921
vt 0.727273 0.314921
vt 0.727273 0.314921
vt 0.909091 0.314921
vt 0.545455 0.314921
vt 0.545455 0.314921
vt 0.363637 0.314921
vt 0.363637 0.314921
vt 0.565536 0.349703
vt 0.707192 0.349703
vt 0.636364 0.472382
vt 0.020081 0.349703
vt 0.161738 0.349703
vt 0.090910 0.472382
vt 0.383718 0.349703
vt 0.525374 0.349703
vt 0.454546 0.472382
vt 0.747354 0.349703
vt 0.889010 0.349703
vt 0.818182 0.472382
vt 0.201900 0.349703
vt 0.343556 0.349703
vt 0.272728 0.472382
vt 0.181819 0.314921
vt 0.000000 0.314921
vt 0.000000 0.314921
vt 0.181819 0.314921
vt 0.909091 0.314921
vt 0.727273 0.314921
vt 0.727273 0.314921
vt 0.909091 0.314921
vt 0.545455 0.314921
vt 0.545455 0.314921
vt 0.363637 0.314921
vt 0.363637 0.314921
vt 0.565536 0.349703
vt 0.707192 0.349703
vt 0.636364 0.472382
vt 0.020081 0.349703
vt 0.161738 0.349703
vt 0.090910 0.472382
vt 0.383718 0.349703
vt 0.525374 0.349703
vt 0.454546 0.472382
vt 0.747354 0.349703
vt 0.889010 0.349703
vt 0.818182 0.472382
vt 0.201900 0.349703
vt 0.343556 0.349703
vt 0.272728 0.472382
vt 0.181819 0.314921
vt 0.000000 0.314921
vt 0.000000 0.314921
vt 0.181819 0.314921
vt 0.909091 0.314921
vt 0.727273 0.314921
vt 0.727273 0.314921
vt 0.909091 0.314921
vt 0.545455 0.314921
vt 0.545455 0.314921
vt 0.363637 0.314921
vt 0.363637 0.314921
vt 0.565536 0.349703
vt 0.707192 0.349703
vt 0.636364 0.472382
vt 0.020081 0.349703
vt 0.161738 0.349703
vt 0.090910 0.472382
vt 0.383718 0.349703
vt 0.525374 0.349703
vt 0.454546 0.472382
vt 0.747354 0.349703
vt 0.889010 0.349703
vt 0.818182 0.472382
vt 0.201900 0.349703
vt 0.343556 0.349703
vt 0.272728 0.472382
vt 0.000000 0.314921
vt 0.087633 0.281367
vt 0.022727 0.354286
vt 0.399861 0.339148
vt 0.548303 0.336318
vt 0.466131 0.408087
vt 0.615542 0.409161
vt 0.709402 0.339148
vt 0.659091 0.433017
vt 0.844765 0.339324
vt 0.852039 0.397511
vt 0.079977 0.390577
vt 0.144284 0.336922
vt 0.227273 0.393651
vt 0.217332 0.333439
vt 0.272728 0.408780
vt 0.321858 0.367322
vt 0.363638 0.275556
vt 0.454546 0.275556
vt 0.545455 0.275556
vt 0.636364 0.275556
vt 0.727274 0.275556
vt 0.818180 0.275556
vt 0.886366 0.275490
vt 0.022727 0.275556
vt 0.181818 0.275556
vt 0.272729 0.275556
vn -0.1994 -0.3270 0.9237
vn -0.9867 0.0926 -0.1333
vn -0.3279 0.2486 -0.9114
vn 0.8443 -0.0142 -0.5357
vn -0.0781 0.9815 -0.1750
vn -0.0119 0.8743 0.4852
vn 0.3350 0.9379 -0.0898
vn -0.2655 0.9633 0.0387
vn 0.4654 0.7956 0.3878
vn 0.7813 0.2159 0.5856
vn -0.1410 0.2139 0.9666
vn -0.7174 0.6943 -0.0577
vn -0.2319 0.7930 -0.5633
vn 0.7359 0.5490 -0.3961
vn 0.7851 -0.2330 0.5740
vn -0.3090 0.0000 0.9511
vn -1.0000 -0.0000 0.0000
vn -0.3090 -0.0000 -0.9511
vn 0.8090 -0.0000 -0.5878
vn -0.1182 0.9240 -0.3637
vn -0.1182 0.9240 0.3637
vn 0.3094 0.9240 -0.2248
vn -0.3824 0.9240 -0.0000
vn 0.3094 0.9240 0.2248
vn 0.6726 0.5557 0.4887
vn -0.2569 0.5557 0.7907
vn -0.8314 0.5557 -0.0000
vn -0.2569 0.5557 -0.7907
vn 0.6726 0.5557 -0.4887
vn 0.8090 -0.0000 0.5878
vn 0.9237 0.0000 -0.3832
vn 0.6499 0.0000 0.7600
vn -0.5220 -0.0000 0.8529
vn -0.9725 -0.0000 -0.2329
vn -0.1996 0.9240 0.3261
vn 0.3532 0.9240 -0.1465
vn -0.3719 0.9240 -0.0891
vn 0.2485 0.9240 0.2906
vn -0.0302 0.9240 -0.3812
vn -0.0657 0.5557 -0.8288
vn 0.7679 0.5557 -0.3186
vn 0.5403 0.5557 0.6319
vn -0.4340 0.5557 0.7091
vn -0.8085 0.5557 -0.1936
vn -0.0790 -0.0000 -0.9969
vn 0.6659 -0.2330 0.7087
vn -0.6907 0.0373 0.7222
vn -0.9533 0.1349 -0.2704
vn 0.0596 -0.0377 -0.9975
vn -0.2961 0.9528 -0.0676
vn 0.2868 0.9205 0.2655
vn 0.0172 0.9356 -0.3527
vn -0.2305 0.9502 0.2096
vn 0.4941 0.8512 -0.1769
vn 0.9017 0.3097 -0.3016
vn 0.6739 0.3114 0.6700
vn -0.5405 0.6541 0.5291
vn -0.6776 0.7173 -0.1625
vn 0.0463 0.5325 -0.8452
vn 0.9447 -0.1373 -0.2979
vn 0.6283 -0.2330 -0.7423
vn 0.7962 0.0373 0.6039
vn -0.1600 0.1349 0.9779
vn -0.9978 -0.0377 0.0544
vn -0.0334 0.9528 0.3019
vn 0.2311 0.9205 -0.3151
vn -0.3524 0.9356 0.0231
vn 0.2345 0.9502 0.2051
vn -0.2321 0.8512 -0.4707
vn -0.4023 0.3097 -0.8615
vn 0.5889 0.3114 -0.7459
vn 0.5873 0.6541 0.4767
vn -0.0843 0.7173 0.6917
vn -0.8449 0.5325 0.0503
vn -0.4036 -0.1373 -0.9046
vn -0.4041 -0.2330 -0.8845
vn 0.8854 0.0373 -0.4633
vn 0.8166 0.1349 0.5612
vn -0.3757 -0.0377 0.9260
vn 0.2589 0.9528 0.1588
vn -0.1868 0.9205 -0.3433
vn -0.1292 0.9356 0.3287
vn 0.2855 0.9502 -0.1248
vn -0.5247 0.8512 0.0095
vn -0.9508 0.3097 -0.0028
vn -0.4241 0.3114 -0.8504
vn 0.6814 0.6541 -0.3284
vn 0.5900 0.7173 0.3708
vn -0.3143 0.5325 0.7859
vn -0.9903 -0.1373 -0.0200
vn 0.5889 0.3114 -0.7458
vn -0.9526 -0.2185 0.2118
vn -0.2904 0.1525 -0.9447
vn 0.7070 0.1812 -0.6836
vn 0.8387 -0.1300 0.5289
vn 0.2424 0.9625 -0.1217
vn -0.3339 0.9164 0.2209
vn 0.3372 0.8968 0.2864
vn -0.0313 0.9796 -0.1986
vn -0.0525 0.7930 0.6070
vn -0.1652 0.2137 0.9628
vn -0.9005 0.3182 0.2963
vn -0.1703 0.7368 -0.6543
vn 0.5020 0.7487 -0.4330
vn 0.7356 0.4508 0.5056
vn -0.2076 -0.2332 0.9500
vn -0.9867 0.0927 -0.1333
vn 0.7360 0.5490 -0.3961
vn 0.7850 -0.2330 0.5739
vn -0.5611 0.6178 0.5509
vn 0.3395 0.8872 -0.3125
vn -0.1666 0.9822 -0.0865
vn -0.0811 0.9515 -0.2969
vn -0.3030 0.9521 -0.0412
vn -0.4926 0.6831 0.5392
vn -0.1557 0.7349 0.6600
vn 0.1357 0.9749 0.1765
vn 0.2386 0.9566 0.1675
vn 0.8695 0.4042 -0.2837
vn 0.5415 0.6950 -0.4730
vn 0.5145 0.4811 -0.7098
vn -0.0076 0.4694 -0.8830
vn -0.1794 0.6788 -0.7121
vn -0.5433 0.3724 -0.7524
vn -0.8245 0.4985 -0.2678
vn -0.7798 0.6006 -0.1766
vn -0.8874 0.4269 0.1741
vn -0.4973 0.7270 0.4734
vn -0.0108 0.5001 0.8659
vn 0.5416 0.3661 0.7567
vn 0.6061 0.7133 0.3519
vn 0.8001 0.5351 0.2711
usemtl Material.003
s 1
f 8/1/1 10/2/1 3/3/1 2/4/1
f 10/5/2 12/6/2 4/7/2 3/8/2
f 12/6/3 14/9/3 5/10/3 4/7/3
f 14/9/4 15/11/4 6/12/4 5/10/4
f 13/13/5 11/14/5 1/15/5
f 9/16/6 7/17/6 1/18/6
f 16/19/7 13/20/7 1/21/7
f 11/22/8 9/23/8 1/24/8
f 7/25/9 16/26/9 1/27/9
f 16/26/10 7/25/10 8/1/10 15/11/10
f 7/17/11 9/16/11 10/2/11 8/1/11
f 9/23/12 11/22/12 12/6/12 10/5/12
f 11/14/13 13/13/13 14/9/13 12/6/13
f 13/20/14 16/19/14 15/11/14 14/9/14
f 15/11/15 8/1/15 2/4/15 6/12/15
f 24/28/16 26/29/16 19/30/16 18/31/16
f 26/32/17 28/33/17 20/34/17 19/35/17
f 28/33/18 30/36/18 21/37/18 20/34/18
f 30/36/19 31/38/19 22/39/19 21/37/19
f 29/40/20 27/41/20 17/42/20
f 25/43/21 23/44/21 17/45/21
f 32/46/22 29/47/22 17/48/22
f 27/49/23 25/50/23 17/51/23
f 23/52/24 32/53/24 17/54/24
f 32/53/25 23/52/25 24/28/25 31/38/25
f 23/44/26 25/43/26 26/29/26 24/28/26
f 25/50/27 27/49/27 28/33/27 26/32/27
f 27/41/28 29/40/28 30/36/28 28/33/28
f 29/47/29 32/46/29 31/38/29 30/36/29
f 31/38/30 24/28/30 18/31/30 22/39/30
f 40/55/31 42/56/31 35/57/31 34/58/31
f 42/59/32 44/60/32 36/61/32 35/62/32
f 44/60/33 46/63/33 37/64/33 36/61/33
f 46/63/34 47/65/34 38/66/34 37/64/34
f 45/67/35 43/68/35 33/69/35
f 41/70/36 39/71/36 33/72/36
f 48/73/37 45/74/37 33/75/37
f 43/76/38 41/77/38 33/78/38
f 39/79/39 48/80/39 33/81/39
f 48/80/40 39/79/40 40/55/40 47/65/40
f 39/71/41 41/70/41 42/56/41 40/55/41
f 41/77/42 43/76/42 44/60/42 42/59/42
f 43/68/43 45/67/43 46/63/43 44/60/43
f 45/74/44 48/73/44 47/65/44 46/63/44
f 47/65/45 40/55/45 34/58/45 38/66/45
f 56/82/31 58/83/31 51/84/31 50/85/31
f 58/86/32 60/87/32 52/88/32 51/89/32
f 60/87/33 62/90/33 53/91/33 52/88/33
f 62/90/34 63/92/34 54/93/34 53/91/34
f 61/94/35 59/95/35 49/96/35
f 57/97/36 55/98/36 49/99/36
f 64/100/37 61/101/37 49/102/37
f 59/103/38 57/104/38 49/105/38
f 55/106/39 64/107/39 49/108/39
f 64/107/40 55/106/40 56/82/40 63/92/40
f 55/98/41 57/97/41 58/83/41 56/82/41
f 57/104/42 59/103/42 60/87/42 58/86/42
f 59/95/43 61/94/43 62/90/43 60/87/43
f 61/101/44 64/100/44 63/92/44 62/90/44
f 63/92/45 56/82/45 50/85/45 54/93/45
f 72/109/46 74/110/46 67/111/46 66/112/46
f 74/113/47 76/114/47 68/115/47 67/116/47
f 76/114/48 78/117/48 69/118/48 68/115/48
f 78/117/49 79/119/49 70/120/49 69/118/49
f 77/121/50 75/122/50 65/123/50
f 73/124/51 71/125/51 65/126/51
f 80/127/52 77/128/52 65/129/52
f 75/130/53 73/131/53 65/132/53
f 71/133/54 80/134/54 65/135/54
f 80/134/55 71/133/55 72/109/55 79/119/55
f 71/125/56 73/124/56 74/110/56 72/109/56
f 73/131/57 75/130/57 76/114/57 74/113/57
f 75/122/58 77/121/58 78/117/58 76/114/58
f 77/128/59 80/127/59 79/119/59 78/117/59
f 79/119/60 72/109/60 66/112/60 70/120/60
f 88/136/61 90/137/61 83/138/61 82/139/61
f 90/140/62 92/141/62 84/142/62 83/143/62
f 92/141/63 94/144/63 85/145/63 84/142/63
f 94/144/64 95/146/64 86/147/64 85/145/64
f 93/148/65 91/149/65 81/150/65
f 89/151/66 87/152/66 81/153/66
f 96/154/67 93/155/67 81/156/67
f 91/157/68 89/158/68 81/159/68
f 87/160/69 96/161/69 81/162/69
f 96/161/70 87/160/70 88/136/70 95/146/70
f 87/152/71 89/151/71 90/137/71 88/136/71
f 89/158/72 91/157/72 92/141/72 90/140/72
f 91/149/73 93/148/73 94/144/73 92/141/73
f 93/155/74 96/154/74 95/146/74 94/144/74
f 95/146/75 88/136/75 82/139/75 86/147/75
f 104/163/76 106/164/76 99/165/76 98/166/76
f 106/167/77 108/168/77 100/169/77 99/170/77
f 108/168/78 110/171/78 101/172/78 100/169/78
f 110/171/79 111/173/79 102/174/79 101/172/79
f 109/175/80 107/176/80 97/177/80
f 105/178/81 103/179/81 97/180/81
f 112/181/82 109/182/82 97/183/82
f 107/184/83 105/185/83 97/186/83
f 103/187/84 112/188/84 97/189/84
f 112/188/85 103/187/85 104/163/85 111/173/85
f 103/179/86 105/178/86 106/164/86 104/163/86
f 105/185/87 107/184/87 108/168/87 106/167/87
f 107/176/88 109/175/88 110/171/88 108/168/88
f 109/182/89 112/181/89 111/173/89 110/171/89
f 111/173/90 104/163/90 98/166/90 102/174/90
f 120/190/61 122/191/61 115/192/61 114/193/61
f 122/194/62 124/195/62 116/196/62 115/197/62
f 124/195/63 126/198/63 117/199/63 116/196/63
f 126/198/64 127/200/64 118/201/64 117/199/64
f 125/202/65 123/203/65 113/204/65
f 121/205/66 119/206/66 113/207/66
f 128/208/67 125/209/67 113/210/67
f 123/211/68 121/212/68 113/213/68
f 119/214/69 128/215/69 113/216/69
f 128/215/70 119/214/70 120/190/70 127/200/70
f 119/206/91 121/205/91 122/191/91 120/190/91
f 121/212/72 123/211/72 124/195/72 122/194/72
f 123/203/73 125/202/73 126/198/73 124/195/73
f 125/209/74 128/208/74 127/200/74 126/198/74
f 127/200/75 120/190/75 114/193/75 118/201/75
f 136/217/76 138/218/76 131/219/76 130/220/76
f 138/221/77 140/222/77 132/223/77 131/224/77
f 140/222/78 142/225/78 133/226/78 132/223/78
f 142/225/79 143/227/79 134/228/79 133/226/79
f 141/229/80 139/230/80 129/231/80
f 137/232/81 135/233/81 129/234/81
f 144/235/82 141/236/82 129/237/82
f 139/238/83 137/239/83 129/240/83
f 135/241/84 144/242/84 129/243/84
f 144/242/85 135/241/85 136/217/85 143/227/85
f 135/233/86 137/232/86 138/218/86 136/217/86
f 137/239/87 139/238/87 140/222/87 138/221/87
f 139/230/88 141/229/88 142/225/88 140/222/88
f 141/236/89 144/235/89 143/227/89 142/225/89
f 143/227/90 136/217/90 130/220/90 134/228/90
f 152/244/92 154/245/92 147/246/92 146/247/92
f 154/248/93 156/249/93 148/250/93 147/251/93
f 156/249/94 158/252/94 149/253/94 148/250/94
f 158/252/95 159/254/95 150/255/95 149/253/95
f 157/256/96 155/257/96 145/258/96
f 153/259/97 151/260/97 145/261/97
f 160/262/98 157/263/98 145/264/98
f 155/265/99 153/266/99 145/267/99
f 151/268/100 160/269/100 145/270/100
f 160/269/101 151/268/101 152/244/101 159/254/101
f 151/260/102 153/259/102 154/245/102 152/244/102
f 153/266/103 155/265/103 156/249/103 154/248/103
f 155/257/104 157/256/104 158/252/104 156/249/104
f 157/263/105 160/262/105 159/254/105 158/252/105
f 159/254/106 152/244/106 146/247/106 150/255/106
f 168/271/1 170/272/1 163/273/1 162/274/1
f 170/275/107 172/276/107 164/277/107 163/278/107
f 172/276/3 174/279/3 165/280/3 164/277/3
f 174/279/4 175/281/4 166/282/4 165/280/4
f 173/283/5 171/284/5 161/285/5
f 169/286/6 167/287/6 161/288/6
f 176/289/7 173/290/7 161/291/7
f 171/292/8 169/293/8 161/294/8
f 167/295/9 176/296/9 161/297/9
f 176/296/10 167/295/10 168/271/10 175/281/10
f 167/287/11 169/286/11 170/272/11 168/271/11
f 169/293/12 171/292/12 172/276/12 170/275/12
f 171/284/13 173/283/13 174/279/13 172/276/13
f 173/290/108 176/289/108 175/281/108 174/279/108
f 175/281/109 168/271/109 162/274/109 166/282/109
f 177/298/110 193/299/110 188/300/110
f 184/301/111 187/302/111 178/303/111
f 178/304/112 186/305/112 185/306/112
f 187/302/113 186/305/113 178/304/113
f 186/305/114 188/307/114 185/308/114
f 188/300/115 193/299/115 185/309/115
f 185/309/116 193/299/116 189/310/116
f 185/311/117 189/312/117 178/313/117
f 189/312/118 184/314/118 178/313/118
f 179/315/119 190/316/119 184/301/119
f 190/316/120 187/302/120 184/301/120
f 190/316/121 183/317/121 187/302/121
f 183/317/122 191/318/122 187/302/122
f 191/318/123 186/305/123 187/302/123
f 191/318/124 182/319/124 186/305/124
f 182/319/125 192/320/125 186/305/125
f 192/320/126 188/307/126 186/305/126
f 192/320/127 177/321/127 188/307/127
f 181/322/128 193/299/128 177/298/128
f 193/299/129 180/323/129 189/312/129
f 180/323/130 194/324/130 189/312/130
f 194/324/131 184/301/131 189/312/131
f 194/324/132 179/315/132 184/301/132
