# Blender v3.0.1 OBJ File: 'untitled.blend'
# www.blender.org
mtllib top.mtl
o cu_floor.001_Plane.006
v 0.000000 1.372009 -5.000000
v 0.000000 1.372009 5.000000
v 5.000000 1.372009 0.000000
v 0.000000 1.372009 -7.500000
v 5.000000 1.372009 2.500000
v 2.500000 1.372009 5.000000
v -5.000000 1.372009 2.500000
v -5.000000 1.372009 -2.500000
v 2.500000 1.372009 -5.000000
v 2.500000 1.372009 -2.500000
v -2.500000 1.372009 -2.500000
v -2.500000 1.372009 2.500000
v -2.500000 1.372009 -7.500000
v 0.000000 1.372009 -8.750000
v -8.750000 1.372009 0.000000
v 0.000000 1.372009 -3.750000
v 5.000000 1.372009 1.250000
v 1.250000 1.372009 5.000000
v -5.000000 1.372009 1.250000
v 1.250000 1.372009 -5.000000
v 0.000000 1.372009 -6.250000
v 0.000000 1.372009 3.750000
v 3.750000 1.372009 0.000000
v 5.000000 1.372009 3.750000
v 3.750000 1.372009 5.000000
v -5.000000 1.372009 -1.250000
v -1.250000 1.372009 -5.000000
v 2.500000 1.372009 -3.750000
v 2.500000 1.372009 -1.250000
v -2.500000 1.372009 -3.750000
v -3.750000 1.372009 -2.500000
v -1.250000 1.372009 -2.500000
v -7.500000 1.372009 -3.750000
v -8.750000 1.372009 -2.500000
v -6.250000 1.372009 -2.500000
v -7.500000 1.372009 1.250000
v -2.500000 1.372009 3.750000
v -3.750000 1.372009 2.500000
v -2.500000 1.372009 -8.750000
v -2.500000 1.372009 -6.250000
v -1.250000 1.372009 -6.250000
v -1.250000 1.372009 3.750000
v -8.750000 1.372009 1.250000
v -8.750000 1.372009 -1.250000
v -8.750000 1.372009 -3.750000
v -3.750000 1.372009 -1.250000
v -3.750000 1.372009 -3.750000
v 1.250000 1.372009 -6.250000
v 3.750000 1.372009 -1.250000
v -1.250000 1.372009 -3.750000
v -6.250000 1.372009 -3.750000
v -6.250000 1.372009 1.250000
v -1.250000 1.372009 -8.750000
v 4.721787 1.372009 4.700729
vt 0.000000 0.000000
vt 0.000000 0.000000
vt 0.000000 0.000000
vt 0.000000 0.000000
vt 0.000000 0.000000
vt 0.000000 0.000000
vt 0.000000 0.000000
vt 0.000000 0.000000
vt 0.000000 0.000000
vt 0.000000 0.000000
vt 0.000000 0.000000
vt 0.000000 0.000000
vt 0.000000 0.000000
vt 0.000000 0.000000
vt 0.000000 0.000000
vt 0.000000 0.000000
vt 0.000000 0.000000
vt 0.000000 0.000000
vt 0.000000 0.000000
vt 0.000000 0.000000
vt 0.000000 0.000000
vt 0.000000 0.000000
vt 0.000000 0.000000
vt 0.000000 0.000000
vt 0.000000 0.000000
vt 0.000000 0.000000
vt 0.000000 0.000000
vt 0.000000 0.000000
vt 0.000000 0.000000
vt 0.000000 0.000000
vt 0.000000 0.000000
vt 0.000000 0.000000
vt 0.000000 0.000000
vt 0.000000 0.000000
vt 0.000000 0.000000
vt 0.000000 0.000000
vt 0.000000 0.000000
vt 0.000000 0.000000
vt 0.000000 0.000000
vt 0.000000 0.000000
vt 0.000000 0.000000
vt 0.000000 0.000000
vt 0.000000 0.000000
vt 0.000000 0.000000
vt 0.000000 0.000000
vt 0.000000 0.000000
vt 0.000000 0.000000
vt 0.000000 0.000000
vt 0.000000 0.000000
vt 0.000000 0.000000
vt 0.000000 0.000000
vt 0.000000 0.000000
vt 0.000000 0.000000
vt 0.000000 0.000000
vn 0.0000 -1.0000 0.0000
usemtl DefaultMaterial.002
s off
f 1/1/1 27/2/1 41/3/1 40/4/1 13/5/1 39/6/1 53/7/1 14/8/1 4/9/1 21/10/1 48/11/1 20/12/1 9/13/1 28/14/1 10/15/1 29/16/1 49/17/1 23/18/1 3/19/1 17/20/1 5/21/1 24/22/1 54/23/1 25/24/1 6/25/1 18/26/1 2/27/1 22/28/1 42/29/1 37/30/1 12/31/1 38/32/1 7/33/1 19/34/1 52/35/1 36/36/1 43/37/1 15/38/1 44/39/1 34/40/1 45/41/1 33/42/1 51/43/1 35/44/1 8/45/1 26/46/1 46/47/1 31/48/1 47/49/1 30/50/1 11/51/1 32/52/1 50/53/1 16/54/1
