# Blender 4.4.3
# www.blender.org
mtllib quit.mtl
o cu_wall1_Plane.004
v 0.000000 -0.000000 -5.000000
v 0.000000 0.000000 5.000000
v -5.000000 0.000000 2.500000
v -2.500000 0.000000 2.500000
v -8.750000 0.000000 0.000000
v 0.000000 -0.000000 -3.750000
v -5.000000 0.000000 1.250000
v 0.000000 0.000000 3.750000
v -3.750000 -0.000000 -2.500000
v -1.250000 -0.000000 -2.500000
v -8.750000 -0.000000 -2.500000
v -2.500000 0.000000 3.750000
v -8.750000 0.000000 1.250000
v -8.750000 -0.000000 -1.250000
v -8.750000 -0.000000 -3.750000
v -3.750000 -0.000000 -1.250000
v -3.750000 -0.000000 -3.750000
v -1.250000 -0.000000 -3.750000
v 0.000000 1.372009 -3.750000
v 0.000000 1.372009 -5.000000
v -3.750000 1.372009 -2.500000
v -1.250000 1.372009 -2.500000
v -3.750000 1.372009 -1.250000
v -3.750000 1.372009 -3.750000
v -1.250000 1.372009 -3.750000
v -8.750000 1.372009 -0.000000
v 0.000000 1.372009 5.000000
v -5.000000 1.372009 2.500000
v -8.750000 1.372009 -2.500000
v -2.500000 1.372009 3.750000
v -2.500000 1.372009 2.500000
v -5.000000 1.372009 1.250000
v 0.000000 1.372009 3.750000
v -8.750000 1.372009 1.250000
v -8.750000 1.372009 -1.250000
v -8.750000 1.372009 -3.750000
v -3.750000 -0.000000 -2.500000
v -3.750000 1.372009 -2.500000
v 5.000000 0.000000 0.000000
v 0.000000 -0.000001 -7.500000
v 5.000000 0.000000 2.500000
v -5.000000 0.000000 2.500000
v -5.000000 -0.000000 -2.500000
v 2.500000 -0.000000 -5.000000
v 2.500000 -0.000000 -2.500000
v -2.500000 0.000000 2.500000
v -2.500000 -0.000001 -7.500000
v 0.000000 -0.000001 -8.750000
v 5.000000 0.000000 1.250000
v -5.000000 0.000000 1.250000
v 1.250000 -0.000000 -5.000000
v 0.000000 -0.000000 -6.250000
v 3.750000 0.000000 0.000000
v 5.000000 0.000000 3.750000
v -5.000000 -0.000000 -1.250000
v -1.250000 -0.000000 -5.000000
v 2.500000 -0.000000 -3.750000
v 2.500000 -0.000000 -1.250000
v -6.250000 -0.000000 -2.500000
v -2.500000 0.000000 3.750000
v -2.500000 -0.000001 -8.750000
v -2.500000 -0.000000 -6.250000
v -1.250000 -0.000000 -6.250000
v 1.250000 -0.000000 -6.250000
v 3.750000 -0.000000 -1.250000
v -6.250000 -0.000000 -3.750000
v 5.000000 1.372009 -0.000000
v 0.000000 1.372008 -7.500000
v 5.000000 1.372009 2.500000
v -5.000000 1.372009 2.500000
v -5.000000 1.372009 -2.500000
v 2.500000 1.372009 -5.000000
v 2.500000 1.372009 -2.500000
v -2.500000 1.372009 2.500000
v -2.500000 1.372008 -7.500000
v 0.000000 1.372008 -8.750000
v 5.000000 1.372009 1.250000
v -5.000000 1.372009 1.250000
v 1.250000 1.372009 -5.000000
v 0.000000 1.372009 -6.250000
v 3.750000 1.372009 -0.000000
v 5.000000 1.372009 3.750000
v -5.000000 1.372009 -1.250000
v -1.250000 1.372009 -5.000000
v 2.500000 1.372009 -3.750000
v 2.500000 1.372009 -1.250000
v -6.250000 1.372009 -2.500000
v -2.500000 1.372009 3.750000
v -2.500000 1.372008 -8.750000
v -2.500000 1.372009 -6.250000
v -1.250000 1.372009 -6.250000
v 1.250000 1.372009 -6.250000
v 3.750000 1.372009 -1.250000
v -6.250000 1.372009 -3.750000
vn 1.0000 -0.0000 -0.0000
vn -1.0000 -0.0000 -0.0000
vt 0.000000 0.000000
vt 1.000000 0.000000
vt 1.000000 1.000000
vt 0.000000 1.000000
vt 1.000000 1.000000
vt 1.000000 0.000000
s 1
usemtl Material.005
f 12/1/1 4/2/1 31/3/1 30/4/1
f 13/3/1 5/4/1 26/1/1 34/2/1
f 2/3/1 8/4/1 33/1/1 27/2/1
f 16/2/1 9/1/1 21/4/1 23/3/1
f 10/3/1 18/4/1 25/1/1 22/2/1
f 6/1/1 1/2/1 20/3/1 19/4/1
f 9/1/1 17/2/1 24/3/1 21/4/1
f 14/3/1 11/4/1 29/1/1 35/2/1
f 5/4/1 14/3/1 35/2/1 26/1/1
f 11/4/1 15/3/1 36/2/1 29/1/1
f 3/1/1 7/2/1 32/3/1 28/4/1
s 0
usemtl DefaultMaterial
f 51/5/1 64/4/1 92/1/1 79/6/1
s 1
f 40/1/2 52/4/2 80/3/2 68/6/2
f 62/4/1 47/1/1 75/2/1 90/3/1
f 39/6/2 49/5/2 77/4/2 67/1/2
f 65/5/2 53/4/2 81/1/2 93/6/2
s 0
f 63/3/2 56/4/2 84/1/2 91/2/2
s 1
f 57/3/2 45/2/2 73/1/2 85/4/2
f 44/2/2 57/3/2 85/4/2 72/1/2
f 66/3/2 59/4/2 87/1/2 94/2/2
f 60/3/1 46/4/1 74/1/1 88/2/1
f 45/2/2 58/3/2 86/4/2 73/1/2
f 43/1/2 55/2/2 83/3/2 71/4/2
f 49/5/2 41/2/2 69/1/2 77/4/2
f 42/3/1 50/4/1 78/1/1 70/2/1
f 47/1/1 61/4/1 89/3/1 75/2/1
f 41/2/2 54/3/2 82/4/2 69/1/2
f 48/4/2 40/1/2 68/6/2 76/3/2
l 37 38
