# Blender 4.4.3
# www.blender.org
mtllib Untitled2.mtl
o cu_floor_Plane.002
v 0.000000 -0.000000 -5.000000
v 5.000000 0.000000 0.000000
v -5.000000 0.000000 2.500000
v -5.000000 -0.000000 -2.500000
v 2.500000 -0.000000 -5.000000
v -2.500000 0.000000 2.500000
v 0.000000 -0.000001 -8.750000
v -5.000000 0.000000 1.250000
v 1.250000 -0.000000 -5.000000
v 0.000000 -0.000000 -6.250000
v 0.000000 0.000000 3.750000
v 3.750000 0.000000 0.000000
v -1.250000 -0.000000 -5.000000
v 2.500000 -0.000000 -1.250000
v -7.500000 -0.000000 -3.750000
v -6.250000 -0.000000 -2.500000
v -7.500000 0.000000 1.250000
v -2.500000 0.000000 3.750000
v -3.750000 0.000000 2.500000
v -2.500000 -0.000001 -8.750000
v -2.500000 -0.000000 -6.250000
v -1.250000 -0.000000 -6.250000
v -1.250000 0.000000 3.750000
v -8.750000 0.000000 1.250000
v -8.750000 -0.000000 -3.750000
v 1.250000 -0.000000 -6.250000
v 3.750000 -0.000000 -1.250000
v -6.250000 -0.000000 -3.750000
v -6.250000 0.000000 1.250000
v -1.250000 -0.000001 -8.750000
v 0.000000 1.372009 -5.000000
v 5.000000 1.372009 -0.000000
v -5.000000 1.372009 2.500000
v -5.000000 1.372009 -2.500000
v 2.500000 1.372009 -5.000000
v -2.500000 1.372009 2.500000
v 0.000000 1.372008 -8.750000
v -5.000000 1.372009 1.250000
v 1.250000 1.372009 -5.000000
v 0.000000 1.372009 -6.250000
v 0.000000 1.372009 3.750000
v 3.750000 1.372009 -0.000000
v -1.250000 1.372009 -5.000000
v 2.500000 1.372009 -1.250000
v -7.500000 1.372009 -3.750000
v -6.250000 1.372009 -2.500000
v -7.500000 1.372009 1.250000
v -2.500000 1.372009 3.750000
v -3.750000 1.372009 2.500000
v -2.500000 1.372008 -8.750000
v -2.500000 1.372009 -6.250000
v -1.250000 1.372009 -6.250000
v -1.250000 1.372009 3.750000
v -8.750000 1.372009 1.250000
v -8.750000 1.372009 -3.750000
v 1.250000 1.372009 -6.250000
v 3.750000 1.372009 -1.250000
v -6.250000 1.372009 -3.750000
v -6.250000 1.372009 1.250000
v -1.250000 1.372008 -8.750000
v -2.500000 -0.000000 -2.500000
v 0.000000 -0.000000 -3.750000
v 5.000000 0.000000 3.750000
v -5.000000 -0.000000 -1.250000
v -2.500000 -0.000000 -3.750000
v -1.250000 -0.000000 -2.500000
v -2.500000 -0.000001 -8.750000
v -3.750000 -0.000000 -1.250000
v -3.750000 -0.000000 -3.750000
v -1.250000 -0.000000 -3.750000
v -1.250000 -0.000001 -8.750000
v 0.000000 1.372009 -3.750000
v -5.000000 1.372009 -1.250000
v -2.500000 1.372009 -3.750000
v -1.250000 1.372009 -2.500000
v -2.500000 1.372009 -2.500000
v -3.750000 1.372009 -1.250000
v -3.750000 1.372009 -3.750000
v -1.250000 1.372009 -3.750000
v 5.000000 1.372009 3.750000
v -2.500000 1.372008 -8.750000
v -1.250000 1.372008 -8.750000
v 5.909905 0.000000 3.750000
v 5.909905 1.372009 3.750000
v -2.500000 -0.000000 -2.500000
v -1.250000 -0.000000 -2.500000
v -1.250000 1.372009 -2.500000
v -2.500000 1.372009 -2.500000
vn -0.0000 -0.0000 1.0000
vn -0.0000 -0.0000 -1.0000
vn -1.0000 -0.0000 -0.0000
vt 0.000000 1.000000
vt 0.000000 0.000000
vt 1.000000 -0.015625
vt 1.000000 1.000000
vt 1.000000 -0.015625
vt 1.000000 1.000000
vt 1.000000 1.000000
vt 1.000000 -0.015625
vt 1.000000 -0.015625
s 1
usemtl DefaultMaterial
f 30/1/1 7/2/1 37/3/1 60/4/1
f 11/5/2 23/6/2 53/1/2 41/2/2
s 0
f 26/4/2 10/1/2 40/2/2 56/3/2
s 1
f 22/4/2 21/1/2 51/2/2 52/3/2
f 12/4/1 2/1/1 32/2/1 42/3/1
f 14/4/1 27/1/1 57/2/1 44/3/1
f 8/5/2 29/7/2 59/1/2 38/2/2
s 0
f 13/2/1 1/3/1 31/4/1 43/1/1
s 1
f 9/4/1 5/1/1 35/2/1 39/3/1
f 15/1/1 28/2/1 58/8/1 45/4/1
f 29/7/2 17/5/2 47/2/2 59/1/2
f 23/6/2 18/3/2 48/2/2 53/1/2
f 16/2/1 4/3/1 34/4/1 46/1/1
f 19/6/2 3/9/2 33/2/2 49/1/2
f 17/5/2 24/6/2 54/1/2 47/2/2
f 20/2/1 30/1/1 60/4/1 50/5/1
f 6/3/2 19/6/2 49/1/2 36/2/2
f 25/2/1 15/1/1 45/4/1 55/3/1
usemtl Material.004
f 64/1/1 68/2/1 77/3/1 73/4/1
f 67/1/1 71/2/1 82/3/1 81/4/1
f 65/2/3 61/1/3 76/4/3 74/3/3
f 69/1/1 65/2/1 74/3/1 78/4/1
f 70/1/1 62/2/1 72/3/1 79/4/1
f 61/1/1 66/2/1 75/3/1 76/4/1
f 63/1/1 83/2/1 84/3/1 80/4/1
l 61 85
l 66 86
l 75 87
l 76 88
