o Cube_Cube.001
v -1.000000 -1.000000 1.000000
v -1.000000 -1.000000 -1.000000
v 1.000000 -1.000000 1.000000
v 1.000000 -1.000000 -1.000000
v 0.000000 1.000000 0.000000
vt 0.125000 0.750000
vt 0.000000 0.000000
vt 0.125000 0.500000
vt 0.375000 0.750000
vt 0.375000 0.500000
vn -0.8944 0.4472 0.0000
vn 0.8944 0.4472 0.0000
vn 0.0000 -1.0000 0.0000
vn 0.0000 0.4472 0.8944
vn 0.0000 0.4472 -0.8944
f 1/1/1 5/2/1 2/3/1
f 3/4/2 4/5/2 5/2/2
f 2/3/3 4/5/3 3/4/3 1/1/3
f 5/2/4 1/1/4 3/4/4
f 2/3/5 5/2/5 4/5/5
