# Blender 4.5.1 LTS
# www.blender.org
mtllib cu_Cylinder.mtl
o cu_Cylinder
v -7.582301 0.652808 0.214815
v -7.472276 0.652808 0.250564
v -7.404277 0.652808 0.344157
v -7.404277 0.652808 0.459844
v -7.472276 0.652808 0.553437
v -7.582301 0.652808 0.589186
v -7.692326 0.652808 0.553437
v -7.760325 0.652808 0.459844
v -7.760325 0.652808 0.344157
v -7.692326 0.652808 0.250564
v -7.582301 0.635114 0.255886
v -7.496417 0.635114 0.283791
v -7.443338 0.635114 0.356848
v -7.443338 0.635114 0.447152
v -7.496417 0.635114 0.520209
v -7.582301 0.635114 0.548115
v -7.668185 0.635114 0.520209
v -7.721264 0.635114 0.447152
v -7.721264 0.635114 0.356848
v -7.668185 0.635114 0.283791
v -7.582301 0.637968 0.214815
v -7.472276 0.637968 0.250564
v -7.404277 0.637968 0.344157
v -7.404277 0.637968 0.459844
v -7.472276 0.637968 0.553437
v -7.582301 0.637968 0.589186
v -7.692326 0.637968 0.553437
v -7.760325 0.637968 0.459844
v -7.760325 0.637968 0.344157
v -7.692326 0.637968 0.250564
v -7.582301 -0.060320 0.255886
v -7.496417 -0.060320 0.283791
v -7.443338 -0.060320 0.356848
v -7.443338 -0.060320 0.447152
v -7.496417 -0.060320 0.520209
v -7.582301 -0.060320 0.548115
v -7.668185 -0.060320 0.520209
v -7.721264 -0.060320 0.447152
v -7.721264 -0.060320 0.356848
v -7.668185 -0.060320 0.283791
v -7.582301 0.652808 0.258848
v -7.498158 0.652808 0.286188
v -7.446155 0.652808 0.357764
v -7.446155 0.652808 0.446237
v -7.498158 0.652808 0.517813
v -7.582301 0.652808 0.545153
v -7.666444 0.652808 0.517813
v -7.718447 0.652808 0.446237
v -7.718447 0.652808 0.357764
v -7.666444 0.652808 0.286188
v -7.582301 0.652808 0.214815
v -7.472276 0.652808 0.250564
v -7.404277 0.652808 0.344157
v -7.404277 0.652808 0.459844
v -7.472276 0.652808 0.553437
v -7.582301 0.652808 0.589186
v -7.692326 0.652808 0.553437
v -7.760325 0.652808 0.459844
v -7.760325 0.652808 0.344157
v -7.692326 0.652808 0.250564
v -7.582301 0.737476 0.280206
v -7.510712 0.737476 0.303467
v -7.466468 0.737476 0.364364
v -7.466468 0.737476 0.439637
v -7.510712 0.737476 0.500534
v -7.582301 0.737476 0.523795
v -7.653890 0.737476 0.500534
v -7.698134 0.737476 0.439637
v -7.698134 0.737476 0.364364
v -7.653890 0.737476 0.303467
v -7.582301 0.837886 0.342274
v -7.547194 0.837886 0.353680
v -7.525498 0.837886 0.383544
v -7.525498 0.837886 0.420457
v -7.547194 0.837886 0.450320
v -7.582301 0.837886 0.461727
v -7.617408 0.837886 0.450320
v -7.639104 0.837886 0.420457
v -7.639104 0.837886 0.383544
v -7.617408 0.837886 0.353680
v -7.483137 0.419611 0.491725
v -7.543417 0.419611 0.720261
v -7.512306 0.349189 0.491725
v -7.554930 0.391813 0.720261
v -7.582727 0.320020 0.491725
v -7.582727 0.380299 0.720261
v -7.653149 0.349189 0.491725
v -7.610525 0.391813 0.720261
v -7.682318 0.419611 0.491725
v -7.622039 0.419611 0.720261
v -7.653149 0.490032 0.491725
v -7.610525 0.447408 0.720261
v -7.582727 0.519201 0.491725
v -7.582727 0.458922 0.720261
v -7.512306 0.490032 0.491725
v -7.554930 0.447408 0.720261
v -7.512306 0.349189 0.690907
v -7.483137 0.419611 0.690907
v -7.582727 0.320020 0.690907
v -7.653149 0.349189 0.690907
v -7.682318 0.419611 0.690907
v -7.653149 0.490032 0.690907
v -7.582727 0.519201 0.690907
v -7.512306 0.490032 0.690907
v -7.529963 0.366846 0.709179
v -7.508107 0.419611 0.709179
v -7.582727 0.344990 0.709179
v -7.635492 0.366846 0.709179
v -7.657348 0.419611 0.709179
v -7.635492 0.472375 0.709179
v -7.582727 0.494231 0.709179
v -7.529963 0.472376 0.709179
v -7.554930 0.391813 0.746590
v -7.543417 0.419611 0.746590
v -7.582727 0.380299 0.746590
v -7.610525 0.391813 0.746590
v -7.622039 0.419611 0.746590
v -7.610525 0.447408 0.746590
v -7.582727 0.458922 0.746590
v -7.554930 0.447408 0.746590
v -7.710318 0.433909 0.332923
v -7.868834 0.433909 0.374733
v -7.710318 0.482754 0.353155
v -7.868834 0.453190 0.382720
v -7.710318 0.502987 0.402000
v -7.868834 0.461176 0.402000
v -7.710318 0.482754 0.450845
v -7.868834 0.453190 0.421281
v -7.710318 0.433909 0.471078
v -7.868834 0.433909 0.429267
v -7.710318 0.385064 0.450845
v -7.868834 0.414629 0.421281
v -7.710318 0.364832 0.402000
v -7.868834 0.406642 0.402000
v -7.710318 0.385064 0.353155
v -7.868834 0.414629 0.382720
v -7.848473 0.482754 0.353155
v -7.848473 0.433909 0.332923
v -7.848473 0.502987 0.402000
v -7.848473 0.482754 0.450845
v -7.848473 0.433909 0.471078
v -7.848473 0.385064 0.450845
v -7.848473 0.364832 0.402000
v -7.848473 0.385064 0.353155
v -7.861146 0.470508 0.365402
v -7.861146 0.433909 0.350242
v -7.861146 0.485667 0.402000
v -7.861146 0.470508 0.438599
v -7.861146 0.433909 0.453758
v -7.861146 0.397311 0.438599
v -7.861146 0.382151 0.402000
v -7.861146 0.397311 0.365402
v -7.887095 0.453190 0.382720
v -7.887095 0.433909 0.374733
v -7.887095 0.461176 0.402000
v -7.887095 0.453190 0.421281
v -7.887095 0.433909 0.429267
v -7.887095 0.414629 0.421281
v -7.887095 0.406642 0.402000
v -7.887095 0.414629 0.382720
v -7.479038 0.433909 0.327402
v -7.307854 0.433909 0.372554
v -7.479038 0.381160 0.349251
v -7.307854 0.413088 0.381179
v -7.479038 0.359311 0.402000
v -7.307854 0.404463 0.402000
v -7.479038 0.381160 0.454749
v -7.307854 0.413088 0.422822
v -7.479038 0.433909 0.476599
v -7.307854 0.433909 0.431446
v -7.479038 0.486658 0.454749
v -7.307854 0.454731 0.422822
v -7.479038 0.508507 0.402000
v -7.307854 0.463355 0.402000
v -7.479038 0.486658 0.349251
v -7.307854 0.454731 0.381179
v -7.329842 0.381160 0.349251
v -7.329842 0.433909 0.327402
v -7.329842 0.359311 0.402000
v -7.329842 0.381160 0.454749
v -7.329842 0.433909 0.476598
v -7.329842 0.486658 0.454749
v -7.329842 0.508507 0.402000
v -7.329842 0.486658 0.349251
v -7.316155 0.394386 0.362477
v -7.316155 0.433909 0.346106
v -7.316155 0.378015 0.402000
v -7.316155 0.394386 0.441524
v -7.316155 0.433909 0.457895
v -7.316155 0.473433 0.441524
v -7.316155 0.489804 0.402000
v -7.316155 0.473433 0.362477
v -7.288132 0.413088 0.381179
v -7.288132 0.433909 0.372554
v -7.288132 0.404463 0.402000
v -7.288132 0.413088 0.422822
v -7.288132 0.433909 0.431446
v -7.288132 0.454731 0.422822
v -7.288132 0.463355 0.402000
v -7.288132 0.454731 0.381179
vn -0.3090 -0.0000 0.9511
vn -0.3090 -0.0000 -0.9511
vn 1.0000 -0.0000 -0.0000
vn -0.8090 -0.0000 0.5878
vn 0.8090 -0.0000 0.5878
vn 0.3090 -0.0000 -0.9511
vn -1.0000 -0.0000 -0.0000
vn 0.3090 -0.0000 0.9511
vn 0.8090 -0.0000 -0.5878
vn -0.8090 -0.0000 -0.5878
vn 0.0225 -0.9973 -0.0693
vn 0.0590 -0.9973 -0.0428
vn 0.0729 -0.9973 -0.0000
vn 0.0590 -0.9973 0.0428
vn 0.0225 -0.9973 0.0693
vn -0.0225 -0.9973 0.0693
vn -0.0590 -0.9973 0.0428
vn -0.0729 -0.9973 -0.0000
vn -0.0590 -0.9973 -0.0428
vn -0.0225 -0.9973 -0.0693
vn -0.0000 1.0000 -0.0000
vn -0.3005 0.2333 0.9248
vn 0.8621 0.5068 -0.0000
vn 0.9724 0.2333 -0.0000
vn -0.3005 0.2333 -0.9248
vn -0.7867 0.2333 0.5716
vn 0.7867 0.2333 0.5716
vn 0.3005 0.2333 -0.9248
vn -0.9724 0.2333 -0.0000
vn 0.3005 0.2333 0.9248
vn 0.7867 0.2333 -0.5716
vn -0.7867 0.2333 -0.5716
vn -0.2664 0.5068 -0.8199
vn -0.6974 0.5068 0.5067
vn 0.6974 0.5068 0.5067
vn 0.2664 0.5068 -0.8199
vn -0.8621 0.5068 -0.0000
vn 0.2664 0.5068 0.8199
vn 0.6974 0.5068 -0.5067
vn -0.6974 0.5068 -0.5067
vn -0.2664 0.5068 0.8199
vn 0.9239 -0.3827 -0.0000
vn 0.3827 -0.9239 -0.0000
vn -0.3827 -0.9239 -0.0000
vn -0.9239 -0.3827 -0.0000
vn -0.9239 0.3827 -0.0000
vn -0.3827 0.9239 -0.0000
vn 0.3827 0.9239 -0.0000
vn 0.9239 0.3827 -0.0000
vn -0.0000 -0.0000 -1.0000
vn 0.5736 -0.2376 0.7839
vn 0.2376 -0.5736 0.7839
vn -0.2376 -0.5736 0.7839
vn -0.5736 -0.2376 0.7839
vn -0.5736 0.2376 0.7839
vn -0.2376 0.5736 0.7839
vn 0.2376 0.5736 0.7839
vn 0.5736 0.2376 0.7839
vn 0.2972 -0.1231 0.9469
vn 0.1231 -0.2972 0.9469
vn -0.1231 -0.2972 0.9469
vn -0.2972 -0.1231 0.9469
vn -0.2972 0.1231 0.9469
vn -0.1231 0.2972 0.9469
vn 0.1231 0.2972 0.9469
vn 0.2972 0.1231 0.9469
vn -0.0000 -0.0000 1.0000
vn -0.0000 0.3827 -0.9239
vn -0.0000 0.9239 -0.3827
vn -0.0000 0.9239 0.3827
vn -0.0000 0.3827 0.9239
vn -0.0000 -0.3827 0.9239
vn -0.0000 -0.9239 0.3827
vn -0.0000 -0.9239 -0.3827
vn -0.0000 -0.3827 -0.9239
vn -0.7839 0.2376 -0.5736
vn -0.7839 0.5736 -0.2376
vn -0.7839 0.5736 0.2376
vn -0.7839 0.2376 0.5736
vn -0.7839 -0.2376 0.5736
vn -0.7839 -0.5736 0.2376
vn -0.7839 -0.5736 -0.2376
vn -0.7839 -0.2376 -0.5736
vn -0.9469 0.1231 -0.2972
vn -0.9469 0.2972 -0.1231
vn -0.9469 0.2972 0.1231
vn -0.9469 0.1231 0.2972
vn -0.9469 -0.1231 0.2972
vn -0.9469 -0.2972 0.1231
vn -0.9469 -0.2972 -0.1231
vn -0.9469 -0.1231 -0.2972
vn 0.7839 -0.2376 -0.5736
vn 0.7839 -0.5736 -0.2376
vn 0.7839 -0.5736 0.2376
vn 0.7839 -0.2376 0.5736
vn 0.7839 0.2376 0.5736
vn 0.7839 0.5736 0.2376
vn 0.7839 0.5736 -0.2376
vn 0.7839 0.2376 -0.5736
vn 0.9469 -0.1231 -0.2972
vn 0.9469 -0.2972 -0.1231
vn 0.9469 -0.2972 0.1231
vn 0.9469 -0.1231 0.2972
vn 0.9469 0.1231 0.2972
vn 0.9469 0.2972 0.1231
vn 0.9469 0.2972 -0.1231
vn 0.9469 0.1231 -0.2972
vn -0.0000 -1.0000 -0.0000
vt 0.199273 0.917713
vt 0.219961 0.917713
vt 0.219961 0.938401
vt 0.199273 0.938401
vt 0.246775 0.921619
vt 0.267464 0.921619
vt 0.267464 0.942308
vt 0.246775 0.942308
vt 0.019520 0.362960
vt 0.028620 0.362960
vt 0.028620 0.372060
vt 0.019520 0.372060
vt 0.020361 0.355361
vt 0.029035 0.355361
vt 0.029035 0.364035
vt 0.020361 0.364035
vt 0.024698 0.364035
vt 0.027247 0.363206
vt 0.028823 0.361038
vt 0.028823 0.358357
vt 0.027247 0.356189
vt 0.024698 0.355361
vt 0.022149 0.356189
vt 0.020573 0.358357
vt 0.020573 0.361038
vt 0.022149 0.363206
vt 0.024866 0.358605
vt 0.029913 0.358605
vt 0.029913 0.363651
vt 0.024866 0.363651
vt 0.257120 0.942308
vt 0.264434 0.939278
vt 0.267464 0.931963
vt 0.264434 0.924649
vt 0.257120 0.921619
vt 0.249805 0.924649
vt 0.246775 0.931963
vt 0.249805 0.939278
vt 0.164108 0.509944
vt 0.167138 0.508689
vt 0.168393 0.505659
vt 0.167138 0.502629
vt 0.164108 0.501374
vt 0.161078 0.502629
vt 0.159823 0.505659
vt 0.161078 0.508689
vt 0.159823 0.501374
vt 0.168393 0.501374
vt 0.168393 0.509944
vt 0.159823 0.509944
vt 0.263200 0.940332
vt 0.266958 0.935160
vt 0.266958 0.928767
vt 0.263200 0.923594
vt 0.251040 0.923594
vt 0.247282 0.928767
vt 0.247282 0.935160
vt 0.251040 0.940332
s 0
usemtl mat-test
f 6/1/1 7/2/1 27/3/1 26/4/1
f 20/1/2 11/2/2 31/3/2 40/4/2
f 3/5/3 4/6/3 24/7/3 23/8/3
f 10/1/2 1/2/2 21/3/2 30/4/2
f 7/5/4 8/6/4 28/7/4 27/8/4
f 4/1/5 5/2/5 25/3/5 24/4/5
f 1/5/6 2/6/6 22/7/6 21/8/6
f 8/1/7 9/2/7 29/3/7 28/4/7
f 5/5/8 6/6/8 26/7/8 25/8/8
f 2/1/9 3/2/9 23/3/9 22/4/9
f 9/5/10 10/6/10 30/7/10 29/8/10
f 12/5/11 11/6/11 21/7/11 22/8/11
f 13/1/12 12/2/12 22/3/12 23/4/12
f 14/5/13 13/6/13 23/7/13 24/8/13
f 15/1/14 14/2/14 24/3/14 25/4/14
f 16/5/15 15/6/15 25/7/15 26/8/15
f 17/1/16 16/2/16 26/3/16 27/4/16
f 18/5/17 17/6/17 27/7/17 28/8/17
f 19/1/18 18/2/18 28/3/18 29/4/18
f 20/5/19 19/6/19 29/7/19 30/8/19
f 11/1/20 20/2/20 30/3/20 21/4/20
f 17/5/4 18/6/4 38/7/4 37/8/4
f 14/1/5 15/2/5 35/3/5 34/4/5
f 11/5/6 12/6/6 32/7/6 31/8/6
f 18/1/7 19/2/7 39/3/7 38/4/7
f 15/5/8 16/6/8 36/7/8 35/8/8
f 12/1/9 13/2/9 33/3/9 32/4/9
f 19/5/10 20/6/10 40/7/10 39/8/10
f 16/1/1 17/2/1 37/3/1 36/4/1
f 13/5/3 14/6/3 34/7/3 33/8/3
f 1/1/21 10/2/21 60/3/21 51/4/21
f 8/5/21 7/6/21 57/7/21 58/8/21
f 5/1/21 4/2/21 54/3/21 55/4/21
f 2/5/21 1/6/21 51/7/21 52/8/21
f 9/1/21 8/2/21 58/3/21 59/4/21
f 6/5/21 5/6/21 55/7/21 56/8/21
f 3/1/21 2/2/21 52/3/21 53/4/21
f 10/5/21 9/6/21 59/7/21 60/8/21
f 7/1/21 6/2/21 56/3/21 57/4/21
f 4/5/21 3/6/21 53/7/21 54/8/21
f 47/9/22 46/10/22 66/11/22 67/12/22
f 41/13/21 42/14/21 52/15/21 51/16/21
f 42/9/21 43/10/21 53/11/21 52/12/21
f 43/13/21 44/14/21 54/15/21 53/16/21
f 44/9/21 45/10/21 55/11/21 54/12/21
f 45/13/21 46/14/21 56/15/21 55/16/21
f 46/9/21 47/10/21 57/11/21 56/12/21
f 47/13/21 48/14/21 58/15/21 57/16/21
f 48/9/21 49/10/21 59/11/21 58/12/21
f 49/13/21 50/14/21 60/15/21 59/16/21
f 50/9/21 41/10/21 51/11/21 60/12/21
f 64/13/23 63/14/23 73/15/23 74/16/23
f 44/13/24 43/14/24 63/15/24 64/16/24
f 41/9/25 50/10/25 70/11/25 61/12/25
f 48/13/26 47/14/26 67/15/26 68/16/26
f 45/9/27 44/10/27 64/11/27 65/12/27
f 42/13/28 41/14/28 61/15/28 62/16/28
f 49/1/29 48/2/29 68/3/29 69/4/29
f 46/13/30 45/14/30 65/15/30 66/16/30
f 43/9/31 42/10/31 62/11/31 63/12/31
f 50/13/32 49/14/32 69/15/32 70/16/32
f 71/17/21 80/18/21 79/19/21 78/20/21 77/21/21 76/22/21 75/23/21 74/24/21 73/25/21 72/26/21
f 61/9/33 70/10/33 80/11/33 71/12/33
f 68/13/34 67/14/34 77/15/34 78/16/34
f 65/9/35 64/10/35 74/11/35 75/12/35
f 62/13/36 61/14/36 71/15/36 72/16/36
f 69/9/37 68/10/37 78/11/37 79/12/37
f 66/13/38 65/14/38 75/15/38 76/16/38
f 63/9/39 62/10/39 72/11/39 73/12/39
f 70/13/40 69/14/40 79/15/40 80/16/40
f 67/9/41 66/10/41 76/11/41 77/12/41
f 81/5/42 98/6/42 97/7/42 83/8/42
f 83/5/43 97/6/43 99/7/43 85/8/43
f 85/5/44 99/6/44 100/7/44 87/8/44
f 87/5/45 100/6/45 101/7/45 89/8/45
f 89/13/46 101/14/46 102/15/46 91/16/46
f 91/13/47 102/14/47 103/15/47 93/16/47
f 96/27/48 94/28/48 119/29/48 120/30/48
f 93/13/48 103/14/48 104/15/48 95/16/48
f 95/5/49 104/6/49 98/7/49 81/8/49
f 81/31/50 83/32/50 85/33/50 87/34/50 89/35/50 91/36/50 93/37/50 95/38/50
f 106/5/51 105/6/51 97/7/51 98/8/51
f 105/5/52 107/6/52 99/7/52 97/8/52
f 107/5/53 108/6/53 100/7/53 99/8/53
f 108/5/54 109/6/54 101/7/54 100/8/54
f 109/5/55 110/6/55 102/7/55 101/8/55
f 110/5/56 111/6/56 103/7/56 102/8/56
f 111/5/57 112/6/57 104/7/57 103/8/57
f 112/5/58 106/6/58 98/7/58 104/8/58
f 82/5/59 84/6/59 105/7/59 106/8/59
f 84/5/60 86/6/60 107/7/60 105/8/60
f 86/5/61 88/6/61 108/7/61 107/8/61
f 88/5/62 90/6/62 109/7/62 108/8/62
f 90/5/63 92/6/63 110/7/63 109/8/63
f 92/5/64 94/6/64 111/7/64 110/8/64
f 94/5/65 96/6/65 112/7/65 111/8/65
f 96/5/66 82/6/66 106/7/66 112/8/66
f 113/39/67 114/40/67 120/41/67 119/42/67 118/43/67 117/44/67 116/45/67 115/46/67
f 92/47/46 90/48/46 117/49/46 118/50/46
f 88/47/44 86/48/44 115/49/44 116/50/44
f 84/47/42 82/48/42 114/49/42 113/50/42
f 82/47/49 96/48/49 120/49/49 114/50/49
f 94/47/47 92/48/47 118/49/47 119/50/47
f 90/47/45 88/48/45 116/49/45 117/50/45
f 86/47/43 84/48/43 113/49/43 115/50/43
f 121/5/68 138/6/68 137/7/68 123/8/68
f 123/13/69 137/14/69 139/15/69 125/16/69
f 125/13/70 139/14/70 140/15/70 127/16/70
f 127/5/71 140/6/71 141/7/71 129/8/71
f 129/5/72 141/6/72 142/7/72 131/8/72
f 131/5/73 142/6/73 143/7/73 133/8/73
f 136/47/74 134/48/74 159/49/74 160/50/74
f 133/5/74 143/6/74 144/7/74 135/8/74
f 135/5/75 144/6/75 138/7/75 121/8/75
f 121/31/3 123/32/3 125/33/3 127/34/3 129/35/3 131/36/3 133/37/3 135/38/3
f 146/5/76 145/6/76 137/7/76 138/8/76
f 145/5/77 147/6/77 139/7/77 137/8/77
f 147/5/78 148/6/78 140/7/78 139/8/78
f 148/5/79 149/6/79 141/7/79 140/8/79
f 149/5/80 150/6/80 142/7/80 141/8/80
f 150/5/81 151/6/81 143/7/81 142/8/81
f 151/5/82 152/6/82 144/7/82 143/8/82
f 152/5/83 146/6/83 138/7/83 144/8/83
f 122/5/84 124/6/84 145/7/84 146/8/84
f 124/5/85 126/6/85 147/7/85 145/8/85
f 126/5/86 128/6/86 148/7/86 147/8/86
f 128/5/87 130/6/87 149/7/87 148/8/87
f 130/5/88 132/6/88 150/7/88 149/8/88
f 132/5/89 134/6/89 151/7/89 150/8/89
f 134/5/90 136/6/90 152/7/90 151/8/90
f 136/5/91 122/6/91 146/7/91 152/8/91
f 153/39/7 154/40/7 160/41/7 159/42/7 158/43/7 157/44/7 156/45/7 155/46/7
f 132/47/72 130/48/72 157/49/72 158/50/72
f 128/47/70 126/48/70 155/49/70 156/50/70
f 124/47/68 122/48/68 154/49/68 153/50/68
f 122/47/75 136/48/75 160/49/75 154/50/75
f 134/47/73 132/48/73 158/49/73 159/50/73
f 130/47/71 128/48/71 156/49/71 157/50/71
f 126/47/69 124/48/69 153/49/69 155/50/69
f 161/5/75 178/6/75 177/7/75 163/8/75
f 163/5/74 177/6/74 179/7/74 165/8/74
f 165/5/73 179/6/73 180/7/73 167/8/73
f 167/5/72 180/6/72 181/7/72 169/8/72
f 169/13/71 181/14/71 182/15/71 171/16/71
f 171/13/70 182/14/70 183/15/70 173/16/70
f 176/47/69 174/48/69 199/49/69 200/50/69
f 173/13/69 183/14/69 184/15/69 175/16/69
f 175/13/68 184/14/68 178/15/68 161/16/68
f 161/31/7 163/32/7 165/33/7 167/34/7 169/35/7 171/36/7 173/37/7 175/38/7
f 186/5/92 185/6/92 177/7/92 178/8/92
f 185/5/93 187/6/93 179/7/93 177/8/93
f 187/5/94 188/6/94 180/7/94 179/8/94
f 188/5/95 189/6/95 181/7/95 180/8/95
f 189/5/96 190/6/96 182/7/96 181/8/96
f 190/5/97 191/6/97 183/7/97 182/8/97
f 191/5/98 192/6/98 184/7/98 183/8/98
f 192/5/99 186/6/99 178/7/99 184/8/99
f 162/5/100 164/6/100 185/7/100 186/8/100
f 164/5/101 166/6/101 187/7/101 185/8/101
f 166/5/102 168/6/102 188/7/102 187/8/102
f 168/5/103 170/6/103 189/7/103 188/8/103
f 170/5/104 172/6/104 190/7/104 189/8/104
f 172/5/105 174/6/105 191/7/105 190/8/105
f 174/5/106 176/6/106 192/7/106 191/8/106
f 176/5/107 162/6/107 186/7/107 192/8/107
f 193/39/3 194/40/3 200/41/3 199/42/3 198/43/3 197/44/3 196/45/3 195/46/3
f 172/47/71 170/48/71 197/49/71 198/50/71
f 168/47/73 166/48/73 195/49/73 196/50/73
f 164/47/75 162/48/75 194/49/75 193/50/75
f 162/47/68 176/48/68 200/49/68 194/50/68
f 174/47/70 172/48/70 198/49/70 199/50/70
f 170/47/72 168/48/72 196/49/72 197/50/72
f 166/47/74 164/48/74 193/49/74 195/50/74
f 31/31/108 32/51/108 33/52/108 34/53/108 35/54/108 36/35/108 37/55/108 38/56/108 39/57/108 40/58/108
