# Blender 4.5.2 LTS
# www.blender.org
mtllib cu_glass_hyperboloid_simple.mtl
o cu_glass_hyperboloid_simple
v -1.831789 1.859729 -0.134364
v -1.831789 3.277868 -0.134364
v -2.646418 1.859729 -1.295181
v -2.646418 3.277868 -1.295181
v -0.670971 1.859729 -0.948993
v -0.670971 3.277868 -0.948993
v -1.485600 1.859729 -2.109810
v -1.485600 3.277868 -2.109810
v -2.547646 3.277868 -1.277872
v -1.502910 3.277868 -2.011038
v -0.769743 3.277868 -0.966302
v -1.814479 3.277868 -0.233136
v -1.502910 1.859729 -2.011038
v -2.547646 1.859729 -1.277872
v -1.814479 1.859729 -0.233136
v -0.769743 1.859729 -0.966302
v -2.547646 3.208375 -1.277872
v -1.502910 3.208375 -2.011038
v -1.814479 3.208375 -0.233136
v -0.769743 3.208375 -0.966302
vn -0.0000 1.0000 -0.0000
vn -0.0000 -1.0000 -0.0000
vn 0.8185 -0.0000 -0.5744
vn -0.5744 -0.0000 -0.8185
vn -0.8185 -0.0000 0.5744
vn 0.5744 -0.0000 0.8185
vt 0.000000 0.000000
s 0
usemtl DefaultMaterial
f 10/1/1 11/1/1 6/1/1 8/1/1
f 4/1/1 2/1/1 12/1/1 9/1/1
f 16/1/2 5/1/2 1/1/2 15/1/2
f 8/1/1 4/1/1 9/1/1 10/1/1
f 11/1/1 12/1/1 2/1/1 6/1/1
f 7/1/2 13/1/2 14/1/2 3/1/2
f 3/1/2 14/1/2 15/1/2 1/1/2
f 5/1/2 16/1/2 13/1/2 7/1/2
f 9/1/3 12/1/3 15/1/3 14/1/3
f 11/1/4 16/1/4 15/1/4 12/1/4
f 16/1/5 11/1/5 10/1/5 13/1/5
f 10/1/6 9/1/6 14/1/6 13/1/6
f 1/1/5 2/1/5 4/1/5 3/1/5
f 1/1/6 5/1/6 6/1/6 2/1/6
f 7/1/3 8/1/3 6/1/3 5/1/3
f 3/1/4 4/1/4 8/1/4 7/1/4
f 11/1/6 12/1/6 19/1/6 20/1/6
f 19/1/2 17/1/2 18/1/2 20/1/2
f 12/1/5 9/1/5 17/1/5 19/1/5
f 10/1/3 11/1/3 20/1/3 18/1/3
f 9/1/4 10/1/4 18/1/4 17/1/4
f 9/1/1 12/1/1 11/1/1 10/1/1
