# Blender 4.5.2 LTS
# www.blender.org
mtllib cu_glass_sphere.mtl
o cu_glass_sphere
v 1.614824 1.859729 4.776936
v 1.614824 3.277868 4.776936
v 0.800194 1.859729 3.616118
v 0.800194 3.277868 3.616118
v 2.775641 1.859729 3.962306
v 2.775641 3.277868 3.962306
v 1.961012 1.859729 2.801489
v 1.961012 3.277868 2.801489
v 0.898967 3.277868 3.633428
v 1.943702 3.277868 2.900261
v 2.676869 3.277868 3.944997
v 1.632133 3.277868 4.678164
v 1.943702 1.859729 2.900261
v 0.898967 1.859729 3.633428
v 1.632133 1.859729 4.678164
v 2.676869 1.859729 3.944997
v 0.898967 3.208375 3.633428
v 1.943702 3.208375 2.900261
v 1.632133 3.208375 4.678164
v 2.676869 3.208375 3.944997
vn -0.0000 1.0000 -0.0000
vn 0.8185 -0.0000 -0.5744
vn -0.5744 -0.0000 -0.8185
vn 0.5744 -0.0000 0.8185
vn -0.8185 -0.0000 0.5744
vn -0.0000 -1.0000 -0.0000
vt 0.000000 0.000000
s 0
usemtl DefaultMaterial
f 10/1/1 11/1/1 6/1/1 8/1/1
f 4/1/1 2/1/1 12/1/1 9/1/1
f 16/1/1 15/1/1 1/1/1 5/1/1
f 8/1/1 4/1/1 9/1/1 10/1/1
f 11/1/1 12/1/1 2/1/1 6/1/1
f 7/1/1 3/1/1 14/1/1 13/1/1
f 3/1/1 1/1/1 15/1/1 14/1/1
f 5/1/1 7/1/1 13/1/1 16/1/1
f 9/1/2 12/1/2 15/1/2 14/1/2
f 11/1/3 16/1/3 15/1/3 12/1/3
f 16/1/2 13/1/2 10/1/2 11/1/2
f 10/1/4 9/1/4 14/1/4 13/1/4
f 1/1/5 2/1/5 4/1/5 3/1/5
f 1/1/4 5/1/4 6/1/4 2/1/4
f 7/1/2 8/1/2 6/1/2 5/1/2
f 3/1/3 4/1/3 8/1/3 7/1/3
f 11/1/4 12/1/4 19/1/4 20/1/4
f 19/1/6 17/1/6 18/1/6 20/1/6
f 12/1/5 9/1/5 17/1/5 19/1/5
f 10/1/2 11/1/2 20/1/2 18/1/2
f 9/1/3 10/1/3 18/1/3 17/1/3
f 9/1/1 12/1/1 11/1/1 10/1/1
