# Blender 4.5.2 LTS
# www.blender.org
mtllib cu_glass_hyperboloid_double_2.mtl
o cu_glass_hyperboloid_double_2
v -4.129530 1.859729 -3.408564
v -4.129530 3.277868 -3.408564
v -4.944160 1.859729 -4.569381
v -4.944160 3.277868 -4.569381
v -2.968713 1.859729 -4.223193
v -2.968713 3.277868 -4.223193
v -3.783342 1.859729 -5.384010
v -3.783342 3.277868 -5.384010
v -4.845387 3.277868 -4.552072
v -3.800652 3.277868 -5.285238
v -3.067485 3.277868 -4.240502
v -4.112221 3.277868 -3.507336
v -3.800652 1.859729 -5.285238
v -4.845387 1.859729 -4.552072
v -4.112221 1.859729 -3.507336
v -3.067485 1.859729 -4.240502
v -4.845387 3.208375 -4.552072
v -3.800652 3.208375 -5.285238
v -4.112221 3.208375 -3.507336
v -3.067485 3.208375 -4.240502
vn -0.0000 1.0000 -0.0000
vn -0.0000 -1.0000 -0.0000
vn 0.8185 -0.0000 -0.5744
vn -0.5744 -0.0000 -0.8185
vn -0.8185 -0.0000 0.5744
vn 0.5744 -0.0000 0.8185
vt 0.000000 0.000000
s 0
usemtl DefaultMaterial
f 10/1/1 11/1/1 6/1/1 8/1/1
f 4/1/1 2/1/1 12/1/1 9/1/1
f 16/1/2 5/1/2 1/1/2 15/1/2
f 8/1/1 4/1/1 9/1/1 10/1/1
f 11/1/1 12/1/1 2/1/1 6/1/1
f 7/1/2 13/1/2 14/1/2 3/1/2
f 3/1/2 14/1/2 15/1/2 1/1/2
f 5/1/2 16/1/2 13/1/2 7/1/2
f 9/1/3 12/1/3 15/1/3 14/1/3
f 11/1/4 16/1/4 15/1/4 12/1/4
f 16/1/5 11/1/5 10/1/5 13/1/5
f 10/1/6 9/1/6 14/1/6 13/1/6
f 1/1/5 2/1/5 4/1/5 3/1/5
f 1/1/6 5/1/6 6/1/6 2/1/6
f 7/1/3 8/1/3 6/1/3 5/1/3
f 3/1/4 4/1/4 8/1/4 7/1/4
f 11/1/6 12/1/6 19/1/6 20/1/6
f 19/1/2 17/1/2 18/1/2 20/1/2
f 12/1/5 9/1/5 17/1/5 19/1/5
f 10/1/3 11/1/3 20/1/3 18/1/3
f 9/1/4 10/1/4 18/1/4 17/1/4
f 9/1/1 12/1/1 11/1/1 10/1/1
